<svg width="235" height="214" viewBox="0 0 235 214" fill="none" xmlns="http://www.w3.org/2000/svg">
<g clip-path="url(#clip0_1905_21472)">
<g opacity="0.3">
<path d="M47.0104 12.9472C25.5661 21.4516 14.0504 57.4592 10.9014 83.5416C8.25955 105.523 14.5727 129.807 51.7516 136.729C124.091 150.196 191.842 154.03 209.138 117.705C226.435 81.3803 231.399 19.1945 167.558 4.71491C138.939 -1.77925 88.895 -3.65848 47.0104 12.9472Z" fill="#E6E6E6"/>
</g>
<path d="M119.676 70.7154C131.53 70.7154 141.14 61.1672 141.14 49.3889C141.14 37.6107 131.53 28.0625 119.676 28.0625C107.821 28.0625 98.2109 37.6107 98.2109 49.3889C98.2109 61.1672 107.821 70.7154 119.676 70.7154Z" fill="#FFD200"/>
<g opacity="0.15">
<path d="M119.675 82.7194C138.203 82.7194 153.223 67.796 153.223 49.387C153.223 30.9781 138.203 16.0547 119.675 16.0547C101.147 16.0547 86.127 30.9781 86.127 49.387C86.127 67.796 101.147 82.7194 119.675 82.7194Z" fill="#FFD200"/>
</g>
<path d="M201.361 45.1273C201.364 44.4424 201.217 43.7651 200.93 43.1427C200.642 42.5204 200.221 41.9681 199.696 41.5245C199.171 41.081 198.554 40.7569 197.89 40.5751C197.225 40.3933 196.528 40.3581 195.849 40.472C195.302 39.4589 194.489 38.6123 193.496 38.0223C192.503 37.4322 191.367 37.121 190.21 37.1217H189.977C190.265 36.0055 190.292 34.8386 190.057 33.7103C189.821 32.5821 189.329 31.5222 188.618 30.6118C187.907 29.7015 186.996 28.9647 185.955 28.4578C184.913 27.951 183.769 27.6875 182.609 27.6875C181.449 27.6875 180.305 27.951 179.263 28.4578C178.222 28.9647 177.311 29.7015 176.6 30.6118C175.889 31.5222 175.397 32.5821 175.161 33.7103C174.926 34.8386 174.953 36.0055 175.241 37.1217H175.008C173.309 37.1217 171.68 37.7921 170.479 38.9854C169.278 40.1787 168.604 41.7972 168.604 43.4848C168.604 45.1724 169.278 46.7909 170.479 47.9843C171.68 49.1776 173.309 49.848 175.008 49.848H197.253V49.8026C198.396 49.6536 199.445 49.0973 200.205 48.2372C200.965 47.3771 201.385 46.2719 201.386 45.1273H201.361Z" fill="#E6E6E6"/>
<path d="M70.6459 45.1273C70.6496 44.4424 70.5024 43.7651 70.2148 43.1427C69.9272 42.5204 69.506 41.9681 68.9808 41.5245C68.4557 41.081 67.8392 40.7569 67.1747 40.5751C66.5101 40.3933 65.8136 40.3581 65.1339 40.472C64.5871 39.4589 63.7738 38.6123 62.7808 38.0223C61.7878 37.4322 60.6523 37.121 59.4952 37.1217H59.262C59.55 36.0055 59.5774 34.8386 59.3419 33.7103C59.1064 32.5821 58.6144 31.5222 57.9034 30.6118C57.1924 29.7015 56.2814 28.9647 55.2398 28.4578C54.1983 27.951 53.0539 27.6875 51.8941 27.6875C50.7344 27.6875 49.59 27.951 48.5485 28.4578C47.5069 28.9647 46.5959 29.7015 45.8849 30.6118C45.1739 31.5222 44.6819 32.5821 44.4464 33.7103C44.2109 34.8386 44.2383 36.0055 44.5263 37.1217H44.2931C42.5945 37.1217 40.9655 37.7921 39.7645 38.9854C38.5634 40.1787 37.8887 41.7972 37.8887 43.4848C37.8887 45.1724 38.5634 46.7909 39.7645 47.9843C40.9655 49.1776 42.5945 49.848 44.2931 49.848H66.5183V49.8026C67.6605 49.6536 68.7094 49.0973 69.4696 48.2372C70.2299 47.3771 70.6497 46.2719 70.6509 45.1273H70.6459Z" fill="#E6E6E6"/>
<path d="M30.166 86.8307C30.166 85.6775 29.705 84.5716 28.8843 83.7562C28.0636 82.9408 26.9506 82.4827 25.79 82.4827C25.5538 82.4851 25.3182 82.5053 25.0851 82.5432C24.581 81.6109 23.8319 80.8319 22.9175 80.2889C22.0032 79.746 20.9578 79.4595 19.8927 79.4599H19.6746C19.9388 78.4332 19.9632 77.3601 19.7462 76.3226C19.5291 75.2851 19.0761 74.3106 18.422 73.4736C17.7679 72.6366 16.9298 71.9593 15.9719 71.4933C15.014 71.0274 13.9615 70.7852 12.895 70.7852C11.8284 70.7852 10.776 71.0274 9.81806 71.4933C8.86014 71.9593 8.0221 72.6366 7.36796 73.4736C6.71383 74.3106 6.26091 75.2851 6.04381 76.3226C5.82671 77.3601 5.85118 78.4332 6.11536 79.4599H5.89731C4.33325 79.4599 2.83324 80.0772 1.72728 81.176C0.621322 82.2749 0 83.7652 0 85.3192C0 86.8732 0.621322 88.3636 1.72728 89.4624C2.83324 90.5612 4.33325 91.1786 5.89731 91.1786H26.368V91.1383C27.4193 91.0001 28.3841 90.4871 29.0829 89.6946C29.7816 88.9021 30.1666 87.8842 30.166 86.8307Z" fill="#E6E6E6"/>
<path d="M234.478 95.4119C234.478 94.18 233.985 92.9985 233.108 92.1273C232.231 91.2562 231.042 90.7668 229.802 90.7668C229.551 90.768 229.3 90.7899 229.052 90.8323C228.513 89.8367 227.712 89.0047 226.735 88.4246C225.759 87.8445 224.642 87.5379 223.504 87.5373H223.276C223.427 86.9495 223.503 86.3453 223.504 85.7387C223.504 83.7692 222.717 81.8803 221.315 80.4876C219.913 79.0949 218.012 78.3125 216.03 78.3125C214.048 78.3125 212.147 79.0949 210.745 80.4876C209.343 81.8803 208.556 83.7692 208.556 85.7387C208.559 86.3452 208.635 86.9491 208.784 87.5373H208.556C206.885 87.5373 205.284 88.1966 204.102 89.3701C202.921 90.5436 202.258 92.1351 202.258 93.7947C202.258 95.4543 202.921 97.0458 204.102 98.2193C205.284 99.3928 206.885 100.052 208.556 100.052H230.416V100.007C231.538 99.8589 232.569 99.311 233.315 98.4648C234.061 97.6186 234.472 96.5319 234.472 95.4069L234.478 95.4119Z" fill="#E6E6E6"/>
<g opacity="0.03">
<path d="M119.676 214C183.368 214 235.001 206.854 235.001 198.039C235.001 189.224 183.368 182.078 119.676 182.078C55.9842 182.078 4.35156 189.224 4.35156 198.039C4.35156 206.854 55.9842 214 119.676 214Z" fill="#000001"/>
</g>
<g opacity="0.03">
<path d="M141.409 118.209C134.919 116.95 128.159 119.292 124.168 124.547C122.059 127.338 120.913 130.734 122.946 134.311C126.242 140.11 137.145 144.463 144.401 146.816C146.409 147.461 148.555 147.559 150.614 147.098C152.672 146.637 154.569 145.635 156.104 144.196L162.529 138.18C163.207 137.543 163.74 136.769 164.094 135.911C164.449 135.053 164.615 134.13 164.584 133.203C164.552 132.276 164.323 131.367 163.911 130.535C163.499 129.702 162.914 128.967 162.194 128.376C157.631 124.653 150.384 119.957 141.404 118.214L141.409 118.209Z" fill="#000001"/>
</g>
<g opacity="0.46">
<path d="M38.8227 109.484L9.87874 105.801L7.88086 115.313L27.9662 117.963C36.8447 119.132 45.2247 122.719 52.1791 128.326C56.1648 131.536 60.1504 138.125 65.0184 139.748L100.539 147.27L102.207 134.322L38.8227 109.499V109.484Z" fill="white"/>
</g>
<g opacity="0.02">
<path d="M123.727 206.564C164.794 206.564 198.085 202.666 198.085 197.858C198.085 193.05 164.794 189.152 123.727 189.152C82.6603 189.152 49.3691 193.05 49.3691 197.858C49.3691 202.666 82.6603 206.564 123.727 206.564Z" fill="#000001"/>
</g>
<g opacity="0.05">
<path d="M75.6262 165.249C75.6262 165.249 61.281 167.144 60.7384 159.44C60.1959 151.737 63.0963 150.76 56.9303 148.185C50.7642 145.611 55.1149 154.231 50.0391 153.264C44.9633 152.296 51.8544 144.195 47.3161 142.28C42.7778 140.366 34.989 143.621 37.347 149.923C39.7049 156.226 46.0484 154.886 46.4135 159.43C46.7786 163.975 38.4321 168.474 45.6884 171.99C49.5168 173.844 52.6353 172.555 54.7296 170.927C55.6995 170.138 56.835 169.573 58.0528 169.276C59.2706 168.979 60.54 168.956 61.7678 169.209C65.4739 169.996 69.34 169.474 72.7004 167.733L75.6262 165.244V165.249Z" fill="#000001"/>
</g>
<path d="M136.824 171.906C136.824 171.906 137.006 174.425 139.045 175.196C141.083 175.967 141.073 178.138 139.045 178.143C137.017 178.148 132.854 174.395 132.854 174.395L133.832 171.438L136.839 171.911L136.824 171.906Z" fill="#EA8608"/>
<g opacity="0.08">
<path d="M136.824 171.906C136.824 171.906 137.006 174.425 139.045 175.196C141.083 175.967 141.073 178.138 139.045 178.143C137.017 178.148 132.854 174.395 132.854 174.395L133.832 171.438L136.839 171.911L136.824 171.906Z" fill="#000001"/>
</g>
<path d="M137.134 124.355C137.134 124.355 144.887 121.332 145.648 124.355C146.408 127.378 135.973 128.718 135.973 128.718L137.134 124.355Z" fill="#F4A28C"/>
<g opacity="0.08">
<path d="M137.134 124.355C137.134 124.355 144.887 121.332 145.648 124.355C146.408 127.378 135.973 128.718 135.973 128.718L137.134 124.355Z" fill="#000001"/>
</g>
<path d="M152.185 74.6607C152.185 74.6607 152.56 79.6988 151.678 83.0593C151.591 83.3833 151.44 83.6871 151.234 83.9531C151.029 84.2191 150.772 84.4421 150.48 84.6093C150.187 84.7765 149.864 84.8845 149.529 84.9271C149.194 84.9698 148.854 84.9463 148.529 84.8579C146.84 84.3843 144.69 83.2558 144.158 80.5704L142.687 76.1268C142.687 76.1268 141.866 73.3105 144.771 71.2952C147.677 69.28 152.124 71.5723 152.2 74.6607H152.185Z" fill="#F4A28C"/>
<path d="M147.478 75.8125L132.326 82.8155L136.804 90.8413L145.804 82.7299L147.478 75.8125Z" fill="#F4A28C"/>
<path d="M150.916 74.8517C149.34 74.8939 147.764 74.7553 146.22 74.4386C146.665 75.1323 146.897 75.9401 146.886 76.7626C146.875 77.5852 146.623 78.3867 146.16 79.0686C145.723 79.7391 145.065 80.2376 144.299 80.4784C143.533 80.7193 142.706 80.6876 141.961 80.3886L142.128 73.8844C142.121 72.953 142.367 72.0369 142.84 71.2327C143.313 70.4285 143.996 69.766 144.816 69.3148C145.526 68.9233 146.261 68.5783 147.017 68.282C148.913 67.5514 151.661 68.8362 153.37 67.5917C153.542 67.4678 153.744 67.3903 153.955 67.3669C154.166 67.3435 154.38 67.375 154.575 67.4583C154.77 67.5415 154.94 67.6738 155.069 67.842C155.197 68.0102 155.279 68.2087 155.307 68.418C155.576 70.398 155.18 73.5115 152.473 74.5595C151.974 74.7421 151.448 74.8409 150.916 74.8517Z" fill="#003049"/>
<path d="M146.707 78.9266C146.707 78.9266 146.707 76.9769 145.217 77.1079C143.726 77.2389 143.741 80.0552 145.724 80.3474L146.692 78.9216L146.707 78.9266Z" fill="#F4A28C"/>
<path d="M152.255 77.8516L153.65 79.8215C153.729 79.9323 153.778 80.0608 153.794 80.1954C153.81 80.33 153.792 80.4665 153.742 80.5925C153.692 80.7185 153.61 80.83 153.506 80.9171C153.401 81.0041 153.277 81.0639 153.143 81.0911L151.186 81.4286L152.271 77.8566L152.255 77.8516Z" fill="#F4A28C"/>
<path d="M137.342 124.274L119.807 119.856C119.807 119.856 137.555 112.581 133.255 99.4918C128.955 86.4027 104.965 123.64 104.965 123.64L135.699 129.071L137.362 124.274H137.342Z" fill="#EA8608"/>
<g opacity="0.08">
<path d="M137.342 124.274L119.807 119.856C119.807 119.856 137.555 112.581 133.255 99.4918C128.955 86.4027 104.965 123.64 104.965 123.64L135.699 129.071L137.362 124.274H137.342Z" fill="#000001"/>
</g>
<path d="M68.4555 131.848C68.4555 131.848 66.6757 148.257 87.0044 146.998C97.4452 146.348 109.529 146.202 118.813 146.207C120.668 146.201 122.502 146.6 124.185 147.376C125.868 148.152 127.359 149.285 128.553 150.695C129.747 152.106 130.615 153.76 131.095 155.54C131.575 157.32 131.657 159.184 131.333 160.999L129.594 170.858L136.328 172.37L138.863 161.669C140.297 155.654 139.362 149.323 136.252 143.97C133.141 138.618 128.089 134.649 122.13 132.876L109.377 129.082L68.4555 131.848Z" fill="#003049"/>
<path d="M126.085 133.313C126.085 133.313 142.311 137.021 141.53 155.39L138.097 172.358L133.605 171.527C133.605 171.527 138.29 138.915 121.141 134.562V132.547L126.085 133.293V133.313Z" fill="#003049"/>
<path d="M140.02 93.9393L132.348 82.8151C132.348 82.8151 124.402 78.835 107.374 80.3464C90.3465 81.8579 65.9206 94.9822 68.456 131.841L104.966 132.723C104.966 132.723 96.8523 121.271 112.065 120.516C127.277 119.76 145.816 115.291 140 93.9393H140.02Z" fill="#EA8608"/>
<g opacity="0.08">
<path d="M109.148 95.5156C109.148 95.5156 82.7799 99.5461 81.8164 132.168L107.9 133.292L103.986 120.515L109.148 95.5156Z" fill="#000001"/>
</g>
<path d="M118.189 76.6172C118.189 76.6172 139.771 77.9422 139.903 93.4698C140.034 108.997 128.027 116.383 115.806 119.164C100.842 122.55 85.7315 114.519 81.832 98.1552L87.6026 92.6989C87.6026 92.6989 91.0304 109.365 106.659 108.226C122.287 107.088 147.417 88.4417 112.88 81.7712L118.189 76.6172Z" fill="#003049"/>
<path d="M122.084 88.3472C129.046 85.8281 135.821 92.5843 133.24 99.4916C133.209 99.5873 133.169 99.678 133.128 99.7788C129.32 109.497 109.372 121.367 109.372 121.367L136.308 125.902L135.04 132.088C135.04 132.088 106.578 137.519 96.1572 129.065C86.5937 121.297 99.9501 96.2924 122.069 88.3472H122.084Z" fill="#EA8608"/>
<g opacity="0.46">
<path d="M122.084 88.3472C129.046 85.8281 135.821 92.5843 133.24 99.4916C133.209 99.5873 133.169 99.678 133.128 99.7788C129.32 109.497 109.372 121.367 109.372 121.367L136.308 125.902L135.04 132.088C135.04 132.088 106.578 137.519 96.1572 129.065C86.5937 121.297 99.9501 96.2924 122.069 88.3472H122.084Z" fill="white"/>
</g>
<path d="M114.68 188.398H89.4933L71.6543 170.568L76.7301 162.266L111.293 174.513L114.68 188.398Z" fill="#003049"/>
<path d="M121.329 80.6335C121.329 80.6335 123.429 67.9021 112.947 63.927C103.08 60.1887 74.9824 65.1664 66.4686 90.5486C66.0015 91.9646 65.9871 93.4895 66.4275 94.914C66.8678 96.3384 67.7413 97.5925 68.9279 98.5038L71.8893 100.796C72.8444 101.54 73.938 102.088 75.1073 102.41C76.2766 102.732 77.4985 102.822 78.7026 102.673C79.9067 102.524 81.0693 102.14 82.1235 101.543C83.1777 100.946 84.1026 100.148 84.8451 99.194C90.499 91.8484 101.7 81.8678 121.355 80.6385L121.329 80.6335Z" fill="#003049"/>
<path d="M150.603 120.617L153.742 121.04C154.419 121.133 155.071 121.358 155.66 121.704C156.248 122.05 156.762 122.508 157.17 123.053C157.577 123.599 157.872 124.219 158.036 124.879C158.199 125.538 158.229 126.224 158.123 126.895L157.743 129.303C157.55 130.564 156.909 131.714 155.936 132.546C154.963 133.378 153.722 133.836 152.438 133.837H152.261C152.261 133.837 169.867 148.911 172.28 160.036L152.631 183.644C151.397 185.129 149.848 186.325 148.095 187.147C146.342 187.969 144.428 188.397 142.49 188.4H114.676C114.676 188.4 106.974 169.336 73.2989 167.825C73.2989 167.825 69.8711 158.983 79.1455 151.158L114.676 153.557L122.48 158.731L121.497 165.477C121.161 167.773 121.638 170.113 122.847 172.098C124.056 174.083 125.921 175.589 128.124 176.359C130.819 177.307 133.744 177.393 136.491 176.605C139.237 175.817 141.666 174.195 143.438 171.966C148.742 165.331 153.579 154.211 145.72 139.414C145.72 139.414 135.847 125.489 145.299 121.277C146.97 120.571 148.807 120.342 150.603 120.617Z" fill="#FFD200"/>
<path d="M154.937 121.359L152.438 133.814H158.051L159.826 123.012L154.937 121.359Z" fill="#FFD200"/>
<g opacity="0.51">
<path d="M154.937 121.359L152.438 133.814H158.051L159.826 123.012L154.937 121.359Z" fill="white"/>
</g>
<path d="M136.323 127.203C136.323 127.203 144.077 124.18 144.837 127.203C145.598 130.226 135.162 131.566 135.162 131.566L136.323 127.203Z" fill="#F4A28C"/>
<path d="M144.877 132.727C146.501 132.727 147.818 131.419 147.818 129.805C147.818 128.191 146.501 126.883 144.877 126.883C143.252 126.883 141.936 128.191 141.936 129.805C141.936 131.419 143.252 132.727 144.877 132.727Z" fill="#FFD200"/>
<path d="M174.521 198.562C183.248 198.562 190.322 191.533 190.322 182.863C190.322 174.193 183.248 167.164 174.521 167.164C165.795 167.164 158.721 174.193 158.721 182.863C158.721 191.533 165.795 198.562 174.521 198.562Z" fill="#003049"/>
<path d="M174.522 193.368C180.361 193.368 185.094 188.665 185.094 182.864C185.094 177.062 180.361 172.359 174.522 172.359C168.683 172.359 163.949 177.062 163.949 182.864C163.949 188.665 168.683 193.368 174.522 193.368Z" fill="white"/>
<path d="M162.914 182.885C162.913 180.604 163.593 178.374 164.868 176.477C166.143 174.579 167.955 173.101 170.076 172.227C172.197 171.353 174.531 171.124 176.782 171.569C179.034 172.013 181.103 173.111 182.727 174.724C184.35 176.336 185.456 178.391 185.905 180.628C186.353 182.865 186.123 185.184 185.245 187.292C184.367 189.4 182.879 191.201 180.97 192.468C179.061 193.736 176.817 194.412 174.521 194.412C171.445 194.408 168.496 193.193 166.32 191.032C164.144 188.871 162.919 185.941 162.914 182.885ZM164.983 182.885C164.983 184.759 165.542 186.592 166.59 188.15C167.638 189.708 169.128 190.923 170.871 191.64C172.614 192.358 174.532 192.545 176.382 192.18C178.232 191.814 179.932 190.911 181.266 189.586C182.599 188.261 183.508 186.572 183.876 184.734C184.244 182.896 184.055 180.99 183.333 179.258C182.611 177.527 181.389 176.047 179.82 175.005C178.252 173.964 176.408 173.408 174.521 173.408C171.992 173.411 169.568 174.41 167.78 176.187C165.991 177.964 164.986 180.372 164.983 182.885Z" fill="#EA8608"/>
<g opacity="0.11">
<path d="M98.7186 174.766C98.7186 174.766 104.946 182.324 106.213 188.4H91.726L87.0254 180.072L91.4725 172.363L98.7135 174.772L98.7186 174.766Z" fill="white"/>
</g>
<path d="M78.8611 198.562C87.5875 198.562 94.6616 191.533 94.6616 182.863C94.6616 174.193 87.5875 167.164 78.8611 167.164C70.1347 167.164 63.0605 174.193 63.0605 182.863C63.0605 191.533 70.1347 198.562 78.8611 198.562Z" fill="#003049"/>
<path d="M78.8616 193.368C84.7007 193.368 89.4342 188.665 89.4342 182.864C89.4342 177.062 84.7007 172.359 78.8616 172.359C73.0226 172.359 68.2891 177.062 68.2891 182.864C68.2891 188.665 73.0226 193.368 78.8616 193.368Z" fill="white"/>
<path d="M67.2578 182.885C67.2568 180.604 67.9368 178.373 69.2118 176.476C70.4868 174.579 72.2996 173.1 74.4207 172.226C76.5418 171.353 78.876 171.124 81.128 171.569C83.38 172.014 85.4486 173.112 87.0722 174.725C88.6958 176.339 89.8013 178.394 90.249 180.631C90.6967 182.869 90.4665 185.188 89.5873 187.296C88.7082 189.403 87.2197 191.204 85.3102 192.471C83.4006 193.738 81.1558 194.413 78.8597 194.412C75.7844 194.407 72.8365 193.191 70.6619 191.03C68.4872 188.869 67.2632 185.941 67.2578 182.885ZM69.3216 182.885C69.3216 184.759 69.881 186.592 70.9291 188.15C71.9771 189.708 73.4668 190.923 75.2097 191.64C76.9525 192.358 78.8703 192.545 80.7205 192.18C82.5708 191.814 84.2703 190.911 85.6042 189.586C86.9382 188.261 87.8466 186.572 88.2146 184.734C88.5826 182.896 88.3937 180.99 87.6718 179.258C86.9499 177.527 85.7274 176.047 84.1588 175.005C82.5903 173.964 80.7462 173.408 78.8597 173.408C76.3309 173.411 73.9064 174.41 72.1182 176.187C70.3301 177.964 69.3243 180.372 69.3216 182.885Z" fill="#EA8608"/>
<g opacity="0.08">
<path d="M144.877 132.727C146.501 132.727 147.818 131.419 147.818 129.805C147.818 128.191 146.501 126.883 144.877 126.883C143.252 126.883 141.936 128.191 141.936 129.805C141.936 131.419 143.252 132.727 144.877 132.727Z" fill="#000001"/>
</g>
<path d="M172.28 159.996C172.28 159.996 181.295 161.054 185.945 168.561C186.132 168.859 186.228 169.204 186.221 169.555C186.214 169.906 186.104 170.247 185.905 170.537C185.706 170.827 185.427 171.053 185.101 171.188C184.775 171.323 184.416 171.361 184.069 171.297C178.643 170.365 167.609 170.395 154.699 181.166L172.28 160.006V159.996Z" fill="#FFD200"/>
<g opacity="0.08">
<path d="M172.28 159.996C172.28 159.996 181.295 161.054 185.945 168.561C186.132 168.859 186.228 169.204 186.221 169.555C186.214 169.906 186.104 170.247 185.905 170.537C185.706 170.827 185.427 171.053 185.101 171.188C184.775 171.323 184.416 171.361 184.069 171.297C178.643 170.365 167.609 170.395 154.699 181.166L172.28 160.006V159.996Z" fill="#000001"/>
</g>
<path d="M121.926 158.735C121.926 158.735 129.923 152.362 126.49 146.865C123.057 141.369 106.861 147.248 94.2806 143.082C81.7 138.915 69.9409 142.2 78.5917 151.143L121.921 158.7L121.926 158.735Z" fill="#FFD200"/>
<g opacity="0.17">
<path d="M121.926 158.735C121.926 158.735 129.923 152.362 126.49 146.865C123.057 141.369 106.861 147.248 94.2806 143.082C81.7 138.915 69.9409 142.2 78.5917 151.143L121.921 158.7L121.926 158.735Z" fill="#000001"/>
</g>
<path d="M101.639 66.1688C104.502 65.7341 106.635 64.1665 106.405 62.6674C106.174 61.1684 103.667 60.3056 100.804 60.7403C97.9416 61.175 95.808 62.7426 96.0386 64.2416C96.2692 65.7407 98.7767 66.6035 101.639 66.1688Z" fill="#FFD200"/>
<path d="M106.669 178.724C106.669 178.724 115.38 170.224 106.669 163.665C98.8597 157.78 81.0004 154.127 69.7382 161.962C69.304 162.276 68.9597 162.696 68.7392 163.183C68.5187 163.669 68.4297 164.204 68.4809 164.735C68.5321 165.266 68.7217 165.775 69.0312 166.211C69.3406 166.647 69.7591 166.995 70.2453 167.222C77.7602 170.804 94.0779 177.907 106.684 178.724H106.669Z" fill="#FFD200"/>
<g opacity="0.08">
<path d="M106.669 178.724C106.669 178.724 115.38 170.224 106.669 163.665C98.8597 157.78 81.0004 154.127 69.7382 161.962C69.304 162.276 68.9597 162.696 68.7392 163.183C68.5187 163.669 68.4297 164.204 68.4809 164.735C68.5321 165.266 68.7217 165.775 69.0312 166.211C69.3406 166.647 69.7591 166.995 70.2453 167.222C77.7602 170.804 94.0779 177.907 106.684 178.724H106.669Z" fill="#000001"/>
</g>
<path d="M68.5115 164.958C66.6594 167.897 64.2788 170.473 61.4884 172.556C61.3692 172.616 61.2631 172.699 61.1762 172.8C61.0893 172.901 61.0232 173.018 60.9818 173.144C60.9403 173.27 60.9243 173.404 60.9347 173.536C60.9451 173.668 60.9816 173.798 61.0422 173.916C61.1028 174.034 61.1863 174.14 61.2879 174.226C61.3895 174.313 61.5072 174.378 61.6343 174.419C61.7615 174.461 61.8955 174.476 62.0288 174.466C62.1621 174.456 62.2921 174.42 62.4113 174.359C66.3588 173.27 69.9185 171.1 72.6847 168.097L68.5115 164.953V164.958Z" fill="#FFD200"/>
<path d="M154.233 65.9344C154.919 66.39 155.499 66.9847 155.936 67.6795C156.373 68.3743 156.657 69.1532 156.769 69.965C157.027 71.7988 156.896 74.0811 154.969 74.9326C151.536 76.444 147.479 75.8344 147.479 75.8344C147.479 75.8344 147.819 82.4142 143.052 82.127C138.286 81.8399 137.434 74.066 138.965 70.106C140.395 66.403 145.927 60.4782 154.228 65.9546L154.233 65.9344Z" fill="#EA8608"/>
<path d="M156.515 73.3086C156.515 73.3086 163.355 77.1829 160.308 78.3467C157.26 79.5105 147.479 75.8277 147.479 75.8277C147.479 75.8277 155.196 76.6287 156.515 73.3086Z" fill="#003049"/>
<path d="M133.605 171.527C133.605 171.527 133.788 174.046 135.826 174.817C137.865 175.588 137.854 177.759 135.826 177.759C133.798 177.759 129.635 174.011 129.635 174.011L130.618 171.059L133.62 171.527H133.605Z" fill="#EA8608"/>
<g opacity="0.46">
<path d="M143.908 78.0504C145.454 78.0504 146.708 76.8053 146.708 75.2693C146.708 73.7334 145.454 72.4883 143.908 72.4883C142.363 72.4883 141.109 73.7334 141.109 75.2693C141.109 76.8053 142.363 78.0504 143.908 78.0504Z" fill="white"/>
</g>
<g opacity="0.17">
<path d="M159.051 151.207C159.014 150.791 159.114 150.373 159.337 150.018C159.56 149.664 159.894 149.391 160.287 149.241C160.68 149.091 161.111 149.073 161.516 149.188C161.921 149.304 162.276 149.548 162.529 149.882C165.374 153.636 167.925 158.155 166.424 160.871C163.498 166.166 159.958 167.198 158.721 163.606C157.844 161.087 159.578 156.85 159.051 151.202V151.207Z" fill="white"/>
</g>
</g>
<defs>
<clipPath id="clip0_1905_21472">
<rect width="235" height="214" fill="white"/>
</clipPath>
</defs>
</svg>
