<svg width="207" height="348" viewBox="0 0 207 348" fill="none" xmlns="http://www.w3.org/2000/svg">
<g clip-path="url(#clip0_1250_18237)">
<g opacity="0.03">
<path d="M105.308 288.714C157.72 288.714 200.209 253.531 200.209 210.131C200.209 166.73 157.72 131.547 105.308 131.547C52.895 131.547 10.4062 166.73 10.4062 210.131C10.4062 253.531 52.895 288.714 105.308 288.714Z" fill="#000001"/>
</g>
<path d="M206.943 178.98V178.937C206.901 178.633 206.835 178.332 206.746 178.035L204.418 167.471L197.101 170.101L127.435 125.652C125.766 124.587 123.655 124.115 121.566 124.34C119.477 124.565 117.582 125.468 116.296 126.851L15.4484 235.412L0 240.961L2.46843 251.938C2.52467 252.892 2.83235 253.825 3.36986 254.671C3.90737 255.517 4.6617 256.254 5.57989 256.833L82.0285 305.618C83.6977 306.683 85.8088 307.155 87.8976 306.93C89.9864 306.705 91.882 305.802 93.1675 304.419L205.357 183.665C206.602 182.329 207.174 180.646 206.954 178.967L206.943 178.98Z" fill="#A5A5A5"/>
<path d="M113.826 115.826L1.6513 236.486C-1.02541 239.365 -0.376615 243.496 3.10042 245.712L79.5656 294.456C83.0426 296.672 88.0312 296.135 90.708 293.256L202.882 172.596C205.559 169.717 204.91 165.586 201.433 163.37L124.968 114.626C121.491 112.41 116.503 112.947 113.826 115.826Z" fill="#E6E6E6"/>
<path d="M116.515 128.354L23.1074 228.828L94.7645 274.507L188.173 174.033L116.515 128.354Z" fill="white"/>
<path d="M51.4404 265.971C55.2055 265.971 58.2578 263.467 58.2578 260.378C58.2578 257.289 55.2055 254.785 51.4404 254.785C47.6753 254.785 44.623 257.289 44.623 260.378C44.623 263.467 47.6753 265.971 51.4404 265.971Z" fill="#A5A5A5"/>
<path d="M149.081 137.126L171.309 150.568C171.838 150.888 172.184 151.36 172.271 151.881C172.358 152.401 172.179 152.927 171.774 153.344C171.365 153.76 170.764 154.031 170.101 154.098C169.439 154.166 168.769 154.025 168.239 153.705L146.006 140.259C145.744 140.101 145.524 139.904 145.359 139.679C145.194 139.454 145.087 139.205 145.044 138.948C145.002 138.69 145.024 138.429 145.11 138.178C145.196 137.928 145.345 137.693 145.546 137.487C145.748 137.281 146 137.108 146.287 136.979C146.574 136.849 146.89 136.765 147.218 136.731C147.547 136.698 147.88 136.715 148.2 136.783C148.519 136.851 148.819 136.967 149.081 137.126Z" fill="#A5A5A5"/>
<path d="M135.728 172.755C138.809 172.755 141.306 170.53 141.306 167.784C141.306 165.038 138.809 162.812 135.728 162.812C132.648 162.812 130.15 165.038 130.15 167.784C130.15 170.53 132.648 172.755 135.728 172.755Z" fill="white"/>
<path d="M126.737 169.758L134.773 175.149C135.193 175.431 135.546 175.782 135.81 176.183C136.075 176.583 136.246 177.025 136.314 177.483C136.383 177.942 136.347 178.407 136.209 178.853C136.071 179.299 135.833 179.717 135.51 180.083C135.186 180.45 134.783 180.757 134.323 180.987C133.864 181.218 133.356 181.367 132.831 181.427C132.305 181.486 131.77 181.455 131.258 181.335C130.746 181.214 130.266 181.007 129.846 180.726L121.81 175.334C121.389 175.052 121.037 174.701 120.772 174.301C120.508 173.9 120.337 173.458 120.268 173C120.2 172.542 120.236 172.076 120.374 171.63C120.512 171.184 120.749 170.766 121.073 170.4C121.396 170.034 121.799 169.727 122.259 169.496C122.719 169.266 123.226 169.116 123.752 169.057C124.278 168.997 124.812 169.028 125.324 169.149C125.836 169.269 126.316 169.476 126.737 169.758Z" fill="white"/>
<path d="M34.6908 268.729L47.7472 277.303C48.0681 277.514 48.2776 277.826 48.3296 278.169C48.3817 278.512 48.2719 278.859 48.0246 279.133C47.9025 279.269 47.75 279.383 47.576 279.469C47.402 279.555 47.2099 279.61 47.0106 279.632C46.8114 279.654 46.6091 279.642 46.4152 279.597C46.2214 279.552 46.0399 279.475 45.8812 279.37L32.8249 270.796C32.5043 270.584 32.2947 270.273 32.2417 269.93C32.1887 269.587 32.2967 269.241 32.542 268.966C32.7905 268.691 33.1562 268.512 33.5591 268.468C33.9619 268.423 34.3689 268.517 34.6908 268.729Z" fill="white"/>
<path d="M95.0964 240.837L57.2331 216.463C56.4322 215.918 55.5086 215.512 54.5168 215.27C53.5251 215.028 52.4854 214.955 51.4593 215.055C50.4331 215.155 49.4412 215.425 48.5423 215.851C47.6434 216.276 46.8558 216.848 46.2259 217.533C45.596 218.217 45.1366 219 44.875 219.836C44.6134 220.671 44.5548 221.542 44.7026 222.396C44.8505 223.251 45.2019 224.072 45.736 224.811C46.2701 225.55 46.9761 226.193 47.8122 226.7L85.2806 250.829C86.0655 251.368 86.9697 251.772 87.9415 252.019C88.9133 252.265 89.9338 252.349 90.9446 252.266C91.9553 252.183 92.9367 251.935 93.8325 251.535C94.7283 251.135 95.5211 250.591 96.1657 249.935C96.8102 249.279 97.2938 248.523 97.5888 247.711C97.8839 246.899 97.9847 246.046 97.8854 245.201C97.7861 244.356 97.4887 243.536 97.0102 242.787C96.5316 242.038 95.8813 241.376 95.0964 240.837Z" fill="#FFD200"/>
<path d="M160.979 98.6905C161.291 109.374 158.115 119.208 152.895 128.327C146.594 139.338 139.876 150.114 133.267 160.949C124.818 174.79 116.29 188.59 107.793 202.403C106.816 203.999 105.828 205.58 104.829 207.144C102.426 210.959 98.7043 210.963 96.3128 207.088C87.2623 192.425 78.2305 177.752 69.2174 163.068C62.9402 152.855 56.611 142.671 50.4501 132.378C46.4002 125.617 43.0513 118.501 41.3608 110.751C38.6489 98.3034 40.0549 86.167 45.0021 74.5095C52.9337 55.8319 66.4373 42.9812 86.1139 37.1983C101.669 32.6367 116.426 35.3385 130.034 43.7793C147.684 54.7065 157.542 70.8219 160.642 91.1716C160.811 92.2154 160.918 93.2681 160.963 94.3244C161.019 95.7691 160.979 97.2298 160.979 98.6905ZM100.635 68.124C85.3168 68.0721 72.7625 80.432 72.6784 95.6614C72.5903 111.022 85.0123 123.65 100.287 123.718C115.745 123.785 128.403 111.446 128.472 96.2401C128.519 92.5669 127.835 88.9208 126.457 85.5132C125.08 82.1056 123.038 79.0042 120.448 76.3889C117.859 73.7736 114.774 71.6964 111.373 70.2776C107.972 68.8589 104.322 68.1269 100.635 68.124Z" fill="#EA8608"/>
</g>
<defs>
<clipPath id="clip0_1250_18237">
<rect width="207" height="348" fill="white"/>
</clipPath>
</defs>
</svg>
