<svg width="699" height="227" viewBox="0 0 699 227" fill="none" xmlns="http://www.w3.org/2000/svg">
<path d="M1.00854 181.032C0.851881 143.68 0.698293 106.332 0.547776 68.9862C0.506307 57.7714 0.0870102 46.5521 0.515522 35.3374L34.9393 35.125C35.0269 48.1681 35.119 61.2111 35.2112 74.8313C37.1141 73.3769 38.326 72.4674 38.7453 70.8745C39.9571 68.5383 42.8921 68.0489 44.1961 65.8235C46.8115 64.7989 49.2981 63.4709 51.6052 61.8667C60.9542 58.1223 70.5565 57.3559 80.4215 59.3181C85.7203 60.3708 90.0699 63.4734 94.7882 65.782C94.9218 66.3221 95.2213 66.6223 95.8111 66.493L95.9447 66.5853L104.238 75.8193C104.188 76.3918 104.46 76.6643 105.022 76.6643L107.579 79.6976C107.849 80.6802 108.327 81.593 108.98 82.3738C109.634 83.1546 110.448 83.7851 111.367 84.2223L112.187 85.2288C112.237 86.7801 113.495 87.602 114.343 88.6177C126.956 103.758 139.596 118.87 152.264 133.952C153.72 135.684 154.798 137.798 156.872 138.957L157.061 139.174C158.816 142.207 160.747 145.056 163.898 146.852L165 147.748C165.023 148.269 165.276 148.505 165.806 148.403C168.985 151.141 172.8 151.561 176.772 151.418C177.978 151.629 179.215 151.577 180.398 151.266C180.742 151.419 181.128 151.453 181.493 151.361C181.858 151.268 182.182 151.056 182.412 150.758C190.028 149.456 194.415 144.502 196.931 137.618C198.354 133.712 198.806 129.598 198.774 125.415C198.666 105.02 198.585 84.6255 198.53 64.2306C198.53 64.0783 198.53 63.9213 198.53 63.7689C198.53 58.4086 197.972 59.0227 203.027 58.9672C211.142 58.8811 219.253 58.8087 227.36 58.7502C228.281 58.8111 229.205 58.8018 230.124 58.7225C232.815 58.2932 233.17 59.9738 233.211 61.996C232.728 64.1244 233.124 66.2437 233.267 68.3675C232.672 70.5282 233.119 72.6844 233.308 74.8313C232.764 76.4796 233.013 78.1832 233.023 79.8638C233.161 103.969 232.949 128.075 233.663 152.175C233.916 160.772 233.704 169.378 233.741 177.98C233.741 179.873 233.492 181.309 231.083 181.295C220.361 181.24 209.629 181.572 198.917 180.912L198.778 179.254V167.135C197.58 166.996 197.249 167.559 196.889 168.016C190.839 175.685 182.91 180.136 173.445 182.246C168.096 183.442 162.756 182.629 157.42 182.906H157.397C156.37 181.766 155.024 181.983 153.711 182.052L143.602 178.322L143.565 178.299C143.5 177.703 143.155 177.5 142.593 177.611C138.874 175.131 135.442 172.319 132.654 168.801C120.158 153.067 106.8 138.047 94.1247 122.465C92.3093 120.23 90.1851 118.31 88.4066 116.001C84.2274 110.581 80.2648 104.874 74.708 100.663C74.9845 98.355 73.1644 97.4316 71.8328 96.1434C69.8193 94.5875 68.0223 92.5283 65.7553 91.568C55.6185 87.2649 43.1778 90.6446 38.2568 100.987C36.2163 105.293 35.1901 110.011 35.2573 114.778C35.4001 135.928 34.6951 157.088 35.7641 178.229C35.9438 181.771 35.6351 182.144 31.9628 182.14C22.7843 182.14 13.6013 182.02 4.41821 181.955C3.22482 181.964 1.98536 181.969 1.00854 181.032Z" fill="#020101"/>
<path d="M382.231 202.224C382.098 201.942 381.964 201.665 381.835 201.383C381.909 200.829 381.835 200.432 381.112 200.608C379.135 194.966 376.804 189.416 376.504 182.689H404.09C405.302 182.763 406.537 183.003 407.73 182.878C409.5 182.689 410.384 183.432 411.154 184.974C415.402 193.488 422.797 196.517 431.801 196.586C438.136 197.219 443.914 195.732 448.849 191.688C451.3 189.679 453.682 187.445 453.742 183.839C454.99 182.536 455.707 180.814 455.756 179.009C455.816 177.093 455.995 175.177 456.124 173.256C455.47 171.479 456.516 169.678 456.06 167.896C456.931 164.161 456.323 160.453 456.369 156.728C454.691 156.728 454.484 157.817 453.917 158.45C447.25 165.837 439.32 170.768 429.243 172.204C425.428 172.749 421.613 172.292 417.849 172.989C411.776 172.324 406.085 170.246 400.34 168.316L400.229 168.27C399.989 167.402 399.4 167.144 398.566 167.319C397.183 166.368 395.773 165.472 394.451 164.452C387.318 158.981 381.476 152.36 377.827 143.998C375.834 139.226 374.223 134.303 373.007 129.275C372.394 122.252 371.91 115.23 371.924 108.175C372.538 103.866 373.153 99.5566 373.767 95.2474C375.698 90.0071 377.398 84.7068 380.269 79.8128C392.852 58.339 416.669 51.8475 437.044 58.4268C440.403 59.5118 443.297 61.5525 446.476 63.0022C449.434 65.8832 452.724 68.4041 455.664 72.1716C455.839 69.2583 456.3 67.0467 455.701 64.7844C455.728 62.6698 455.754 60.5537 455.779 58.436L456.567 57.4018H490.475L490.935 60.8969C490.475 62.1619 490.765 63.4455 490.843 64.7244C490.346 67.1899 490.691 69.6553 490.802 72.1116C490.751 72.721 490.65 73.3351 490.65 73.9584C490.733 106.816 490.829 139.677 490.94 172.541C491 178.066 490.304 183.573 488.871 188.908C485.775 200.178 480.117 209.749 470.44 216.67C457.078 226.232 441.965 227.843 426.207 226.583C422.562 226.292 418.941 225.687 415.31 225.226H415.278C414.817 224.501 414.135 224.395 413.356 224.579L412.435 224.422C411.863 223.545 411.255 223.665 410.633 224.367L398.851 218.72L398.801 218.679C398.713 218.065 398.34 217.889 397.768 217.958C391.875 213.803 386.664 209.02 382.973 202.722C382.794 202.533 382.466 202.408 382.231 202.224ZM451.24 97.9253C451.388 95.1043 449.075 94.0332 447.402 92.5049C443.619 88.3173 438.311 87.0846 433.247 86.4289C426.663 85.5748 420.613 87.9987 415.651 92.5927C408.002 99.6844 406.302 108.817 407.357 118.614C407.974 124.404 409.532 130.027 414.084 134.233C416.056 136.316 417.614 138.934 420.802 139.437C423.631 141.168 426.594 142.429 430.017 142.027C431.199 142.307 432.427 142.324 433.616 142.078C434.961 142.378 436.265 142.429 437.413 141.482C443.37 140.273 447.955 136.948 451.342 132.013C455.922 125.336 456.871 117.866 455.728 110.017C455.986 105.345 454.189 101.425 451.24 97.9392V97.9253Z" fill="#020101"/>
<path d="M328.668 181.24C327.829 181.037 326.719 181.185 326.631 179.906C326.544 178.627 326.558 177.455 326.549 176.213C326.395 156.147 326.241 136.083 326.088 116.021C326.088 113.712 326.143 111.404 325.627 109.164C325.761 106.191 324.839 103.49 323.457 100.923C323.733 100.434 323.521 100.207 323.028 100.133L322.3 98.9238C321.079 95.2301 318.259 93.1156 314.891 91.5735C310.039 87.8799 304.501 88.2169 299.133 89.4958C290.162 91.6289 284.388 99.7733 283.49 109.935C282.942 116.219 283.26 122.452 283.366 128.727C283.633 144.064 283.485 159.411 283.518 174.754C283.518 176.277 283.306 177.824 283.826 179.32C283.545 181.448 281.988 181.448 280.403 181.448C269.851 181.596 259.307 181.384 248.771 180.811C248.676 145.476 248.575 110.142 248.467 74.8091C248.467 73.1377 248.776 71.4341 248.195 69.7858C248.349 66.1199 248.502 62.4524 248.656 58.7835C256.95 58.6588 265.207 59.0605 273.468 58.4233L282.398 58.548C282.65 61.8045 282.905 65.0595 283.163 68.313C282.605 70.0167 282.753 71.6649 283.343 73.9873L287.95 68.4053C290.558 65.6813 294.401 64.4393 296.613 61.2582C297.521 61.3384 298.436 61.2056 299.285 60.8703C313.108 55.1499 326.655 55.9255 339.855 62.9434C339.925 63.4051 340.169 63.659 340.671 63.5436L341.505 63.9545L349.066 71.2263C349.054 71.3413 349.066 71.4575 349.101 71.5677C349.136 71.6778 349.193 71.7795 349.269 71.8663C349.346 71.9531 349.439 72.0231 349.544 72.0719C349.648 72.1207 349.762 72.1472 349.877 72.1497L350.702 73.1978C354.678 79.7585 357.959 86.6148 359.498 94.2052C359.31 94.538 359.258 94.9304 359.351 95.3009C359.445 95.6715 359.677 95.9917 360 96.1951C360.078 96.7722 360.161 97.3494 360.24 97.9265C359.503 101.025 360.742 104.007 360.747 107.068C360.783 130.399 360.837 153.731 360.908 177.062C360.908 180.954 360.829 180.991 356.692 181.042C351.029 181.111 345.366 181.12 339.703 181.157C337.556 181.056 335.404 180.696 333.253 181.157C331.751 181.083 330.193 180.816 328.668 181.24Z" fill="#020101"/>
<path d="M603.022 226.371L599.373 226.029L623.282 166.585C628.894 153.919 634.503 141.25 640.109 128.578C640.402 127.719 640.615 126.835 640.745 125.937C642.208 123.243 643.174 120.308 643.597 117.271C645.118 113.711 646.671 110.165 647.187 106.277C649.38 102.616 649.435 98.2854 651.002 94.3702C655.692 82.6384 659.199 70.4726 663.175 58.4776C664.498 54.4885 664.558 54.4792 668.506 54.4515C677.671 54.3869 686.836 54.3961 696 54.2669C698.359 54.2345 699.557 54.8255 698.765 57.3926C697.383 58.9947 697.18 61.0262 696.687 62.9561C695.669 64.2423 695.062 65.8064 694.945 67.4438C694.679 67.805 694.446 68.1898 694.249 68.5934C688.76 82.8908 683.285 97.1928 677.823 111.499C666.654 140.845 655.497 170.195 644.353 199.55C641.358 207.427 638.248 215.248 635.336 223.162C634.46 225.544 633.175 226.444 630.604 226.311C626.945 226.117 623.264 226.371 619.596 226.435C617.164 226.159 614.71 226.144 612.274 226.389C609.183 226.232 606.105 225.978 603.022 226.371Z" fill="#F19202"/>
<path d="M536.74 57.4267C536.901 58.6271 537.058 59.8276 537.201 61.0326C536.68 62.2284 536.998 63.4519 537.104 64.6662C536.547 68.152 537.178 71.5917 537.155 76.1672L544.094 67.6257C545.398 66.4622 546.997 65.6081 547.877 64.0013C553.037 60.2477 558.53 57.2097 564.898 56.0786C566.538 55.7877 568.197 55.6169 569.846 55.3906C571.404 55.5199 572.316 56.0878 572.293 57.93C572.261 60.5294 572.519 63.1334 572.652 65.7327C572.072 68.189 572.625 70.636 572.726 73.083C572.671 77.0721 572.68 81.0612 572.551 85.0457C572.445 88.236 573.855 92.1974 571.841 94.409C569.828 96.6205 565.755 95.2308 562.626 95.2955C558.487 95.3094 554.38 96.0115 550.471 97.3731C544.269 99.6308 540.417 104.137 538.712 110.522C537.966 113.34 537.601 116.246 537.625 119.161C537.652 128.99 537.625 138.825 537.625 148.659C537.625 157.722 537.625 166.785 537.662 175.853C537.662 177.922 537.44 179.399 534.768 179.38C524.198 179.325 513.624 179.468 503.058 178.863C502.945 144.14 502.826 109.417 502.703 74.6944C502.703 73.1754 503.003 71.624 502.432 70.1327C502.409 67.7227 502.855 65.2941 502.266 62.8933C502.398 61.0649 502.53 59.2335 502.662 57.399L536.74 57.4267Z" fill="#020101"/>
<path d="M640.744 125.939C640.614 126.837 640.401 127.721 640.109 128.58C634.518 141.258 628.909 153.927 623.281 166.587C618.646 154.81 614.012 143.029 609.38 131.244C604.981 120.015 600.59 108.78 596.207 97.5394C596.041 96.3298 595.981 95.0832 594.824 94.3075C594.645 93.1117 594.594 91.842 593.097 91.445C593.433 89.8798 593.051 88.4577 592.438 86.9988C591.627 85.0504 590.221 83.1943 589.765 81.3429C587.876 73.651 583.6 66.8732 581.743 59.1813C581.508 58.2117 581.283 57.0574 580.292 56.4111C580.191 55.3492 580.435 54.7074 581.734 54.7397C584.499 54.7997 587.263 54.7397 590.028 54.7397C597.228 54.7151 604.43 54.6951 611.633 54.6797C615.923 54.6797 615.923 54.6797 617.517 58.4795C617.701 61.0373 619.36 63.1381 619.747 65.6312C619.503 66.4623 620.061 67.0902 620.305 67.792C625.29 82.2987 630.244 96.8145 635.307 111.289C636.98 116.248 638.275 121.317 640.744 125.939Z" fill="#020101"/>
<path d="M154.664 59.2134C154.927 59.8829 155.189 60.5477 155.447 61.2172C154.659 64.2737 155.595 67.3163 155.539 70.3727C153.964 72.5474 155.503 74.7912 155.47 76.9982C155.295 88.199 155.369 99.4091 155.378 110.615C155.378 112.291 155.037 113.99 155.655 115.633C155.558 116.751 155.848 117.942 154.862 119.567L125.327 84.9994C125.212 84.4131 124.972 83.9976 124.263 84.233H124.23L123.406 83.2773V83.2311C123.76 82.2246 123.143 81.846 122.351 81.5829L122.304 81.5228C122.341 80.9088 122.069 80.5994 121.438 80.6271C120.111 79.3713 120.802 77.7646 120.775 76.3287C120.683 71.6055 120.83 66.8777 120.687 62.1591C120.618 59.9522 121.364 59.2688 123.549 59.2827C130.538 59.3335 137.533 59.1903 144.527 59.1211C147.905 59.5597 151.287 59.3242 154.664 59.2134Z" fill="#020101"/>
<path d="M100.41 148.693L103.857 152.618C105.087 155.287 107.082 157.313 109.386 159.054L109.423 159.091C112.266 162.503 113.782 166.358 113.344 170.869C113.293 173.302 113.233 175.731 113.183 178.159C113.104 181.894 113.104 181.954 109.358 182.001C102.977 182.074 96.5996 182.07 90.218 182.098L79.2517 181.95C78.7127 181.119 78.8601 180.177 78.8555 179.267C78.7295 161.907 78.6097 144.547 78.4961 127.187V124.879C81.8735 127.187 83.6843 130.396 86.4028 132.64C89.5406 137.308 93.6599 141.112 97.3967 145.254C97.6109 146.016 97.9927 146.721 98.5142 147.316C99.0356 147.911 99.6834 148.382 100.41 148.693Z" fill="#020101"/>
<path d="M34.9395 35.1253L0.515664 35.3376C-0.350576 32.0134 0.147051 28.6245 0.100974 25.2679C-0.000394023 17.8946 0.0641132 10.5212 0.0364672 3.14784C0.0272519 1.52265 -0.00039394 0.0867597 2.30343 0.119079C13.1775 0.266823 24.0562 -0.342622 34.9303 0.303759L35.1975 9.23306C34.9003 11.7297 34.9003 14.2529 35.1975 16.7496C35.1115 22.8686 35.0255 28.9939 34.9395 35.1253Z" fill="#F19202"/>
</svg>
