<svg width="435" height="417" viewBox="0 0 435 417" fill="none" xmlns="http://www.w3.org/2000/svg">
<path d="M366.033 321.751C365.036 325.792 364.127 329.858 363.024 333.874C360.484 343.089 356.597 351.904 351.48 360.052C342.898 373.88 331.105 385.579 317.04 394.216C306.179 400.933 294.336 405.261 281.913 408.299C268.302 411.665 254.436 413.974 240.446 415.203C227.381 416.303 214.249 416.451 201.161 415.643C182.463 414.492 163.95 411.367 145.952 406.322C135.29 403.364 125.172 398.805 115.966 392.813C105.817 386.235 96.9011 378.027 89.6014 368.543C81.0345 357.437 75.1259 345.105 71.4962 331.718C70.5881 328.376 69.4845 325.082 68.4845 321.765C67.516 318.29 66.5762 314.803 65.5733 311.344C62.2319 299.787 58.8791 288.233 55.5148 276.684C55.193 275.57 54.713 274.506 54.6699 273.342C54.8194 273.436 55.0148 273.501 55.1096 273.634C57.5696 277.115 60.9751 279.288 64.9956 280.836C73.3125 284.036 81.5547 287.419 90.1331 289.934C90.7078 290.135 91.2826 290.377 91.8574 290.53C95.0875 291.365 98.2172 292.56 101.531 293.098C105.189 294.259 108.957 294.994 112.713 295.749C117.831 296.779 122.947 297.835 128.157 298.367C132.689 299.029 137.212 299.759 141.753 300.347C149.757 301.401 157.791 302.189 165.853 302.711C173.782 303.207 181.714 303.502 189.657 303.385C196.113 303.385 202.571 303.439 209.029 303.547C225.726 303.864 242.423 303.741 259.109 302.898C269.857 302.341 280.579 301.561 291.273 300.391C305.194 298.871 318.997 296.712 332.584 293.373C343.105 290.789 353.419 287.603 363.13 282.813C367.182 280.816 371.102 278.611 374.47 275.572C375.258 274.868 375.669 273.818 376.698 273.345C376.157 277.288 375.08 281.126 374.217 285.005C371.536 297.077 368.789 309.136 366.07 321.208C366.044 321.388 366.031 321.57 366.033 321.751ZM218.139 392.765C220.349 392.629 222.163 392.66 223.97 392.501C229.908 392.02 235.728 390.626 241.213 388.371C248.892 385.179 255.416 380.665 259.856 373.611C263.066 368.523 264.322 363.029 263.411 357.155C262.5 351.282 259.609 346.344 255.364 342.15C251.404 338.238 246.691 335.389 241.524 333.194C232.072 329.184 222.169 328 212.01 329.05C206.128 329.63 200.387 331.151 195.019 333.551C187.706 336.842 181.455 341.304 177.285 348.104C173.609 354.1 172.589 360.589 174.604 367.301C176.684 374.221 181.179 379.537 187.249 383.62C196.658 389.967 207.199 392.654 218.139 392.774V392.765Z" fill="#003049"/>
<path d="M376.702 273.316C375.673 273.784 375.265 274.834 374.475 275.544C371.106 278.571 367.186 280.776 363.134 282.784C353.424 287.574 343.109 290.76 332.588 293.345C319.001 296.686 305.198 298.842 291.277 300.362C280.583 301.529 269.861 302.312 259.113 302.869C242.427 303.704 225.73 303.835 209.034 303.518C202.573 303.399 196.116 303.345 189.661 303.356C189.503 302.582 188.862 302.844 188.391 302.83C184.911 302.721 181.425 302.752 177.959 302.493C176.099 302.354 174.251 302.292 172.395 302.262C171.964 302.262 171.533 302.226 171.263 301.869C173.717 301.17 176.148 300.457 178.62 299.783C181.959 298.867 185.23 297.736 188.477 296.578C192.101 295.286 195.518 293.559 198.998 291.955C201.745 290.689 204.385 289.218 206.895 287.555C211.574 284.453 216 281.03 219.638 276.73C223.127 272.606 225.843 268.097 227.285 262.937C228.481 258.673 229.147 254.278 230.791 250.126C233.378 243.571 237.174 237.962 243.655 234.408L245.686 233.757C250.601 232.18 255.17 232.866 259.314 235.857C260.176 236.486 260.944 237.263 261.754 237.973C262.762 239.202 263.639 240.526 264.372 241.925C266.553 246.364 267.332 251.232 268.921 255.849C270.131 259.364 271.335 262.856 273.586 265.908C274.87 267.651 277.382 268.796 279.566 267.365C280.295 266.934 280.986 266.447 281.632 265.908C284.569 263.21 286.805 259.985 288.849 256.66C292.297 251.076 295.619 245.42 299.258 239.95C301.557 236.5 303.925 233.105 306.264 229.685C309.04 226.165 311.724 222.57 314.802 219.287C315.153 218.911 315.521 218.546 315.883 218.173C316.731 217.362 317.607 216.582 318.426 215.741C320.618 213.438 323.251 211.57 326.18 210.241C328.907 209.033 331.672 208.807 334.356 210.397C335.663 211.171 336.485 212.466 337.652 213.399L337.603 213.441L337.807 213.745C338.037 214.251 338.244 214.769 338.5 215.265C341.581 221.239 342.236 227.427 340.284 233.857C338.675 239.196 335.594 243.752 332.324 248.221C330.2 251.123 327.709 253.791 326.246 257.116C325.461 258.901 326.404 261.157 328.217 261.976C331.697 263.541 337.612 262.608 340.443 260.071C343.549 257.286 345.592 253.772 347.607 250.243C349.992 246.066 352.073 241.727 355.125 237.951C358.022 234.367 361.525 231.849 366.62 232.398C368.204 232.568 369.606 233.353 371.184 233.512C371.437 233.882 371.865 234.002 372.247 234.169C375.87 235.743 378.903 238.362 380.932 241.669C381.794 243.061 382.142 244.646 382.944 246.046C384.151 250.914 384.062 255.998 382.685 260.823C381.484 265.145 379.455 269.088 376.909 272.798C376.67 272.918 376.532 273.076 376.664 273.355L376.702 273.316Z" fill="#CF7D0F"/>
<path d="M337.657 213.394C336.49 212.461 335.668 211.166 334.36 210.391C331.676 208.801 328.9 209.027 326.184 210.236C323.254 211.563 320.618 213.432 318.425 215.736C317.609 216.571 316.729 217.356 315.882 218.167C314.548 211.728 313.154 205.304 311.904 198.851C311.232 195.392 310.706 191.889 311.617 188.374C312.732 184.102 315.951 181.381 319.402 178.906C322.69 176.541 326.61 175.595 330.455 174.514C332.15 174.038 333.855 173.589 335.447 172.843C338.947 171.172 340.183 168.721 339.47 165.001C338.961 162.339 337.875 159.882 336.8 157.412C332.906 148.473 333.326 139.848 339.252 131.85C343.324 126.355 348.652 122.543 355.845 121.738C358.808 121.406 360.587 119.532 362.03 117.26C363.711 114.609 364.809 111.69 366.053 108.833C366.999 106.558 368.117 104.353 369.398 102.238C373.028 96.4847 377.807 94.4406 384.604 95.833C394.975 97.9551 403.312 106.519 404.672 116.736C405.465 122.71 403.594 128.11 399.99 132.936C396.185 138.032 392.182 142.998 388.952 148.478C387.227 151.419 385.63 154.416 384.839 157.749C383.905 161.692 385.339 164.449 389.179 165.14C394.547 166.104 397.458 169.523 399.257 174.052C403.548 184.826 400.142 195.576 390.472 202.304C386.086 205.368 385.339 208.239 387.753 212.951C388.239 213.903 388.805 214.819 389.36 215.736C390.797 218.089 392.403 220.333 393.671 222.784C397.49 230.172 396.366 235.79 389.935 241.253C387.774 243.08 385.423 244.685 382.92 246.041C382.109 244.648 381.77 243.05 380.908 241.663C378.878 238.356 375.846 235.737 372.223 234.163C371.841 233.996 371.413 233.885 371.16 233.506L380.049 227.761C379.569 227.667 379.073 227.701 378.612 227.858C373.835 228.972 369.059 230.086 364.274 231.172C362.458 231.584 360.598 231.985 358.779 231.27C355.147 229.841 353.497 226.666 354.446 222.94C355.426 219.077 356.5 215.243 357.477 211.38C358.874 205.866 361.311 200.895 365.685 197.016C370.654 192.607 375.744 188.31 380.741 183.949C381.48 183.309 382.132 182.576 382.825 181.886C382.565 181.81 382.287 181.828 382.04 181.936L368.047 187.62C366.766 188.14 365.504 188.177 364.424 187.23C363.446 186.394 363.237 185.28 363.536 184.049C365.942 174.2 368.343 164.348 370.74 154.494C372.752 146.265 374.774 138.037 376.807 129.808C377.048 128.823 377.244 127.828 377.459 126.837C377.039 127.102 376.694 127.464 376.453 127.89C374.384 131.39 372.602 135.03 370.898 138.706C367.496 146.055 364.426 153.536 361.446 161.052C360.992 162.199 360.386 163.196 359.015 163.316C357.644 163.436 356.877 162.522 356.242 161.472C354.696 158.916 353.155 156.354 351.54 153.836C350.503 152.224 349.652 150.494 348.336 148.915C348.14 149.528 348.422 149.896 348.551 150.274C350.508 156.078 352.494 161.873 354.448 167.677C355.747 171.543 356.147 175.441 354.894 179.41C354.072 182.016 353.313 184.643 352.514 187.258C350.807 192.844 349.126 198.436 347.367 204.006C346.617 206.387 344.608 207.551 342.315 207.036C340.752 206.685 339.907 205.429 338.999 204.304C336.473 201.176 334.188 197.871 331.527 194.835C331.475 194.788 331.527 194.543 331.34 194.749L331.532 194.832C332.05 197.194 333.34 199.26 334.245 201.474C335.849 205.32 337.369 209.191 337.657 213.394ZM348.069 148.242L348.051 148.439C348.069 148.409 348.1 148.384 348.103 148.353C348.106 148.322 348.086 148.289 348.069 148.242Z" fill="#E98609"/>
<path d="M90.1298 289.892C81.5486 287.385 73.3064 283.991 64.9895 280.791C60.9662 279.242 57.5635 277.07 55.1035 273.589C55.0087 273.456 54.8162 273.391 54.6638 273.297L54.6897 273.325L54.4454 273.124C53.0487 270.136 51.2612 267.329 50.1174 264.213C48.0441 258.488 46.68 252.545 46.0538 246.509C45.4434 241.397 45.3539 236.238 45.7866 231.109C46.4734 223.815 47.8184 216.697 51.836 210.314C53.1765 208.113 54.966 206.2 57.0951 204.691C57.3652 204.505 57.6929 204.385 57.7906 204.031C58.1719 204.017 58.5422 203.904 58.8625 203.703C61.5332 202.268 64.3503 201.106 67.2685 200.236C71.2919 199.013 74.9675 199.4 78.2121 202.205C79.7151 203.502 80.9652 205.023 82.2354 206.51C84.1896 208.777 86.0921 211.083 88.2504 213.174C90.6931 215.839 93.3629 218.265 96.6132 219.972C99.1364 221.298 100.576 220.688 101.476 218.006C102.051 216.302 102.413 214.533 102.936 212.812C103.993 209.325 105.49 206.128 109.229 204.552C115.802 202.628 121.072 204.332 125.274 209.565C126.932 211.637 127.912 214.051 129.32 216.249C129.33 216.478 129.366 216.706 129.43 216.928C131.777 222.529 132.878 228.413 133.74 234.359C133.453 235.91 132.335 237.077 131.651 238.444C129.927 241.861 128.151 245.239 125.852 248.336C123.213 251.892 119.903 254.39 115.256 255.02C112.575 255.379 109.905 255.894 107.264 256.49C102.625 257.534 98.3117 259.42 94.2021 261.709C90.9 263.547 87.9112 265.825 86.0203 269.114C83.2413 273.943 83.8563 278.797 86.1151 283.643C87.187 285.907 88.8769 287.761 90.1298 289.892Z" fill="#F1B161"/>
<path d="M88.2735 213.175C86.1153 211.084 84.2128 208.778 82.2586 206.511C80.9769 205.024 79.7268 203.503 78.2352 202.205C74.9907 199.398 71.3122 199.014 67.2917 200.236C64.3735 201.107 61.5564 202.269 58.8857 203.704C58.5653 203.905 58.1951 204.018 57.8138 204.032C56.4372 202.066 54.2761 200.969 52.4656 199.479C43.6142 192.238 41.3726 179.484 47.3415 169.876C49.2066 166.874 51.7414 164.777 55.4946 164.083C59.699 163.309 61.2078 160.686 60.2278 156.598C58.9461 151.256 55.9027 146.767 52.8995 142.258C50.27 138.323 47.1059 134.77 44.4591 130.871C37.2888 120.288 39.5419 107.539 49.859 99.6302C53.2501 97.0319 57.0148 95.2357 61.3026 94.5339C67.5963 93.5007 72.1571 95.5058 75.5281 100.78C77.603 104.022 78.948 107.592 80.4998 111.084C81.5804 113.507 82.6609 115.93 84.4657 117.966C85.7327 119.428 87.5208 120.374 89.4748 120.617C98.7688 121.99 104.706 127.529 108.646 135.427C109.405 136.95 110.1 138.543 110.126 140.298C109.658 140.08 109.186 139.869 108.724 139.643C106.214 138.397 103.342 138.016 100.579 138.561C97.8164 139.107 95.3273 140.547 93.5212 142.645C90.1128 146.639 89.7852 151.089 91.7451 155.798L89.1012 159.886C88.9748 160.081 88.8656 160.287 88.7449 160.488C88.1557 161.449 87.4114 162.231 86.1584 162.128C84.9054 162.025 84.1783 161.173 83.7358 160.054C80.3475 151.451 76.8213 142.907 72.8152 134.558C71.2834 131.428 69.7028 128.364 67.7141 125.465C67.6428 125.695 67.6339 125.939 67.6883 126.173C70.223 136.508 72.7625 146.842 75.3068 157.174C77.3702 165.623 79.3905 174.084 81.4769 182.516C81.816 183.892 81.7643 185.12 80.6435 186.084C79.4451 187.103 78.0571 186.897 76.7294 186.362C73.959 185.232 71.2202 184.015 68.424 182.942C66.3491 182.149 64.4236 180.976 62.182 180.6C62.1648 180.456 62.1274 180.355 61.9607 180.492L62.159 180.623C62.6188 181.48 63.5183 181.895 64.2138 182.514C68.5705 186.376 72.8209 190.372 77.3817 193.998C83.6955 199.028 86.9085 205.572 88.2735 213.175Z" fill="#E98609"/>
<path d="M261.744 237.963C260.934 237.252 260.175 236.475 259.304 235.846C255.149 232.855 250.591 232.17 245.676 233.746L243.645 234.398C240.914 232.869 238.472 230.936 236.035 229.037C233.989 227.452 232.011 225.762 229.523 224.84C224.663 223.044 220.24 224.436 216.016 226.79C209.981 230.131 205.037 234.885 199.755 239.188C196.462 241.87 193.128 244.496 189.016 245.933C185.191 247.272 181.739 246.696 178.705 243.944C176.153 241.633 174.647 238.592 172.569 235.949C170.491 233.306 168.258 230.688 165.672 228.413C163.6 226.603 161.263 225.205 158.93 223.785C159.199 223.345 159.57 222.973 160.013 222.696C165.407 218.836 171.42 215.864 177.811 213.898C180.11 213.172 182.443 212.528 184.768 211.885C190.229 210.376 195.715 209.1 201.241 207.93C203.776 207.393 206.345 207 208.9 206.538C213.027 206.095 217.136 205.513 221.289 205.279C234.308 204.544 247.064 205.53 259.12 210.849C267.676 214.623 274.757 220.184 280.168 227.675C278.542 228.628 276.909 229.566 275.283 230.535C270.863 233.167 266.632 236.127 261.744 237.963Z" fill="#FED101"/>
<path d="M209.115 99.9391C205.41 98.9839 201.301 100.588 197.312 99.3822C197.172 99.3473 197.026 99.3442 196.885 99.3732C196.744 99.4022 196.612 99.4624 196.499 99.5492C194.004 101.201 191.265 101.009 188.492 100.521C187.795 100.402 187.081 100.418 186.391 100.569C183.429 101.209 180.33 100.844 177.612 99.5353C175.703 98.6135 174.928 96.8646 174.738 94.8707C174.623 93.5785 174.586 92.2807 174.491 90.9858C174.298 88.3875 173.496 87.4545 170.913 86.8669C166.602 85.8922 163.757 83.3636 162.317 79.3311C161.406 76.7857 161.688 74.2905 162.892 71.9178C164.398 68.9574 163.984 66.2227 162.234 63.4991C160.647 61.0289 159.124 58.5114 158.317 55.6624C157.762 53.713 158.213 51.9112 159.601 50.5077C163.067 47.0015 164.967 42.9412 164.99 38.0426C164.99 36.2797 166.191 35.0544 167.596 34.0936C168.686 33.3501 169.849 32.7012 170.999 32.0467C172.569 31.1559 173.913 29.936 174.933 28.4765C177.73 24.5192 181.882 23.124 186.716 24.4357C187.268 24.5666 187.847 24.5395 188.383 24.3577C191.958 23.3914 195.214 23.9678 197.97 26.4408C198.562 26.9727 199.042 26.8808 199.62 26.6608C201.686 25.8755 203.87 25.1347 206.02 25.6861C207.853 26.1539 209.468 25.9228 211.244 25.6527C215.325 25.0261 217.159 26.3238 217.906 30.2421C218.241 32.017 218.482 33.8072 218.63 35.6058C218.963 39.6634 220.714 42.8799 224.059 45.4308C226.628 47.3802 228.634 49.8866 229.582 53.0196C230.157 54.8827 230.338 56.8432 229.582 58.6116C228.042 62.2765 228.792 65.6546 230.352 69.0605C231.338 71.2076 232.399 73.3436 232.901 75.669C233.381 77.8969 232.792 79.4731 230.72 80.4395C225.657 82.8038 222.843 86.8447 221.214 91.8574C220.768 93.2248 220.326 94.6033 219.415 95.773C216.909 99.0034 213.302 99.7693 209.115 99.9391ZM198.16 87.6495C202.47 87.5827 205.206 86.0343 206.347 82.2858C207.385 78.8632 209.33 76.1313 212.782 74.53C214.219 73.8699 214.535 72.7866 214.199 71.2605C213.793 69.4336 212.868 67.8017 212.187 66.0807C211.402 64.1312 211.118 62.1818 211.899 60.1377C212.664 58.1605 212.31 56.2166 211.261 54.3925C210.499 52.9911 209.436 51.7643 208.143 50.7945C205.844 49.1514 204.87 46.9207 204.574 44.2668C204.399 42.71 204.37 41.131 203.835 39.6132C203.356 38.2459 202.424 37.6304 200.962 37.5469C199.022 37.4355 197.283 38.1038 195.588 38.8251C193.662 39.6439 192.102 39.4796 190.495 38.0453C187.871 35.7005 183.4 35.8592 181.236 38.5466C179.694 40.4263 177.79 41.9973 175.629 43.1723C174.551 43.7822 173.715 44.7012 173.698 45.9377C173.649 49.3241 172.241 52.0922 169.962 54.5541C169.079 55.5037 168.901 56.6817 169.252 57.9433C169.702 59.5079 170.418 60.9885 171.373 62.3239C172.965 64.588 173.175 66.7992 172.143 69.3919C170.542 73.4272 172.899 77.5543 177.195 78.7351C179.741 79.4341 180.126 79.927 180.184 82.5448C180.198 83.1018 180.184 83.6588 180.253 84.2157C180.417 85.5553 180.862 86.8502 182.207 87.41C184.684 88.4404 187.256 88.925 189.739 87.3905C190.291 87.0236 190.921 86.7828 191.583 86.6864C192.244 86.5899 192.92 86.6402 193.559 86.8335C195.159 87.2875 196.792 87.6411 198.16 87.6495Z" fill="#013049"/>
<path d="M208.905 206.535C206.35 206.995 203.781 207.387 201.246 207.927C195.72 209.097 190.219 210.373 184.773 211.882C182.448 212.525 180.103 213.169 177.816 213.895C171.425 215.861 165.412 218.833 160.018 222.693C159.575 222.97 159.204 223.342 158.935 223.782C158.432 223.815 158.018 223.57 157.575 223.397C155 222.382 152.182 222.086 149.442 222.542C143.982 223.397 140.355 226.934 136.843 230.658C135.728 231.841 135.168 233.442 133.76 234.381C132.898 228.435 131.794 222.551 129.449 216.95C129.386 216.729 129.349 216.501 129.34 216.271C130.636 210.061 131.969 203.856 133.202 197.635C133.564 195.816 133.995 193.972 133.676 192.087C134.725 192.24 135.582 191.58 136.579 191.466C141.726 190.887 145.942 192.683 149.422 196.239C150.667 197.512 151.698 198.977 152.871 200.311C155.138 202.865 157.095 203.232 160.222 201.784C163.349 200.336 166.004 198.033 169.002 196.309C175.281 192.711 181.779 189.648 188.998 188.305C191.872 187.765 194.786 187.609 197.683 188.197C203.827 189.444 206.908 193.527 208.316 199.105C208.934 201.545 209.221 204.02 208.905 206.535Z" fill="#E2BF09"/>
<path d="M286.089 52.332C287.885 55.3954 289.129 58.6871 290.609 61.8786C294.785 70.9071 298.857 79.9802 302.967 89.0311C307.025 97.9538 311.085 106.876 315.146 115.796C314.624 115.788 314.101 115.826 313.586 115.908C308.455 117.212 303.114 117.55 297.852 116.902C292.851 116.256 288.233 114.641 284.126 111.753C280.263 109.029 276.826 105.779 273.921 102.103C270.185 97.408 267.564 92.203 266.955 86.2434C266.285 79.7101 268.084 73.7115 271.467 68.0749C274.726 62.65 279.128 58.1803 283.824 53.95C284.505 53.3402 285.138 52.6077 286.089 52.332ZM280.304 88.7971C283.137 88.7971 284.327 88.5187 285.615 87.8085C287.164 86.9341 287.431 85.1601 286.006 84.1882C282.672 81.8934 278.988 81.5119 275.154 82.7957C274.275 83.0909 273.358 83.6869 273.303 84.7284C273.249 85.77 273.878 86.6138 274.835 87.2126C276.48 88.2025 278.368 88.7495 280.304 88.7971ZM281.275 103.415C281.275 105.069 282.387 105.921 284.06 105.556C287.348 104.844 290.727 101.101 291.385 97.4609C291.753 95.4168 290.638 94.2917 288.615 94.676C285.382 95.2636 281.267 100.171 281.275 103.415ZM305.128 106.868C305.128 104.214 304.458 101.747 302.662 99.686C301.205 98.0151 299.421 98.2936 298.53 100.274C297.168 103.284 298.346 108.709 300.852 110.965C302.162 112.143 303.662 111.889 304.473 110.372C305.023 109.285 305.254 108.073 305.14 106.868H305.128ZM290.773 75.9366C290.646 73.0548 289.401 70.3256 287.287 68.2949C286.304 67.3425 285.21 66.624 283.876 67.2589C282.543 67.8939 282.405 69.317 282.502 70.5284C282.73 73.3112 283.915 75.9394 285.868 77.9918C286.822 79.0167 288.124 79.802 289.555 79.2283C290.811 78.727 290.796 77.3903 290.773 76.2151V75.9366Z" fill="#FEE15C"/>
<path d="M133.663 192.075C133.982 193.96 133.551 195.804 133.188 197.623C131.956 203.844 130.622 210.049 129.326 216.259C127.918 214.07 126.938 211.656 125.28 209.575C121.078 204.331 115.796 202.613 109.235 204.562C110.29 200.881 112.258 197.531 113.434 193.882C110.606 197.302 107.899 200.769 105.226 204.262C104.778 204.899 104.148 205.395 103.412 205.689C102.677 205.983 101.869 206.062 101.088 205.916C99.4955 205.682 98.4265 204.718 97.846 203.276C97.6017 202.674 97.4235 202.048 97.2338 201.427C95.2222 194.913 93.2105 188.402 91.239 181.88C90.4746 179.357 89.5607 176.867 89.4429 174.191C89.1957 168.549 91.6816 163.564 93.4979 158.42C96.9177 161.817 101.024 163.176 105.873 162.319C105.749 163.188 105.565 164.051 105.51 164.923C105.289 168.412 106.637 170.492 109.976 171.851C112.563 172.915 115.319 173.522 118.023 174.283C122.776 175.58 127.051 178.16 130.349 181.721C133.122 184.687 134.125 188.151 133.663 192.075Z" fill="#E98609"/>
<path d="M286.092 52.3007C285.141 52.5792 284.509 53.3088 283.833 53.9187C279.14 58.1489 274.738 62.6187 271.476 68.0436C268.093 73.6774 266.303 79.6788 266.964 86.2121C267.573 92.1717 270.2 97.3766 273.93 102.072C276.835 105.747 280.272 108.997 284.135 111.722C288.242 114.609 292.86 116.225 297.861 116.871C303.123 117.518 308.464 117.181 313.595 115.877C314.111 115.794 314.633 115.757 315.155 115.765C316.305 118.299 317.472 120.836 318.656 123.362C318.983 124.064 319.084 124.476 318.081 124.738C306.844 127.551 295.613 128.019 284.457 124.507C273.444 121.042 265.53 113.991 260.121 104.2C257.38 99.2425 255.288 94.0515 254.532 88.4121C253.445 80.297 255.196 72.7472 259.371 65.7182C264.72 56.7092 272.427 49.9698 281.448 44.5532C281.83 44.3221 282.356 43.7177 282.713 44.5532C283.816 47.1292 285.221 49.6077 286.092 52.3007Z" fill="#FED102"/>
<path d="M177.513 168.732C177.15 168.437 176.762 168.175 176.429 167.843C162.169 154.034 147.913 140.219 133.661 126.399C133.327 126.076 133.043 125.705 132.732 125.355C135.586 123.489 138.48 121.72 141.713 120.484C147.403 118.303 153.249 117.473 159.223 118.933C163.995 120.138 168.513 122.14 172.575 124.848C182.524 131.345 186.028 140.457 184.128 151.672C183.099 157.754 180.536 163.343 177.513 168.732ZM173.414 136.118C170.794 136.374 168.379 136.97 166.445 138.736C164.934 140.128 165.296 141.699 167.201 142.356C170.219 143.387 175.035 141.749 176.685 139.66C177.676 138.413 177.283 136.959 175.719 136.508C174.96 136.33 174.191 136.2 173.414 136.118ZM158.034 131.409C158.08 132.155 158.016 132.888 158.321 133.606C158.896 134.971 160.045 135.333 161.293 134.486C163.692 132.838 165.408 128.359 164.701 125.561C164.161 123.433 162.675 122.957 161.068 124.447C159.034 126.34 158.134 128.719 158.034 131.409ZM151.211 131.983C151.009 130.532 150.457 129.149 149.602 127.943C148.746 126.737 147.61 125.742 146.285 125.04C144.449 124.057 143.075 124.892 143.15 126.878C143.282 130.334 145.087 132.918 148.067 134.676C149.826 135.72 151.205 134.787 151.211 131.983ZM165.253 148.878C165.253 151.825 169.822 156.178 172.874 156.144C174.34 156.127 175.139 155.066 174.644 153.532C173.627 150.374 171.406 148.224 168.244 147.074C166.483 146.436 165.253 147.277 165.253 148.878Z" fill="#FEE15C"/>
<path d="M177.496 168.734C180.519 163.345 183.083 157.756 184.106 151.674C186.005 140.459 182.502 131.344 172.553 124.85C168.49 122.142 163.972 120.141 159.201 118.935C153.226 117.476 147.381 118.306 141.691 120.486C138.466 121.723 135.564 123.491 132.71 125.357C130.799 123.544 128.908 121.709 126.962 119.924C126.1 119.124 126.98 118.913 127.385 118.629C132.891 114.69 139.097 111.767 145.694 110.004C155.071 107.537 164.328 107.807 173.021 112.232C183.123 117.362 190.862 124.747 194.204 135.669C196.003 141.543 195.659 147.497 194.089 153.376C192.15 160.641 188.612 167.161 184.031 173.187C183.338 174.101 182.916 174.301 182.057 173.343C180.62 171.736 179.031 170.263 177.496 168.734Z" fill="#FED102"/>
<path d="M261.752 237.973C266.637 236.137 270.871 233.177 275.288 230.537C276.906 229.568 278.538 228.629 280.173 227.677C283.484 226.66 286.809 225.78 290.329 225.711C295.925 225.544 301.454 226.923 306.271 229.688C303.931 233.107 301.555 236.502 299.264 239.953C295.626 245.422 292.304 251.078 288.855 256.662C286.806 259.987 284.567 263.212 281.633 265.91C280.986 266.45 280.295 266.937 279.567 267.367C277.383 268.798 274.871 267.645 273.586 265.91C271.336 262.847 270.138 259.366 268.922 255.851C267.333 251.231 266.554 246.363 264.373 241.927C263.639 240.527 262.761 239.202 261.752 237.973Z" fill="#E98608"/>
<path d="M318.92 50.9103C317.577 45.9866 316.711 40.9519 316.334 35.872C315.894 30.4415 316.046 25.0416 317.483 19.7365C319.455 12.4429 323.964 7.46075 331.62 5.50299C339.123 3.587 345.414 7.10429 347.613 14.3227C349.553 20.6638 347.498 26.0359 343.423 30.9734C337.35 38.3338 330.019 44.3965 322.472 50.2447C321.691 50.8491 320.877 51.4144 320.076 51.9992C320.004 51.3281 320.283 50.7237 320.481 50.1111C321.458 46.9142 322.84 43.8469 324.596 40.9795C324.769 40.701 325.171 40.3946 324.74 40.0103C324.53 39.8237 324.283 39.5759 324.007 39.8154C323.777 40.0498 323.583 40.3152 323.432 40.6035C321.426 43.834 320.165 47.368 318.92 50.9103Z" fill="#E98609"/>
<path d="M105.886 162.321C101.038 163.182 96.9309 161.823 93.5111 158.422C92.921 157.542 92.3309 156.662 91.7408 155.782C89.7751 151.073 90.1084 146.623 93.5168 142.629C95.3229 140.531 97.812 139.091 100.575 138.545C103.338 138 106.21 138.381 108.719 139.627C109.182 139.853 109.653 140.064 110.122 140.282L110.105 140.262C110.038 140.429 110.133 140.493 110.283 140.524C114.306 143.507 116.189 147.433 115.392 152.298C114.525 157.598 111.116 160.817 105.886 162.321Z" fill="#013049"/>
<path d="M300.609 163.678C301.307 164.082 302.091 163.904 302.833 163.957C303.758 164.015 303.957 164.336 303.615 165.165C301.813 169.552 299.407 173.579 296.033 177.001C288.492 184.648 279.198 187.634 268.485 186.191C260.656 185.13 255.509 180.563 252.564 173.567C251.791 171.729 251.127 169.844 251.021 167.828C252.776 167.393 254.547 166.992 256.28 166.499C257.188 166.238 257.429 166.55 257.587 167.335C257.891 168.74 258.388 170.099 259.064 171.376C260.878 174.918 263.504 177.614 267.559 178.68C273.436 180.223 278.799 178.753 283.814 175.776C288.679 172.888 292.338 168.828 295.309 164.168C295.735 163.506 296.134 163.286 296.904 163.38C298.134 163.525 299.373 163.581 300.609 163.678Z" fill="#013049"/>
<path d="M81.6946 56.5087C81.4216 56.4307 81.1515 56.3333 80.8727 56.2776C78.2259 55.7485 78.1943 55.7206 79.4617 53.4927C83.8299 45.7368 89.9339 39.8468 98.8141 37.1566C104.829 35.3326 110.945 35.1293 117.005 36.9728C124.463 39.2425 128.702 44.4474 130.705 51.5628C131.163 53.0753 131.412 54.6402 131.444 56.2163C129.797 56.4948 128.13 56.6953 126.509 57.0852C125.219 57.3943 124.929 56.9292 124.727 55.7819C124.006 51.6881 122.308 48.0594 118.692 45.6004C114.318 42.6345 109.462 42.615 104.536 43.8431C98.3974 45.3776 93.6009 48.9812 89.4454 53.4704C88.3964 54.6039 87.6866 56.2052 86.4192 56.9376C85.0858 57.7118 83.4103 56.5533 81.8498 56.5087C81.7981 56.5055 81.7463 56.5055 81.6946 56.5087Z" fill="#013049"/>
<path d="M81.6931 56.5106C81.741 56.5078 81.789 56.5078 81.8368 56.5106C83.3973 56.5551 85.0728 57.7136 86.4062 56.9394C87.6736 56.207 88.3834 54.6057 89.4324 53.4723C93.5879 48.9831 98.3844 45.3794 104.523 43.845C109.449 42.6169 114.294 42.6363 118.679 45.6022C122.306 48.0613 124.005 51.69 124.714 55.7837C124.916 56.9311 125.206 57.3962 126.496 57.087C128.117 56.6972 129.784 56.4994 131.431 56.2182C132.005 57.6524 132.097 59.1841 132.408 60.674C132.549 61.3507 132.31 61.7099 131.546 61.7879C130.129 61.9606 128.672 62.0497 127.321 62.4507C125.97 62.8517 125.763 62.2363 125.631 61.2393C125.293 58.7997 124.381 56.468 122.964 54.4247C119.803 49.7461 115.084 48.1476 109.595 48.5765C100.298 49.295 93.7431 54.55 88.2656 61.3618C87.55 62.253 87.0011 62.7543 85.7165 62.4062C84.0084 61.9816 82.2738 61.6644 80.5235 61.4565C79.374 61.2894 79.2044 60.8661 79.7878 59.922C80.4689 58.8165 81.0638 57.6496 81.6931 56.5106Z" fill="#F1B161"/>
<path d="M300.608 163.654C299.376 163.557 298.137 163.501 296.91 163.348C296.14 163.253 295.74 163.473 295.315 164.136C292.338 168.795 288.679 172.856 283.819 175.744C278.805 178.721 273.442 180.199 267.565 178.648C263.51 177.582 260.883 174.886 259.07 171.344C258.393 170.067 257.896 168.708 257.593 167.303C257.432 166.509 257.193 166.189 256.285 166.467C254.561 166.971 252.782 167.361 251.026 167.796C250.472 166.465 250.042 165.09 249.742 163.685C249.56 162.897 249.721 162.385 250.707 162.212C252.067 161.964 253.411 161.638 254.731 161.234C255.722 160.936 256.058 161.276 256.297 162.187C257.323 166.102 259.171 169.517 262.766 171.839C266.697 174.365 270.968 174.44 275.307 173.404C283.296 171.497 288.814 166.367 293.208 159.948C294.211 158.48 295.091 157.762 296.967 158.238C298.332 158.586 299.807 158.567 301.235 158.642C302.313 158.7 302.709 159.04 302.203 160.084C301.632 161.257 301.134 162.463 300.608 163.654Z" fill="#F1B161"/>
<path d="M347.447 109.659C345.928 109.668 344.44 109.24 343.172 108.43C341.904 107.619 340.912 106.462 340.322 105.106C339.733 103.749 339.571 102.254 339.858 100.808C340.146 99.3623 340.869 98.0317 341.936 96.9844C343.004 95.937 344.368 95.2199 345.856 94.9237C347.344 94.6275 348.889 94.7656 350.297 95.3204C351.704 95.8752 352.91 96.8219 353.762 98.0407C354.613 99.2596 355.073 100.696 355.083 102.168C355.088 104.141 354.289 106.035 352.858 107.438C351.428 108.842 349.483 109.64 347.447 109.659Z" fill="#013049"/>
<path d="M245.089 5.72552C245.086 4.59759 245.427 3.49397 246.07 2.55393C246.714 1.61389 247.63 0.879566 248.703 0.443629C249.777 0.0076923 250.96 -0.11032 252.102 0.104484C253.245 0.319289 254.296 0.857285 255.124 1.65058C255.951 2.44387 256.518 3.4569 256.751 4.56183C256.985 5.66676 256.876 6.81407 256.438 7.85897C256 8.90386 255.252 9.79952 254.289 10.4329C253.325 11.0663 252.19 11.409 251.026 11.4178C250.249 11.4297 249.476 11.291 248.754 11.0099C248.033 10.7288 247.376 10.311 246.823 9.78081C246.27 9.25068 245.832 8.61893 245.534 7.92258C245.236 7.22623 245.085 6.47929 245.089 5.72552Z" fill="#FED102"/>
<path d="M223.96 149.189C223.187 149.191 222.42 149.045 221.705 148.76C220.989 148.475 220.339 148.056 219.79 147.527C218.683 146.459 218.059 145.009 218.055 143.494C218.051 141.98 218.668 140.527 219.77 139.453C220.872 138.38 222.369 137.775 223.932 137.772C225.494 137.768 226.994 138.366 228.102 139.434C229.209 140.502 229.834 141.952 229.837 143.467C229.841 144.981 229.224 146.434 228.122 147.508C227.02 148.581 225.523 149.186 223.96 149.189Z" fill="#E98609"/>
<path d="M7.7018 220.68C8.47546 220.693 9.23902 220.853 9.94889 221.151C10.6587 221.45 11.301 221.881 11.839 222.42C12.377 222.958 12.8002 223.595 13.0844 224.292C13.3686 224.99 13.5083 225.734 13.4955 226.484C13.4826 227.234 13.3175 227.974 13.0096 228.662C12.7017 229.35 12.257 229.972 11.7008 230.493C11.1447 231.015 10.488 231.425 9.76834 231.7C9.04866 231.976 8.28004 232.111 7.50638 232.098C5.94389 232.073 4.45569 231.448 3.36917 230.359C2.28265 229.271 1.68681 227.809 1.71273 226.295C1.73864 224.781 2.38419 223.339 3.50736 222.286C4.63053 221.233 6.13931 220.655 7.7018 220.68Z" fill="#E98609"/>
<path d="M0 110.91C0.0747197 103.408 4.61538 97.2223 12.0299 94.5962C14.214 93.822 14.168 93.8359 14.8405 95.9886C15.0934 96.7907 14.9583 97.1276 14.1306 97.4005C11.2856 98.3474 8.75083 99.8039 6.76788 102.029C4.07797 105.042 3.24743 108.604 3.53194 112.503C3.56356 112.94 3.98314 113.589 3.22157 113.815C2.35253 114.059 1.46723 114.245 0.571893 114.372C0.502921 114.372 0.28451 113.923 0.252898 113.667C0.140818 112.754 0.0804674 111.832 0 110.91Z" fill="#FED102"/>
<path d="M434.244 198.381C433.792 198.869 433.611 199.083 433.41 199.278C429.828 202.805 426.244 206.333 422.659 209.86C422.263 210.253 422.024 210.376 421.51 209.938C419.564 208.267 419.498 208.267 421.268 206.482C424.49 203.257 427.78 200.099 431.011 196.886C431.56 196.329 431.873 196.446 432.367 196.916C432.965 197.437 433.591 197.926 434.244 198.381Z" fill="#013049"/>
<path d="M412.312 46.8377C411.576 47.4866 410.875 48.1605 410.122 48.7509C409.49 49.2411 409.312 48.4892 409.056 48.2218C405.72 44.7296 402.446 41.1677 399.069 37.7256C397.834 36.4669 399.069 36.1299 399.664 35.52C400.259 34.9101 400.754 34.4061 401.676 35.4142C404.877 38.9565 408.214 42.3764 411.496 45.863C411.743 46.1332 411.97 46.4311 412.312 46.8377Z" fill="#FED102"/>
<path d="M318.91 50.9113C320.155 47.3689 321.416 43.8349 323.442 40.6072C323.593 40.319 323.787 40.0535 324.017 39.8191C324.304 39.5796 324.54 39.8191 324.75 40.014C325.178 40.3984 324.779 40.7075 324.606 40.9832C322.846 43.8536 321.459 46.9246 320.479 50.1259C320.281 50.7386 320.002 51.3429 320.074 52.0141C319.212 53.8159 319.091 55.782 318.948 57.6868C318.545 63.0533 319.235 68.2888 321.451 73.2821C321.908 74.3125 322.617 75.1953 323.043 76.2285C323.201 76.6128 323.436 77.064 322.867 77.2896C322.411 77.4622 322.215 77.0528 322.005 76.7326C319.501 72.5167 318.027 67.8011 317.695 62.9475C317.413 58.8453 318.143 54.888 318.91 50.9113Z" fill="#E5E5E5"/>
<path d="M376.669 273.321C376.537 273.042 376.669 272.886 376.914 272.764C376.882 272.973 377.095 273.279 376.669 273.321Z" fill="#003049"/>
<path d="M110.274 140.52C110.124 140.489 110.03 140.425 110.096 140.258L110.274 140.52Z" fill="#E98609"/>
<path d="M133.746 234.383C135.154 233.442 135.715 231.843 136.83 230.66C140.342 226.936 143.971 223.4 149.432 222.545C152.172 222.088 154.989 222.384 157.565 223.4C158.007 223.572 158.427 223.817 158.924 223.784C161.257 225.204 163.594 226.602 165.666 228.412C168.252 230.688 170.468 233.264 172.563 235.948C174.658 238.633 176.158 241.632 178.71 243.958C181.745 246.709 185.196 247.286 189.022 245.946C193.134 244.509 196.468 241.883 199.761 239.201C205.043 234.898 209.978 230.156 216.021 226.803C220.243 224.458 224.666 223.065 229.528 224.853C232.011 225.775 233.994 227.466 236.04 229.05C238.492 230.949 240.926 232.882 243.65 234.411C237.17 237.965 233.379 243.573 230.787 250.129C229.143 254.284 228.488 258.678 227.281 262.939C225.844 268.102 223.122 272.608 219.634 276.733C215.995 281.033 211.57 284.455 206.891 287.558C204.381 289.221 201.74 290.692 198.994 291.958C195.514 293.562 192.097 295.299 188.473 296.581C185.219 297.739 181.955 298.87 178.615 299.786C176.158 300.46 173.713 301.178 171.258 301.872C171.546 302.228 171.96 302.256 172.391 302.264C174.247 302.295 176.095 302.356 177.954 302.496C181.42 302.755 184.906 302.724 188.386 302.833C188.858 302.833 189.499 302.585 189.657 303.359C181.713 303.476 173.782 303.181 165.853 302.685C157.789 302.178 149.755 301.39 141.753 300.321C137.212 299.719 132.689 299.003 128.157 298.341C128.082 298.288 128.01 298.199 127.93 298.185C119.983 296.853 112.086 295.302 104.252 293.45C103.39 293.244 102.499 292.74 101.531 293.074C98.217 292.537 95.0874 291.345 91.8572 290.507C91.2652 290.354 90.7076 290.111 90.1329 289.911C88.8827 287.783 87.1929 285.928 86.1354 283.664C83.8765 278.819 83.2615 273.965 86.0405 269.136C87.9315 265.847 90.926 263.566 94.2223 261.731C98.3319 259.441 102.646 257.553 107.284 256.512C109.925 255.916 112.595 255.398 115.276 255.041C119.923 254.42 123.234 251.922 125.872 248.358C128.171 245.261 129.958 241.883 131.671 238.466C132.341 237.101 133.447 235.934 133.746 234.383Z" fill="#E98608"/>
<path d="M218.148 392.771C207.208 392.651 196.667 389.964 187.261 383.639C181.191 379.557 176.696 374.24 174.616 367.32C172.604 360.608 173.621 354.12 177.297 348.124C181.467 341.323 187.717 336.862 195.031 333.57C200.399 331.17 206.14 329.649 212.021 329.07C222.18 328.02 232.084 329.203 241.536 333.214C246.709 335.408 251.416 338.257 255.376 342.17C259.624 346.364 262.518 351.315 263.423 357.175C264.328 363.034 263.078 368.543 259.868 373.631C255.428 380.671 248.904 385.185 241.225 388.39C235.74 390.645 229.92 392.039 223.982 392.52C222.152 392.673 220.358 392.635 218.148 392.771Z" fill="#30576B"/>
<path d="M101.54 293.055C102.509 292.721 103.397 293.225 104.262 293.431C112.096 295.286 119.993 296.837 127.939 298.165C128.02 298.165 128.091 298.268 128.166 298.321C122.956 297.789 117.84 296.734 112.722 295.703C108.966 294.951 105.187 294.216 101.54 293.055Z" fill="#F1B161"/>
<path d="M337.666 213.403C337.379 209.201 335.859 205.327 334.275 201.47C333.37 199.242 332.08 197.19 331.562 194.828C334.215 197.864 336.5 201.169 339.034 204.297C339.943 205.411 340.787 206.678 342.351 207.029C344.65 207.544 346.662 206.38 347.403 203.999C349.162 198.429 350.852 192.837 352.55 187.251C353.349 184.636 354.108 182.01 354.93 179.403C356.183 175.434 355.792 171.536 354.484 167.67C352.53 161.867 350.544 156.071 348.587 150.268C348.458 149.889 348.176 149.521 348.371 148.909C349.688 150.482 350.538 152.217 351.576 153.829C353.191 156.336 354.737 158.909 356.277 161.466C356.913 162.515 357.668 163.429 359.051 163.309C360.433 163.189 361.028 162.195 361.482 161.045C364.462 153.526 367.517 146.048 370.934 138.699C372.638 135.023 374.42 131.383 376.489 127.883C376.729 127.457 377.075 127.095 377.495 126.83C377.279 127.821 377.084 128.816 376.843 129.802C374.825 138.03 372.803 146.258 370.776 154.487C368.356 164.34 365.947 174.192 363.548 184.045C363.261 185.271 363.459 186.379 364.436 187.226C365.517 188.161 366.778 188.136 368.06 187.615L382.053 181.932C382.3 181.824 382.578 181.806 382.837 181.881C382.145 182.572 381.492 183.304 380.754 183.945C375.742 188.306 370.667 192.603 365.698 197.012C361.324 200.891 358.887 205.862 357.49 211.376C356.513 215.239 355.438 219.073 354.458 222.936C353.51 226.662 355.159 229.837 358.792 231.266C360.611 231.981 362.47 231.58 364.287 231.168C369.072 230.082 373.848 228.965 378.624 227.854C379.085 227.696 379.582 227.663 380.061 227.757L371.172 233.502C369.595 233.357 368.192 232.572 366.609 232.388C361.528 231.831 358.025 234.357 355.114 237.941C352.061 241.717 349.981 246.064 347.596 250.233C345.584 253.762 343.538 257.273 340.431 260.061C337.6 262.598 331.686 263.531 328.206 261.966C326.392 261.147 325.45 258.903 326.234 257.106C327.697 253.787 330.189 251.113 332.312 248.212C335.583 243.742 338.664 239.186 340.273 233.847C342.213 227.417 341.569 221.229 338.488 215.255C338.233 214.76 338.026 214.242 337.796 213.735C337.796 213.587 337.776 213.456 337.592 213.431L337.666 213.403Z" fill="#F5C88F"/>
<path d="M337.617 213.443C337.801 213.468 337.827 213.599 337.821 213.747L337.617 213.443Z" fill="#E98609"/>
<path d="M348.076 148.244C348.093 148.291 348.116 148.325 348.11 148.356C348.105 148.386 348.076 148.411 348.059 148.442L348.076 148.244Z" fill="#F5C88F"/>
<path d="M331.558 194.835L331.365 194.751C331.543 194.545 331.5 194.79 331.552 194.838L331.558 194.835Z" fill="#F5C88F"/>
<path d="M91.7392 155.777C92.3312 156.657 92.9213 157.537 93.5095 158.417C91.6932 163.561 89.1988 168.546 89.4545 174.188C89.5724 176.856 90.4862 179.354 91.2507 181.877C93.2279 188.399 95.2424 194.91 97.2455 201.424C97.4352 202.045 97.6133 202.672 97.8576 203.273C98.4324 204.716 99.5072 205.679 101.099 205.913C101.88 206.06 102.689 205.981 103.424 205.687C104.16 205.393 104.79 204.897 105.238 204.259C107.91 200.767 110.617 197.297 113.445 193.88C112.27 197.528 110.301 200.878 109.247 204.56C105.511 206.139 104.011 209.333 102.953 212.82C102.43 214.541 102.062 216.309 101.493 218.014C100.591 220.696 99.1537 221.305 96.6305 219.994C93.3802 218.287 90.7104 215.861 88.2676 213.196C86.9026 205.593 83.6896 199.049 77.3643 194.019C72.8035 190.399 68.5531 186.397 64.1964 182.534C63.5009 181.916 62.6014 181.501 62.1416 180.643L62.1646 180.621C64.4062 180.997 66.3317 182.17 68.4066 182.963C71.2028 184.035 73.9416 185.252 76.7119 186.383C78.0512 186.94 79.4277 187.138 80.6261 186.105C81.7555 185.141 81.7986 183.913 81.4595 182.537C79.3731 174.091 77.3528 165.63 75.2894 157.195C72.7623 146.857 70.2267 136.524 67.6824 126.194C67.628 125.96 67.6369 125.716 67.7082 125.486C69.6969 128.371 71.2775 131.435 72.7805 134.565C76.8039 142.92 80.3186 151.458 83.7011 160.061C84.1437 161.174 84.8219 162.032 86.1238 162.135C87.4256 162.238 88.1354 161.456 88.7102 160.495C88.8309 160.294 88.9401 160.088 89.0666 159.893L91.7392 155.777Z" fill="#F5C88F"/>
<path d="M62.129 180.625L61.9307 180.494C62.0973 180.358 62.1347 180.458 62.1519 180.603L62.129 180.625Z" fill="#F5C88F"/>
<path d="M198.148 87.6346C196.78 87.6346 195.147 87.2726 193.55 86.8214C192.911 86.6281 192.235 86.5778 191.574 86.6743C190.912 86.7707 190.282 87.0115 189.73 87.3784C187.247 88.9129 184.675 88.4283 182.198 87.3979C180.853 86.8409 180.408 85.5432 180.244 84.2036C180.175 83.6467 180.189 83.0897 180.175 82.5327C180.117 79.9149 179.732 79.422 177.186 78.723C172.89 77.5422 170.533 73.415 172.134 69.3798C173.165 66.7871 172.956 64.5759 171.364 62.3118C170.409 60.9765 169.692 59.4958 169.243 57.9312C168.892 56.6696 169.07 55.4916 169.953 54.542C172.252 52.0801 173.651 49.312 173.688 45.9256C173.706 44.6891 174.551 43.7701 175.62 43.1602C177.78 41.9852 179.685 40.4141 181.227 38.5345C183.391 35.8471 187.862 35.6884 190.486 38.0332C192.093 39.4675 193.647 39.6318 195.578 38.813C197.274 38.0917 199.013 37.4206 200.953 37.5348C202.412 37.6183 203.344 38.2338 203.826 39.6011C204.361 41.1189 204.401 42.6979 204.565 44.2547C204.852 46.9086 205.832 49.1393 208.134 50.7824C209.427 51.7522 210.49 52.979 211.252 54.3804C212.301 56.2045 212.655 58.1484 211.89 60.1256C211.097 62.1781 211.382 64.1164 212.178 66.0686C212.867 67.7896 213.793 69.4104 214.189 71.2484C214.526 72.7745 214.189 73.8578 212.773 74.5179C209.324 76.1192 207.376 78.8511 206.338 82.2737C205.189 86.0249 202.447 87.5678 198.148 87.6346ZM194.509 74.8632C197.234 74.8799 198.125 74.3062 198.978 72.1312C199.57 70.6302 200.3 69.2656 201.93 68.5499C202.867 68.1377 203.079 67.3357 202.792 66.4417C202.582 65.7789 202.246 65.1551 202.002 64.4923C201.674 63.629 201.2 62.7518 201.576 61.8161C202.389 59.7859 201.688 58.1428 200.139 56.8451C198.676 55.6281 198.128 54.1326 197.978 52.3503C197.811 50.1697 196.918 49.635 194.716 50.2839C194.394 50.3704 194.077 50.4754 193.768 50.5986C192.748 51.0386 191.883 50.9244 191.003 50.1781C190.124 49.4317 188.954 49.1839 187.914 49.7186C185.986 50.71 184.58 52.3726 182.951 53.7483C182.755 53.9154 182.799 54.3582 182.753 54.6784C182.612 55.6476 182.503 56.6891 181.752 57.377C179.945 59.0395 180.474 60.6576 181.623 62.3535C182.284 63.3199 182.54 64.3197 182.143 65.5004C181.281 68.0458 182.066 69.5441 184.626 70.477C185.488 70.7889 185.934 71.2456 185.974 72.1953C186.089 74.8632 188.078 76.03 190.572 74.8688C191.475 74.451 192.317 74.4984 193.216 74.6543L194.509 74.8632Z" fill="#E88509"/>
<path d="M280.314 88.7845C278.38 88.7336 276.496 88.1848 274.854 87.1943C273.902 86.5956 273.264 85.8019 273.322 84.7102C273.379 83.6185 274.293 83.0727 275.173 82.7775C279.006 81.4909 282.691 81.8724 286.024 84.1699C287.461 85.1502 287.174 86.9242 285.633 87.7903C284.34 88.5199 283.148 88.7789 280.314 88.7845Z" fill="#FEF2B6"/>
<path d="M281.274 103.421C281.274 100.176 285.381 95.2693 288.614 94.6705C290.626 94.2973 291.752 95.4224 291.385 97.4554C290.726 101.104 287.347 104.838 284.059 105.551C282.387 105.924 281.28 105.075 281.274 103.421Z" fill="#FEF2B6"/>
<path d="M305.141 106.859C305.259 108.063 305.032 109.275 304.486 110.362C303.675 111.88 302.187 112.134 300.865 110.956C298.359 108.7 297.18 103.275 298.543 100.265C299.433 98.2929 301.218 98.0032 302.675 99.6769C304.471 101.738 305.132 104.205 305.141 106.859Z" fill="#FEF2B6"/>
<path d="M290.789 75.9412V76.2196C290.812 77.3949 290.826 78.726 289.57 79.2329C288.133 79.8066 286.837 79.0212 285.883 77.9964C283.931 75.9439 282.746 73.3157 282.518 70.5329C282.42 69.3215 282.575 67.8929 283.892 67.2635C285.208 66.6341 286.32 67.347 287.303 68.2995C289.417 70.3302 290.662 73.0593 290.789 75.9412Z" fill="#FEF2B6"/>
<path d="M173.399 136.115C174.178 136.194 174.951 136.321 175.713 136.497C177.276 136.948 177.67 138.402 176.678 139.649C175.02 141.738 170.203 143.375 167.195 142.345C165.295 141.696 164.927 140.117 166.439 138.725C168.364 136.967 170.778 136.371 173.399 136.115Z" fill="#FEF2B6"/>
<path d="M158.031 131.407C158.132 128.717 159.031 126.339 161.063 124.445C162.67 122.952 164.155 123.428 164.696 125.559C165.403 128.344 163.687 132.836 161.287 134.484C160.052 135.32 158.885 134.969 158.316 133.604C158.014 132.886 158.066 132.153 158.031 131.407Z" fill="#FEF2B6"/>
<path d="M151.195 131.977C151.195 134.762 149.81 135.714 148.054 134.675C145.074 132.913 143.269 130.328 143.137 126.878C143.062 124.892 144.436 124.057 146.272 125.04C147.596 125.742 148.73 126.736 149.586 127.941C150.441 129.145 150.992 130.528 151.195 131.977Z" fill="#FEF2B6"/>
<path d="M165.237 148.872C165.237 147.271 166.473 146.43 168.229 147.068C171.39 148.218 173.612 150.368 174.629 153.526C175.123 155.06 174.324 156.121 172.859 156.138C169.801 156.171 165.237 151.819 165.237 148.872Z" fill="#FEF2B6"/>
<path d="M194.52 74.8905L193.215 74.6705C192.315 74.5146 191.473 74.4672 190.571 74.885C188.074 76.0463 186.085 74.885 185.973 72.2115C185.933 71.2619 185.476 70.8051 184.625 70.4932C182.064 69.5603 181.294 68.062 182.142 65.5167C182.539 64.3359 182.283 63.3361 181.622 62.3698C180.472 60.6849 179.958 59.0669 181.757 57.4155C182.507 56.7276 182.619 55.6861 182.757 54.7169C182.803 54.3967 182.757 53.9539 182.955 53.7868C184.585 52.4111 185.99 50.7485 187.918 49.7571C188.959 49.2224 190.128 49.4786 191.008 50.2166C191.887 50.9546 192.752 51.0771 193.772 50.6371C194.082 50.514 194.398 50.4089 194.721 50.3224C196.922 49.6735 197.816 50.2082 197.983 52.3888C198.118 54.1711 198.681 55.6666 200.144 56.8836C201.701 58.1813 202.402 59.8244 201.581 61.8546C201.204 62.7903 201.678 63.6675 202.006 64.5308C202.25 65.1825 202.581 65.8063 202.796 66.4802C203.084 67.3742 202.871 68.1762 201.934 68.5884C200.305 69.3041 199.575 70.6687 198.983 72.1697C198.135 74.3224 197.244 74.9128 194.52 74.8905Z" fill="#F5C88F"/>
</svg>
