<svg width="478" height="355" viewBox="0 0 478 355" fill="none" xmlns="http://www.w3.org/2000/svg">
<g clip-path="url(#clip0_1211_9474)">
<path d="M238.75 354.72C370.608 354.72 477.5 308.086 477.5 250.56C477.5 193.034 370.608 146.4 238.75 146.4C106.892 146.4 0 193.034 0 250.56C0 308.086 106.892 354.72 238.75 354.72Z" fill="#A5A5A5"/>
<path d="M238.75 344.041C370.608 344.041 477.5 297.407 477.5 239.881C477.5 182.355 370.608 135.721 238.75 135.721C106.892 135.721 0 182.355 0 239.881C0 297.407 106.892 344.041 238.75 344.041Z" fill="#E6E6E6"/>
<path d="M96.2901 190.621C96.2901 190.621 64.2901 189.541 62.9501 210.621C61.6101 231.701 86.6501 228.391 69.5301 243.531C52.41 258.671 55.0501 278.411 103.1 283.001C151.15 287.591 154.45 277.101 184.1 290.581C213.75 304.061 242.1 300.111 238.78 269.831C235.46 239.551 96.2901 190.621 96.2901 190.621Z" fill="#003049"/>
<path d="M364.31 195.34C364.31 195.34 391.43 184.25 393.41 204.84C395.39 225.43 392.41 214.57 417.41 220.49C442.41 226.41 439.46 240.57 416.41 246.49C393.36 252.41 426.55 298.69 325.9 287.96C225.25 277.23 364.28 195.34 364.28 195.34H364.31Z" fill="#003049"/>
<path d="M116.74 175.341C106.063 179.244 97.2924 187.098 92.2402 197.281C87.6002 206.851 85.6002 219.791 93.6702 235.201C111.61 269.461 136.9 267.831 175.24 267.011C213.58 266.191 253.54 296.591 314.72 289.551C375.9 282.511 390.58 231.941 359.58 202.551C329.31 173.881 243.05 128.091 116.74 175.321V175.341Z" fill="#EA8608"/>
<path opacity="0.36" d="M116.74 175.341C106.063 179.244 97.2924 187.098 92.2402 197.281C87.6002 206.851 85.6002 219.791 93.6702 235.201C111.61 269.461 136.9 267.831 175.24 267.011C213.58 266.191 253.54 296.591 314.72 289.551C375.9 282.511 390.58 231.941 359.58 202.551C329.31 173.881 243.05 128.091 116.74 175.321V175.341Z" fill="white"/>
<path d="M116.74 157.39C106.063 161.292 97.2924 169.146 92.2402 179.33C87.6002 188.9 85.6002 201.84 93.6702 217.25C111.61 251.51 136.9 249.88 175.24 249.06C213.58 248.24 253.54 278.64 314.72 271.6C375.9 264.56 390.58 213.99 359.58 184.6C329.31 156 243.05 110.16 116.74 157.39Z" fill="#EA8608"/>
<path d="M116.74 143.181C106.063 147.083 97.2924 154.937 92.2402 165.121C87.6002 174.691 85.6002 187.631 93.6702 203.041C111.61 237.301 136.9 235.671 175.24 234.851C213.58 234.031 253.54 264.431 314.72 257.391C375.9 250.351 390.58 199.781 359.58 170.391C329.31 141.741 243.05 96.0006 116.74 143.181Z" fill="#EA8608"/>
<path opacity="0.36" d="M116.74 143.181C106.063 147.083 97.2924 154.937 92.2402 165.121C87.6002 174.691 85.6002 187.631 93.6702 203.041C111.61 237.301 136.9 235.671 175.24 234.851C213.58 234.031 253.54 264.431 314.72 257.391C375.9 250.351 390.58 199.781 359.58 170.391C329.31 141.741 243.05 96.0006 116.74 143.181Z" fill="white"/>
<path d="M116.74 125.24C106.063 129.143 97.2924 136.997 92.2402 147.18C87.6002 156.75 85.6002 169.69 93.6702 185.1C111.61 219.36 136.9 217.73 175.24 216.91C213.58 216.09 253.54 246.49 314.72 239.45C375.9 232.41 390.58 181.84 359.58 152.45C329.31 123.8 243.05 78.0004 116.74 125.24Z" fill="#EA8608"/>
<path d="M110.53 115.002C110.53 115.002 92.9996 120.292 97.8996 146.002C102.8 171.712 111.36 196.162 142.35 200.242C173.34 204.322 190.81 209.622 227.35 202.692C263.89 195.762 300.18 239.802 338.52 218.602C376.86 197.402 400.1 201.542 387.05 155.832C374 110.122 231.64 57.4918 110.52 115.002H110.53Z" fill="#EA8608"/>
<path opacity="0.36" d="M110.53 115.002C110.53 115.002 92.9996 120.292 97.8996 146.002C102.8 171.712 111.36 196.162 142.35 200.242C173.34 204.322 190.81 209.622 227.35 202.692C263.89 195.762 300.18 239.802 338.52 218.602C376.86 197.402 400.1 201.542 387.05 155.832C374 110.122 231.64 57.4918 110.52 115.002H110.53Z" fill="white"/>
<path d="M110.53 92.1609C110.53 92.1609 92.9996 97.4609 97.8996 123.161C102.8 148.861 111.36 173.321 142.35 177.401C173.34 181.481 190.81 186.781 227.35 179.851C263.89 172.921 300.18 217.001 338.52 195.751C376.86 174.501 400.1 178.691 387.05 133.001C374 87.3109 231.64 34.6609 110.52 92.1609H110.53Z" fill="#EA8608"/>
<path d="M138.91 59.6109C128.233 63.5132 119.462 71.3673 114.41 81.5509C109.77 91.1209 107.77 104.061 115.84 119.471C133.78 153.731 159.07 152.101 197.41 151.281C235.75 150.461 275.71 180.861 336.89 173.821C398.07 166.781 412.75 116.211 381.75 86.8209C351.48 58.1709 265.22 12.3809 138.91 59.6109Z" fill="#EA8608"/>
<path opacity="0.36" d="M138.91 59.6109C128.233 63.5132 119.462 71.3673 114.41 81.5509C109.77 91.1209 107.77 104.061 115.84 119.471C133.78 153.731 159.07 152.101 197.41 151.281C235.75 150.461 275.71 180.861 336.89 173.821C398.07 166.781 412.75 116.211 381.75 86.8209C351.48 58.1709 265.22 12.3809 138.91 59.6109Z" fill="white"/>
<path d="M138.91 41.6715C128.233 45.5737 119.462 53.4279 114.41 63.6115C109.77 73.1815 107.77 86.1215 115.84 101.531C133.78 135.791 159.07 134.161 197.41 133.341C235.75 132.521 275.71 162.921 336.89 155.881C398.07 148.841 412.75 98.2715 381.75 68.8815C351.48 40.2315 265.22 -5.55852 138.91 41.6715Z" fill="#EA8608"/>
<path opacity="0.05" d="M314.72 289.55C314.72 289.55 302.52 236.95 314.72 199.42C326.92 161.89 337.1 104 285.27 84.8803L317 56.5703L338.07 70.3903L358.48 94.7503L375.29 111.21L387.06 133L377 155L365.75 178.4L359.17 208.68L360.49 240.55L356 274.22C356 274.22 332.2 288.49 314.77 289.54L314.72 289.55Z" fill="#000001"/>
<path d="M225.26 22.0013C225.26 22.0013 178.48 22.9213 165.64 32.0013C152.8 41.0813 152.15 53.0013 175.19 51.0013C198.23 49.0013 212.1 59.4913 195.45 68.5813C178.8 77.6713 151.33 86.0513 137.75 126.001C124.17 165.951 142.59 180.141 127.13 209.681C111.67 239.221 115.48 259.611 115.48 259.611C115.48 259.611 125.6 268.491 138.87 266.611C138.87 266.611 132.72 239.671 146.87 212.691C161.02 185.711 150.49 145.691 160.04 129.091C169.59 112.491 195.61 93.8713 221.11 84.6613C246.61 75.4513 261.56 101.201 285.27 95.9413C315.56 89.2213 300.27 77.4213 320.99 81.7013C341.71 85.9813 378.51 111.361 369.04 140.951C359.57 170.541 342.38 178.471 346.33 209.411C350.28 240.351 356 274.261 356 274.261C356 274.261 365.47 270.381 368.42 260.781C368.42 260.781 359.55 224.781 363.83 198.141C368.11 171.501 392.34 155.431 390.76 125.141C389.64 103.621 380.35 91.4013 375.06 86.1413C373.45 84.5676 372.426 82.4908 372.159 80.2554C371.892 78.0199 372.396 75.7603 373.59 73.8513C375.39 71.1113 378.65 69.3913 384.59 71.7913C384.59 71.7913 349.37 35.5913 301.97 28.0213C254.57 20.4513 225.32 22.1013 225.32 22.1013L225.26 22.0013Z" fill="#003049"/>
<path d="M223.81 38.8116L233.54 5.35156C233.54 5.35156 261.67 18.8416 277.79 24.0816L274 58.1516C274 58.1516 241.56 52.6816 223.8 38.8116H223.81Z" fill="#FFD200"/>
<path opacity="0.38" d="M223.81 38.8116L233.54 5.35156C233.54 5.35156 261.67 18.8416 277.79 24.0816L274 58.1516C274 58.1516 241.56 52.6816 223.8 38.8116H223.81Z" fill="white"/>
<path d="M233.54 5.35085C246.334 2.91314 259.259 1.2236 272.25 0.290854C283.046 -0.409486 293.887 0.0329709 304.59 1.61085L330.59 15.8709C330.59 15.8709 300.81 21.8709 277.81 24.0809C277.81 24.0809 248.54 15.7909 233.56 5.35085H233.54Z" fill="#FFD200"/>
<path d="M330.56 15.8613L329.44 43.5013C329.44 43.5013 311.93 56.1413 274 58.1513L277.78 24.0813L330.56 15.8713V15.8613Z" fill="#FFD200"/>
<path opacity="0.05" d="M330.56 15.8613L329.44 43.5013C329.44 43.5013 311.93 56.1413 274 58.1513L277.78 24.0813L330.56 15.8713V15.8613Z" fill="#000001"/>
<path d="M223 154.5C223 154.5 245.7 159.5 255.48 163.95C255.48 163.95 246.01 170.85 246.48 181.46C246.95 192.07 255.95 205.65 238.75 211.08C221.55 216.51 233.3 188.16 223 190.61C212.7 193.06 221.81 232.06 204.28 229.35C186.75 226.64 185.28 207.35 197.12 187.63C208.96 167.91 221.45 169.75 223 154.5Z" fill="#003049"/>
<path d="M270.08 256.361C270.08 256.361 292.64 252.991 297.08 258.451C298.73 260.451 300.28 265.451 301.58 270.821C303.89 280.441 309.64 289.091 318.14 294.141C321.99 296.431 329.14 300.691 319.05 305.381C303.83 312.431 305.71 308.241 291.4 308.841C266.1 309.901 245.21 308.001 257.81 286.201C257.81 286.201 274.86 289.541 282.51 289.561C290.16 289.581 292.28 261.061 270.07 256.361H270.08Z" fill="#003049"/>
</g>
<defs>
<clipPath id="clip0_1211_9474">
<rect width="477.5" height="354.72" fill="white"/>
</clipPath>
</defs>
</svg>
