<svg width="450" height="450" viewBox="0 0 450 450" fill="none" xmlns="http://www.w3.org/2000/svg">
<g clip-path="url(#clip0_1211_9617)">
<path d="M224.67 449.34C348.752 449.34 449.34 348.752 449.34 224.67C449.34 100.588 348.752 0 224.67 0C100.588 0 0 100.588 0 224.67C0 348.752 100.588 449.34 224.67 449.34Z" fill="#E6E6E6"/>
<path opacity="0.04" d="M224.67 384.49C312.936 384.49 384.49 312.936 384.49 224.67C384.49 136.403 312.936 64.8496 224.67 64.8496C136.403 64.8496 64.8496 136.403 64.8496 224.67C64.8496 312.936 136.403 384.49 224.67 384.49Z" fill="#000001"/>
<path d="M315.56 201.219C311.594 204.288 308.316 208.155 305.937 212.57C303.558 216.984 302.132 221.849 301.75 226.849C300.14 246.129 292.62 285.769 258.25 296.849C212.3 311.659 165.32 319.849 175.02 341.269C184.72 362.689 223.53 356.079 268.46 336.669C313.39 317.259 333.97 285.249 338.46 242.099C342.15 206.229 332.33 188.509 315.61 201.209L315.56 201.219Z" fill="#003049"/>
<path opacity="0.05" d="M204.77 313.221C208.068 314.776 210.932 317.121 213.107 320.048C215.282 322.975 216.702 326.394 217.24 330.001C217.24 330.001 223.37 321.761 211 311.141L204.76 313.211L204.77 313.221Z" fill="#000001"/>
<path opacity="0.05" d="M236.9 303.36L243.9 301.27C243.9 301.27 254.07 309.01 248.31 322.86C248.34 322.86 247.75 305.43 236.9 303.36Z" fill="#000001"/>
<path opacity="0.05" d="M268.64 292.209C268.64 292.209 281.35 292.899 280.58 312.059C280.58 312.059 291.65 297.399 274.63 288.119L268.64 292.209Z" fill="#000001"/>
<path opacity="0.05" d="M289.8 269.809C289.8 269.809 301.19 267.469 305.26 282.929C305.26 282.929 308.74 265.989 292.18 265.119L289.79 269.809H289.8Z" fill="#000001"/>
<path opacity="0.05" d="M300.39 237.75L299.23 243.81C299.23 243.81 313.64 243 316 254.17C316 254.17 317.41 241.52 300.39 237.76V237.75Z" fill="#000001"/>
<path d="M355.23 249.56C351.197 252.542 347.834 256.336 345.358 260.697C342.881 265.058 341.345 269.889 340.85 274.88C338.85 294.12 330.42 333.58 295.85 343.88C249.58 357.67 202.43 364.79 211.66 386.45C220.89 408.11 259.83 402.33 305.18 383.93C350.53 365.53 371.81 333.93 377.18 290.93C381.67 255.15 372.24 237.22 355.24 249.55L355.23 249.56Z" fill="#003049"/>
<path opacity="0.05" d="M242 359.09C245.264 360.72 248.077 363.129 250.187 366.105C252.298 369.08 253.642 372.531 254.1 376.15C254.1 376.15 260.41 368.04 248.28 357.15L242 359.08V359.09Z" fill="#000001"/>
<path opacity="0.05" d="M274.33 349.93L281.4 348C281.4 348 291.4 356 285.33 369.68C285.33 369.68 285.13 352.25 274.33 349.93Z" fill="#000001"/>
<path opacity="0.05" d="M306.31 339.489C306.31 339.489 319 340.489 317.8 359.599C317.8 359.599 329.19 345.189 312.38 335.529L306.31 339.529V339.489Z" fill="#000001"/>
<path opacity="0.05" d="M328 317.56C328 317.56 339.43 315.48 343.17 331.02C343.17 331.02 347.02 314.16 330.49 312.93L328 317.56Z" fill="#000001"/>
<path opacity="0.05" d="M339.25 285.74L337.96 291.74C337.96 291.74 352.39 291.25 354.5 302.47C354.5 302.5 356.19 289.89 339.25 285.74Z" fill="#000001"/>
<path d="M72.8996 120.729C72.8996 120.729 41.5796 144.639 58.6696 181.649C75.7596 218.659 72.3396 213.909 76.3196 238.779C80.2996 263.649 122.11 259.85 141.32 236.41C160.53 212.969 185.32 241.509 204.84 203.329C224.36 165.149 195.84 163.159 189.03 138.529C182.22 113.899 179.03 85.4295 141.32 92.8295C103.61 100.229 72.8696 120.729 72.8696 120.729H72.8996Z" fill="white"/>
<path d="M128.7 203.329C148.196 203.329 164 188.823 164 170.929C164 153.035 148.196 138.529 128.7 138.529C109.205 138.529 93.4004 153.035 93.4004 170.929C93.4004 188.823 109.205 203.329 128.7 203.329Z" fill="#FFD200"/>
<path d="M211.44 99.0001C215.18 111.581 216.803 124.697 216.24 137.81C215.68 152.81 219.07 170.31 237.77 170.96C270.77 172.1 285.83 155.42 304.07 162.72C322.31 170.02 355.66 162.72 357.22 133.02C358.78 103.32 351.89 85.6001 327.72 75.1801C303.55 64.7601 299.16 35.5801 269.83 35.5801C243.83 35.5801 198.57 56.5801 211.44 99.0101V99.0001Z" fill="white"/>
<path d="M368.92 197.119C368.92 197.119 355.12 201.309 354.54 215.729L359.04 217.199C359.04 217.199 357.44 205.579 368.92 201.039V197.119Z" fill="#EA8608"/>
<path opacity="0.68" d="M368.92 197.119C368.92 197.119 355.12 201.309 354.54 215.729L359.04 217.199C359.04 217.199 357.44 205.579 368.92 201.039V197.119Z" fill="white"/>
<path d="M277.38 139.44C293.562 139.44 306.68 127.401 306.68 112.55C306.68 97.6992 293.562 85.6602 277.38 85.6602C261.198 85.6602 248.08 97.6992 248.08 112.55C248.08 127.401 261.198 139.44 277.38 139.44Z" fill="#FFD200"/>
<path d="M365.33 199.669C365.33 199.669 361 175.429 376.94 170.999C385.67 168.559 380.18 186.709 380.18 186.709C380.18 186.709 400.97 172.909 402.18 186.889C403.39 200.869 382.27 201.319 382.27 201.319C382.27 201.319 407.27 201.319 399.03 213.719C395.9 218.439 374.08 221.819 365.33 199.669Z" fill="#EA8608"/>
<path d="M263.2 233.999C263.2 233.999 249.09 194.999 282.57 179.359C282.57 179.359 303.32 214.179 263.2 233.999Z" fill="#EA8608"/>
<path d="M272.6 249.299C272.6 249.299 233.09 236.809 241 200.699C241 200.699 281.27 205.409 272.6 249.299Z" fill="#EA8608"/>
<path d="M86.7797 294.261C86.7797 294.261 65.9197 289.001 65.1397 299.901C64.3597 310.801 77.9697 308.901 77.9697 308.901C77.9697 308.901 61.9997 314.151 67.2197 321.321C72.4397 328.491 81.1497 317.831 81.1497 317.831C81.1497 317.831 75.0497 333.231 84.8297 331.881C94.6097 330.531 93.5497 307.491 93.5497 307.491L86.7697 294.261H86.7797Z" fill="#003049"/>
<path opacity="0.05" d="M272.6 249.299C272.6 249.299 233.09 236.809 241 200.699C241 200.699 281.27 205.409 272.6 249.299Z" fill="#000001"/>
<path d="M88.7601 275.351C88.7601 275.351 70.1101 284.001 81.8701 305.871C93.6301 327.741 104.58 322.871 114.31 316.821C119.91 313.321 126.94 299.681 131.91 288.711C132.657 287.033 132.979 285.196 132.847 283.364C132.715 281.532 132.133 279.761 131.153 278.207C130.173 276.654 128.825 275.366 127.229 274.458C125.632 273.549 123.836 273.049 122 273.001C112.49 272.771 100.11 273.111 88.7301 275.401L88.7601 275.351Z" fill="#EA8608"/>
<path d="M128 309.359C128 309.359 108.17 317.679 114.06 326.839C119.95 335.999 129.74 326.379 129.74 326.379C129.74 326.379 120.12 340.109 128.57 342.739C137.02 345.369 137.63 331.599 137.63 331.599C137.63 331.599 141.98 347.599 149 340.599C156.02 333.599 141.36 315.849 141.36 315.849L128 309.359Z" fill="#003049"/>
<path opacity="0.05" d="M110.75 318.91C110.75 318.91 101.75 289.11 131.96 280.02C131.96 280.02 126.96 304.1 119.43 311.18C117.399 314.587 114.369 317.286 110.75 318.91Z" fill="#000001"/>
<path d="M118.28 293.051C118.28 293.051 108.52 311.131 131.06 321.611C153.6 332.091 159.45 321.611 163.59 310.921C165.97 304.761 163.42 289.621 160.83 277.871C160.432 276.073 159.595 274.403 158.394 273.007C157.194 271.611 155.667 270.535 153.949 269.872C152.232 269.21 150.377 268.983 148.55 269.211C146.724 269.439 144.982 270.116 143.48 271.181C135.73 276.701 126.02 284.391 118.28 293.041V293.051Z" fill="#EA8608"/>
<path d="M198.75 245.679C198.75 245.679 173.64 257.409 184.32 275.839C195 294.269 208.9 287.659 234.55 280.009C238.81 278.739 242.55 277.419 245.94 276.089C254.39 272.749 255.89 261.249 248.39 256.089C243.768 252.897 239.859 248.78 236.91 243.999C224.68 224.619 219.06 230.159 198.76 245.629L198.75 245.679Z" fill="#FFD200"/>
</g>
<defs>
<clipPath id="clip0_1211_9617">
<rect width="449.34" height="449.34" fill="white"/>
</clipPath>
</defs>
</svg>
