<svg width="424" height="431" viewBox="0 0 424 431" fill="none" xmlns="http://www.w3.org/2000/svg">
<g clip-path="url(#clip0_1211_9443)">
<path opacity="0.18" d="M419 197.141C404.6 137.391 375.53 98.8107 326.91 86.3407C259.63 69.0807 174.56 68.1507 109.46 85.5307C85.2297 92.0007 60.8697 104.071 43.9997 127.441C12.7297 170.761 4.29973 266.281 33.9997 314.111C47.2397 335.401 69.3597 343.371 90.1997 348.171C169.52 366.441 250.87 356.331 331.2 348.751C349.83 346.991 369.2 345.081 385.32 332.821C419.43 306.821 430.08 243.281 418.95 197.131L419 197.141Z" fill="#E6E6E6"/>
<path d="M417.11 411.461H6.15C2.75345 411.461 0 414.214 0 417.611V424.301C0 427.697 2.75345 430.451 6.15 430.451H417.11C420.507 430.451 423.26 427.697 423.26 424.301V417.611C423.26 414.214 420.507 411.461 417.11 411.461Z" fill="#E6E6E6"/>
<path d="M354.68 393.87V394.06C354.677 395.385 354.437 396.699 353.97 397.94C351.12 405.68 339.97 411.46 326.63 411.46C311.32 411.46 298.85 403.85 298.63 394.37C298.621 394.267 298.621 394.163 298.63 394.06C298.629 392.762 298.863 391.474 299.32 390.26C302.11 382.48 313.32 376.67 326.68 376.67C342.07 376.67 354.55 384.37 354.68 393.88V393.87Z" fill="#E6E6E6"/>
<path opacity="0.05" d="M354.68 393.87V394.06C354.677 395.385 354.436 396.699 353.97 397.94C347.41 399.32 340.53 400.43 333.86 399.79C327.71 399.19 321.43 395.22 312.97 393.65C308.192 392.782 303.279 393.025 298.61 394.36C298.6 394.257 298.6 394.153 298.61 394.05C298.608 392.752 298.842 391.464 299.3 390.25C302.417 389.516 305.621 389.22 308.82 389.37C312.159 389.513 315.462 390.126 318.63 391.19C322.19 392.39 325.57 394.1 329.2 395.09C336.79 397.17 344.89 395.84 352.45 394.34C353.2 394.19 353.96 394.03 354.71 393.86L354.68 393.87Z" fill="#000001"/>
<path d="M121.17 393.87V394.06C121.166 395.385 120.926 396.699 120.46 397.94C117.61 405.68 106.46 411.46 93.1197 411.46C77.8097 411.46 65.3397 403.85 65.1197 394.37C65.1098 394.267 65.1098 394.163 65.1197 394.06C65.1182 392.762 65.352 391.474 65.8097 390.26C68.5997 382.48 79.8097 376.67 93.1697 376.67C108.56 376.67 121.04 384.37 121.17 393.88V393.87Z" fill="#E6E6E6"/>
<path opacity="0.05" d="M121.17 393.87V394.06C121.167 395.385 120.926 396.699 120.46 397.94C113.9 399.32 107.02 400.43 100.35 399.79C94.2002 399.19 87.9202 395.22 79.4602 393.65C74.6824 392.782 69.7691 393.025 65.1002 394.36C65.0903 394.257 65.0903 394.153 65.1002 394.05C65.0987 392.752 65.3325 391.464 65.7902 390.25C68.9074 389.516 72.1114 389.22 75.3102 389.37C78.6494 389.513 81.9517 390.126 85.1202 391.19C88.6802 392.39 92.0602 394.1 95.6902 395.09C103.28 397.17 111.38 395.84 118.94 394.34C119.69 394.19 120.45 394.03 121.2 393.86L121.17 393.87Z" fill="#000001"/>
<path d="M402.52 405.571L402.42 405.741C401.752 406.888 400.881 407.905 399.85 408.741C393.49 413.991 380.94 413.351 369.43 406.641C356.2 398.921 349.27 386.071 353.84 377.751C353.877 377.656 353.924 377.566 353.98 377.481C354.637 376.361 355.487 375.365 356.49 374.541C362.82 369.231 375.41 369.841 386.97 376.541C400.26 384.301 407.16 397.241 402.52 405.541V405.571Z" fill="#E6E6E6"/>
<path opacity="0.05" d="M403.81 405.571L403.71 405.741C403.041 406.888 402.171 407.904 401.14 408.741C394.78 406.621 388.28 404.111 382.84 400.211C376.84 395.841 373.45 389.211 367.89 384.381C364.202 381.223 359.835 378.958 355.13 377.761C355.166 377.666 355.213 377.575 355.27 377.491C355.926 376.37 356.776 375.375 357.78 374.551C360.841 375.476 363.759 376.823 366.45 378.551C369.26 380.371 371.801 382.576 374 385.101C376.46 387.931 378.53 391.101 381.17 393.801C386.68 399.421 394.35 402.351 401.62 404.871C402.34 405.111 403.08 405.371 403.81 405.591V405.571Z" fill="#000001"/>
<path opacity="0.3" d="M169.28 129.8C162.5 133.01 153.77 132.34 149.37 125.53C144.97 118.72 146.27 106.35 151.73 100.68C154.41 97.9003 158.42 96.9103 162.24 96.4403C168.82 95.6203 175.52 95.9503 182.05 94.8403C188.58 93.7303 195.25 90.8403 198.83 85.2803C205.62 74.7203 185.83 75.2203 180.54 74.5903C170.01 73.3403 158.84 71.9903 150.16 65.3303C146.59 62.5903 143.43 58.0203 145.1 53.8403C146.77 49.6603 151.79 48.5903 156.1 47.5503C162.888 45.9002 169.391 43.2406 175.39 39.6603C176.64 38.9103 178.01 37.8403 177.92 36.3903C177.83 34.9403 176.55 34.2003 175.4 33.5503C168.313 29.5756 160.799 26.4187 153 24.1403C147.72 22.5903 142.2 21.4003 137.58 18.4103C135.21 16.8703 132.99 14.5803 132.84 11.7603C132.58 6.53035 138.95 3.85035 144.11 2.92035C153.481 1.21876 162.969 0.242536 172.49 0.000345226C184.14 -0.279655 196.27 0.680345 206.44 6.37035C211.21 9.03034 215.86 13.9303 214.58 19.2303C213.11 25.2903 204.49 28.8203 205.58 34.9703C223.442 37.4671 240.958 42.0138 257.78 48.5203C263.44 50.7103 272.25 53.2603 272.78 60.0603C273.23 66.3203 267.87 72.6503 262.91 75.7003C256.57 79.6003 248.91 80.7003 241.5 81.2503C238.75 81.4703 235.91 81.6603 233.5 82.9603C231.09 84.2603 229.15 86.9603 229.74 89.6803C230.59 93.5603 235.86 95.2903 236.51 99.2003C237.05 102.44 234.09 105.2 231.21 106.74C220.21 112.74 206.88 111.74 194.35 111.09C190.35 110.87 185.98 110.8 182.85 113.28C179.72 115.76 178.85 119.88 176.8 123.28C175.021 126.135 172.44 128.403 169.38 129.8H169.28Z" fill="#A5A5A5"/>
<path d="M309.9 179.9L306 216.53L304.7 228.74L291.8 349.75L285.2 411.73H153.68L147.08 349.75L142.93 310.87L134.18 228.74L128.98 179.9H309.9Z" fill="#EA8608"/>
<path opacity="0.3" d="M134.18 228.75L147.08 349.76H291.8L304.7 228.75H134.18Z" fill="white"/>
<path d="M219.44 325.84C236.423 325.84 250.19 312.073 250.19 295.09C250.19 278.107 236.423 264.34 219.44 264.34C202.458 264.34 188.69 278.107 188.69 295.09C188.69 312.073 202.458 325.84 219.44 325.84Z" fill="#FFD200"/>
<path opacity="0.1" d="M309.9 179.9L306 216.53C268.76 223.39 232.08 234.71 200.09 254.82C177.36 269.1 157.17 288.27 142.93 310.87L134.17 228.74L129 179.9H309.9Z" fill="#000001"/>
<path d="M319.43 168.721C319.386 167.357 318.814 166.064 317.834 165.114C316.855 164.165 315.545 163.633 314.18 163.631H308L303 138.901H215.5L190.82 118.731C188.231 116.619 184.992 115.464 181.65 115.461H152.35C148.999 115.461 145.751 116.623 143.16 118.749C140.569 120.875 138.795 123.834 138.14 127.121L130.87 163.631H124.65C123.284 163.628 121.971 164.158 120.991 165.109C120.01 166.06 119.439 167.356 119.4 168.721L119.05 181.001C119.029 181.704 119.149 182.405 119.403 183.061C119.657 183.717 120.04 184.315 120.53 184.821C121.019 185.326 121.605 185.728 122.253 186.003C122.9 186.278 123.597 186.42 124.3 186.421H314.54C315.244 186.421 315.941 186.28 316.589 186.006C317.238 185.731 317.824 185.329 318.314 184.824C318.804 184.318 319.187 183.719 319.441 183.062C319.694 182.406 319.813 181.705 319.79 181.001L319.4 168.741L319.43 168.721Z" fill="#003049"/>
</g>
<defs>
<clipPath id="clip0_1211_9443">
<rect width="423.27" height="430.45" fill="white"/>
</clipPath>
</defs>
</svg>
