<svg width="475" height="314" viewBox="0 0 475 314" fill="none" xmlns="http://www.w3.org/2000/svg">
<g clip-path="url(#clip0_1211_9503)">
<path d="M237.07 313.38C368 313.38 474.14 267.072 474.14 209.95C474.14 152.827 368 106.52 237.07 106.52C106.14 106.52 0 152.827 0 209.95C0 267.072 106.14 313.38 237.07 313.38Z" fill="#A5A5A5"/>
<path d="M237.07 302.78C368 302.78 474.14 256.473 474.14 199.35C474.14 142.227 368 95.9199 237.07 95.9199C106.14 95.9199 0 142.227 0 199.35C0 256.473 106.14 302.78 237.07 302.78Z" fill="#E6E6E6"/>
<path opacity="0.05" d="M237.07 265.179C337.889 265.179 419.62 231.569 419.62 190.109C419.62 148.649 337.889 115.039 237.07 115.039C136.25 115.039 54.5195 148.649 54.5195 190.109C54.5195 231.569 136.25 265.179 237.07 265.179Z" fill="#000001"/>
<path d="M164.18 120.12C164.18 120.12 154.09 101.29 175.89 87.1897C197.69 73.0897 159.37 64.0296 175.89 34.5597C192.41 5.08965 207.89 -4.87035 231.1 23.1497C254.31 51.1697 268.36 49.7797 289.69 19.4997C311.02 -10.7803 347.28 -4.25035 353.33 28.3697C359.38 60.9897 389.6 58.5896 399.42 23.1497C409.24 -12.2903 490.08 25.7996 458.35 71.3496C426.62 116.9 391.11 81.0497 393.35 106.15C395.59 131.25 389.76 145.04 362.09 158.54C334.42 172.04 330.19 204.37 330.19 204.37L164.19 120.1L164.18 120.12Z" fill="#EA8608"/>
<path d="M203.36 129C203.36 129 209.54 118.44 223.76 122.3C237.98 126.16 238.99 126.77 244.48 117.63C249.97 108.49 261.14 104.43 267.48 113.77C273.82 123.11 283.73 98.7703 302.62 109.71C321.51 120.65 339.41 145.13 300.9 158.29C262.39 171.45 187.9 175.52 203.41 129H203.36Z" fill="#EA8608"/>
<path opacity="0.05" d="M203.36 129C203.36 129 209.54 118.44 223.76 122.3C237.98 126.16 238.99 126.77 244.48 117.63C249.97 108.49 261.14 104.43 267.48 113.77C273.82 123.11 283.73 98.7703 302.62 109.71C321.51 120.65 339.41 145.13 300.9 158.29C262.39 171.45 187.9 175.52 203.41 129H203.36Z" fill="#000001"/>
<path d="M188.67 135.86C188.67 135.86 228.12 94.2699 243 73.2999C244.51 71.1358 245.44 68.6204 245.701 65.9943C245.962 63.3681 245.545 60.7189 244.49 58.2999C241.98 52.3899 240.29 44.1499 248.03 40.7199C257.56 36.4999 264.38 43.3599 267.43 52.0399C268.356 54.5027 269.93 56.6697 271.986 58.3119C274.042 59.9541 276.503 61.0107 279.11 61.3699C286.11 62.4799 293.97 65.8599 292.82 75.6199C292.02 82.3699 281.52 81.7199 273.82 80.3199C271.163 79.837 268.429 80.0011 265.85 80.7983C263.27 81.5956 260.92 83.0024 259 84.8999C244 99.5799 209.05 136.12 205.52 160.49L188.64 135.87L188.67 135.86Z" fill="#EA8608"/>
<path opacity="0.36" d="M188.67 135.86C188.67 135.86 228.12 94.2699 243 73.2999C244.51 71.1358 245.44 68.6204 245.701 65.9943C245.962 63.3681 245.545 60.7189 244.49 58.2999C241.98 52.3899 240.29 44.1499 248.03 40.7199C257.56 36.4999 264.38 43.3599 267.43 52.0399C268.356 54.5027 269.93 56.6697 271.986 58.3119C274.042 59.9541 276.503 61.0107 279.11 61.3699C286.11 62.4799 293.97 65.8599 292.82 75.6199C292.02 82.3699 281.52 81.7199 273.82 80.3199C271.163 79.837 268.429 80.0011 265.85 80.7983C263.27 81.5956 260.92 83.0024 259 84.8999C244 99.5799 209.05 136.12 205.52 160.49L188.64 135.87L188.67 135.86Z" fill="white"/>
<path d="M67.0498 110.279L75.5998 177.999C75.9605 180.811 77.0186 183.488 78.6778 185.786C80.337 188.085 82.5447 189.932 85.0998 191.159C97.6198 197.159 123.4 204.979 158.35 192.069C161.261 190.977 163.812 189.099 165.718 186.643C167.625 184.187 168.813 181.25 169.15 178.159L176.87 110.299L67.0498 110.279Z" fill="#003049"/>
<path d="M121.96 128.339C152.286 128.339 176.87 120.253 176.87 110.279C176.87 100.304 152.286 92.2188 121.96 92.2188C91.6338 92.2188 67.0498 100.304 67.0498 110.279C67.0498 120.253 91.6338 128.339 121.96 128.339Z" fill="#FFD200"/>
<path d="M261.56 167.221C261.56 167.221 258.66 149.341 277.03 141.601C295.4 133.861 280.41 115.981 291.53 109.221C302.65 102.461 310.86 108.631 315.21 85.0006C319.56 61.3706 334.06 60.8906 334.06 60.8906C334.06 60.8906 369.34 73.0006 407 70.0706C407 70.0706 391.53 82.2306 376.07 85.3306C360.61 88.4306 355.29 92.3306 355.29 92.3306L339.34 90.8806L340.79 103.421C340.79 103.421 329.12 122.731 340.42 125.731C351.72 128.731 345.62 149.611 362.54 147.801C379.46 145.991 423 202.501 359.2 216.521C295.4 230.541 253.84 227.151 261.57 167.221H261.56Z" fill="#EA8608"/>
<path opacity="0.05" d="M268.64 163.549C268.64 163.549 276.9 169.249 290.11 165.139C303.32 161.029 311.54 159.139 317.11 166.629C322.68 174.119 330.11 169.489 337.89 167.799C345.67 166.109 364.17 188.729 374.17 211.659C374.17 211.659 364.7 215.069 355.64 217.289C346.58 219.509 270.44 213.679 268.64 163.549Z" fill="#000001"/>
<path opacity="0.28" d="M121.96 128.339C152.286 128.339 176.87 120.253 176.87 110.279C176.87 100.304 152.286 92.2188 121.96 92.2188C91.6338 92.2188 67.0498 100.304 67.0498 110.279C67.0498 120.253 91.6338 128.339 121.96 128.339Z" fill="#000001"/>
<path d="M163 134.179C163 134.179 139.74 132.679 126.23 152.939C112.72 173.199 96.23 202.469 126.23 227.939C156.23 253.409 175.01 231.689 200.52 201.679C226.03 171.669 213.28 155.149 222.28 126.679C222.28 126.679 208.4 128.929 206.52 115.049C206.52 115.049 193.01 132.679 163 134.189V134.179Z" fill="#EA8608"/>
<path d="M180.34 182.401C186.799 178.299 192.635 173.291 197.67 167.531C205.15 159.061 218.89 148.221 239 150.631C271.18 154.501 272.15 177.211 286.16 167.551C300.17 157.891 303.08 165.841 307.91 176.841C312.74 187.841 323.38 177.211 331.59 190.751C339.8 204.291 374.12 219.751 344.16 231.351C319.11 241.051 219.1 255.471 169.16 244.421C165.763 243.661 162.583 242.136 159.866 239.96C157.148 237.784 154.964 235.015 153.48 231.866C151.996 228.716 151.251 225.27 151.303 221.788C151.355 218.307 152.203 214.884 153.78 211.781C159.755 199.728 168.948 189.564 180.34 182.411V182.401Z" fill="#EA8608"/>
<path opacity="0.05" d="M124.66 226.63C124.66 226.63 135.25 171.79 205.55 160.49C205.55 160.49 195.93 228.12 154.21 239.24C154.21 239.24 142.63 242.53 124.66 226.63Z" fill="#000001"/>
<path d="M82.2697 122.75C82.2697 122.75 71.0497 96 92.3197 89.27C113.59 82.54 145 84 129.05 55C129.05 55 187.5 77.13 162.39 122.8C162.39 122.8 125.87 136.47 82.2697 122.8V122.75Z" fill="#FFD200"/>
<path d="M208.11 160.49C208.11 160.49 229.62 154.75 237.83 166.83C246.04 178.91 258.83 172.39 263.2 181.83C267.57 191.27 258.13 196.09 266.82 202.61C275.51 209.13 312.65 229.44 284.3 243.61C255.95 257.78 148.65 257.21 149.37 229.9C150.09 202.59 153.72 184.12 208.09 160.49H208.11Z" fill="#EA8608"/>
<path opacity="0.68" d="M208.11 160.49C208.11 160.49 229.62 154.75 237.83 166.83C246.04 178.91 258.83 172.39 263.2 181.83C267.57 191.27 258.13 196.09 266.82 202.61C275.51 209.13 312.65 229.44 284.3 243.61C255.95 257.78 148.65 257.21 149.37 229.9C150.09 202.59 153.72 184.12 208.09 160.49H208.11Z" fill="white"/>
<path opacity="0.26" d="M209.05 173.549C209.05 173.549 225.14 169.249 231.29 178.289C237.44 187.329 247.02 182.449 250.29 189.499C253.56 196.549 246.49 200.169 253 205.049C259.51 209.929 287.29 225.129 266.08 235.699C244.87 246.269 164.58 245.909 165.13 225.479C165.68 205.049 168.38 191.219 209.07 173.549H209.05Z" fill="white"/>
</g>
<defs>
<clipPath id="clip0_1211_9503">
<rect width="474.14" height="313.38" fill="white"/>
</clipPath>
</defs>
</svg>
