<svg width="449" height="450" viewBox="0 0 449 450" fill="none" xmlns="http://www.w3.org/2000/svg">
<g clip-path="url(#clip0_1211_9682)">
<path opacity="0.18" d="M443.57 199.579C427.73 118.789 395.77 66.6393 342.31 49.7793C268.31 26.4493 174.79 25.1793 103.2 48.6893C76.5296 57.4493 49.7496 73.7493 31.1996 105.359C-3.18043 163.929 -12.4604 293.069 20.2496 357.749C34.8096 386.539 59.1296 397.309 82.0496 403.799C169.26 428.499 258.72 414.799 347.05 404.579C367.54 402.199 388.88 399.579 406.56 383.039C444.07 347.879 455.77 262.039 443.56 199.589L443.57 199.579Z" fill="#E6E6E6"/>
<path d="M120.165 60.112L105.903 72.9668L193.343 169.976L207.604 157.121L120.165 60.112Z" fill="#E6E6E6"/>
<path d="M124.279 64.6797L131.359 72.5297L108.719 76.0797L105.899 72.9497L113.129 66.4297L124.279 64.6797Z" fill="#A5A5A5"/>
<path d="M144.95 87.61L122.31 91.16L115.22 83.3L137.86 79.75L144.95 87.61Z" fill="#A5A5A5"/>
<path d="M158.54 102.68L135.9 106.24L128.81 98.3803L151.45 94.8203L158.54 102.68Z" fill="#A5A5A5"/>
<path d="M172.129 117.76L149.489 121.31L142.399 113.45L165.039 109.9L172.129 117.76Z" fill="#A5A5A5"/>
<path d="M185.719 132.831L163.079 136.381L155.989 128.521L178.629 124.971L185.719 132.831Z" fill="#A5A5A5"/>
<path d="M199.299 147.899L176.659 151.459L169.579 143.599L192.219 140.039L199.299 147.899Z" fill="#A5A5A5"/>
<path d="M205.81 155.119L207.6 157.099L198.59 165.229L190.26 166.539L183.17 158.669L205.81 155.119Z" fill="#A5A5A5"/>
<path d="M89.805 109.047L81.1123 126.166L197.56 185.295L206.253 168.175L89.805 109.047Z" fill="#E6E6E6"/>
<path d="M95.2896 111.84L104.72 116.63L84.8596 128.08L81.0996 126.17L85.5196 117.48L95.2896 111.84Z" fill="#A5A5A5"/>
<path d="M122.819 125.819L102.959 137.269L93.5293 132.469L113.379 121.029L122.819 125.819Z" fill="#A5A5A5"/>
<path d="M140.909 135.011L121.059 146.451L111.619 141.661L131.479 130.211L140.909 135.011Z" fill="#A5A5A5"/>
<path d="M159.01 144.19L139.15 155.64L129.72 150.85L149.57 139.4L159.01 144.19Z" fill="#A5A5A5"/>
<path d="M177.099 153.38L157.249 164.83L147.819 160.04L167.669 148.59L177.099 153.38Z" fill="#A5A5A5"/>
<path d="M195.199 162.569L175.349 174.019L165.909 169.229L185.759 157.779L195.199 162.569Z" fill="#A5A5A5"/>
<path d="M203.86 166.971L206.25 168.171L200.75 179.001L193.45 183.211L184 178.411L203.86 166.971Z" fill="#A5A5A5"/>
<path d="M238.859 49.08C238.859 49.08 236.709 28 246.239 0L253.799 2C253.799 2 240.309 29.2 241.289 49.73L238.859 49.08Z" fill="#003049"/>
<path d="M235.58 208.471C274.284 208.471 305.66 177.095 305.66 138.391C305.66 99.6864 274.284 68.3105 235.58 68.3105C196.876 68.3105 165.5 99.6864 165.5 138.391C165.5 177.095 196.876 208.471 235.58 208.471Z" fill="#EA8608"/>
<path d="M178.09 278.551C216.794 278.551 248.17 247.175 248.17 208.471C248.17 169.767 216.794 138.391 178.09 138.391C139.386 138.391 108.01 169.767 108.01 208.471C108.01 247.175 139.386 278.551 178.09 278.551Z" fill="#EA8608"/>
<path opacity="0.1" d="M178.09 278.551C216.794 278.551 248.17 247.175 248.17 208.471C248.17 169.767 216.794 138.391 178.09 138.391C139.386 138.391 108.01 169.767 108.01 208.471C108.01 247.175 139.386 278.551 178.09 278.551Z" fill="#000001"/>
<path d="M296.21 278.551C334.914 278.551 366.29 247.175 366.29 208.471C366.29 169.767 334.914 138.391 296.21 138.391C257.506 138.391 226.13 169.767 226.13 208.471C226.13 247.175 257.506 278.551 296.21 278.551Z" fill="#EA8608"/>
<path opacity="0.3" d="M296.21 278.551C334.914 278.551 366.29 247.175 366.29 208.471C366.29 169.767 334.914 138.391 296.21 138.391C257.506 138.391 226.13 169.767 226.13 208.471C226.13 247.175 257.506 278.551 296.21 278.551Z" fill="white"/>
<path d="M244.5 341.24V413.24L310.4 449.4H154.59L220.51 417V341.3C187.01 338.304 155.846 322.876 133.152 298.054C110.458 273.231 97.8784 240.813 97.8897 207.18H367.13C367.144 240.809 354.565 273.224 331.869 298.039C309.173 322.854 278.006 338.27 244.51 341.25L244.5 341.24Z" fill="#E6E6E6"/>
<path d="M240.509 42.1093C237.619 39.2693 233.509 38.0293 229.509 37.5593C223.779 36.8993 217.439 37.8593 213.389 41.9593C209.339 46.0593 208.389 52.5893 208.849 58.4593C209.309 64.9993 211.149 71.6593 215.399 76.6493C219.649 81.6393 226.649 84.6493 232.959 82.8193C233.634 82.5699 234.341 82.4216 235.059 82.3793C236.001 82.4743 236.91 82.7784 237.719 83.2693C243.779 86.2093 251.149 87.0993 257.249 84.2693C261.979 82.0393 265.529 77.7393 267.639 72.9593C271.399 64.4293 273.849 48.2193 266.389 40.7493C263.719 38.0793 259.979 37.4793 256.389 37.3193C253.62 37.1475 250.842 37.421 248.159 38.1293C247.449 38.3293 240.159 41.7693 240.559 42.1293L240.509 42.1093Z" fill="#FFD200"/>
<path opacity="0.1" d="M293.18 172.13C292.72 171.22 292.28 170.31 291.86 169.39C291.65 168.93 291.43 168.47 291.25 168L291.12 167.68C291.02 167.45 290.93 167.21 290.84 166.97C290.08 165.05 289.42 163.09 288.84 161.11C288.638 160.376 288.153 159.751 287.491 159.374C286.829 158.997 286.044 158.899 285.31 159.1C284.575 159.302 283.951 159.787 283.574 160.449C283.197 161.111 283.098 161.896 283.3 162.63C284.556 166.896 286.203 171.037 288.22 175C288.612 175.65 289.245 176.118 289.98 176.305C290.715 176.493 291.494 176.383 292.15 176C292.789 175.599 293.249 174.967 293.436 174.235C293.622 173.504 293.519 172.729 293.15 172.07L293.18 172.13Z" fill="#000001"/>
<path opacity="0.1" d="M235.429 126.289H229.559C228.798 126.289 228.068 126.591 227.53 127.13C226.992 127.668 226.689 128.398 226.689 129.159C226.702 129.916 227.009 130.639 227.544 131.174C228.08 131.71 228.802 132.016 229.559 132.029H235.429C235.806 132.029 236.18 131.955 236.528 131.811C236.876 131.666 237.192 131.455 237.459 131.188C237.725 130.922 237.937 130.606 238.081 130.257C238.225 129.909 238.299 129.536 238.299 129.159C238.287 128.402 237.98 127.679 237.445 127.144C236.909 126.608 236.187 126.302 235.429 126.289Z" fill="#000001"/>
<path opacity="0.1" d="M195.869 107.791C195.47 107.391 194.961 107.118 194.407 107.006C193.853 106.894 193.278 106.948 192.754 107.162C192.231 107.376 191.782 107.739 191.465 108.207C191.147 108.674 190.975 109.225 190.969 109.791C190.759 112.621 190.539 115.441 190.329 118.271C190.329 119.032 190.631 119.762 191.17 120.3C191.708 120.838 192.438 121.141 193.199 121.141C193.96 121.141 194.69 120.838 195.229 120.3C195.767 119.762 196.069 119.032 196.069 118.271C196.279 115.441 196.499 112.621 196.709 109.791C196.697 109.041 196.396 108.324 195.869 107.791Z" fill="#000001"/>
<path opacity="0.1" d="M332.56 169.589C332.356 168.868 331.883 168.253 331.24 167.869C330.91 167.673 330.544 167.546 330.164 167.497C329.784 167.447 329.398 167.475 329.03 167.579C325.895 168.773 323.019 170.559 320.56 172.839C320.026 173.38 319.727 174.109 319.727 174.869C319.727 175.629 320.026 176.358 320.56 176.899C321.105 177.424 321.833 177.716 322.59 177.716C323.346 177.716 324.074 177.424 324.62 176.899C325.03 176.519 325.47 176.159 325.9 175.799C327.302 174.746 328.822 173.86 330.43 173.159H330.55C331.261 172.937 331.871 172.469 332.27 171.839C332.653 171.169 332.757 170.375 332.56 169.629V169.589Z" fill="#000001"/>
<path opacity="0.1" d="M310.999 191C310.795 190.279 310.323 189.664 309.679 189.28C309.01 188.941 308.245 188.839 307.509 188.99H307.829C304.606 189.413 301.346 189.477 298.109 189.18C297.348 189.18 296.618 189.483 296.08 190.021C295.542 190.559 295.239 191.289 295.239 192.05C295.257 192.806 295.565 193.525 296.1 194.06C296.634 194.594 297.354 194.902 298.109 194.92C301.734 195.224 305.382 195.106 308.979 194.57C309.704 194.374 310.322 193.9 310.699 193.25C310.896 192.914 311.024 192.542 311.075 192.155C311.127 191.769 311.101 191.376 310.999 191Z" fill="#000001"/>
<path opacity="0.1" d="M267.529 179.199L255.149 180.259C254.393 180.275 253.672 180.582 253.137 181.117C252.602 181.652 252.295 182.373 252.279 183.129C252.287 183.888 252.592 184.613 253.129 185.15C253.665 185.687 254.391 185.991 255.149 185.999L267.529 184.939C268.286 184.924 269.007 184.617 269.542 184.082C270.077 183.547 270.384 182.826 270.399 182.069C270.391 181.31 270.087 180.585 269.55 180.048C269.014 179.512 268.288 179.207 267.529 179.199Z" fill="#000001"/>
<path opacity="0.1" d="M274.6 125.609C274.217 124.965 273.601 124.492 272.88 124.289C272.132 124.128 271.351 124.231 270.67 124.579L261.21 128.799C260.561 129.177 260.087 129.795 259.89 130.519C259.687 131.252 259.784 132.036 260.159 132.698C260.534 133.36 261.157 133.846 261.89 134.049C262.638 134.21 263.419 134.108 264.1 133.759L273.56 129.539C274.208 129.161 274.683 128.543 274.88 127.819C275.08 127.074 274.979 126.28 274.6 125.609Z" fill="#000001"/>
<path opacity="0.1" d="M238.38 103.7C236.445 101.115 234.681 98.406 233.1 95.5905C232.715 94.9274 232.083 94.4443 231.343 94.2474C230.602 94.0505 229.813 94.1559 229.15 94.5405C228.487 94.925 228.004 95.5572 227.807 96.298C227.61 97.0388 227.715 97.8274 228.1 98.4905C229.677 101.309 231.441 104.018 233.38 106.6C233.778 107.231 234.388 107.699 235.1 107.92C235.833 108.123 236.617 108.026 237.279 107.651C237.941 107.276 238.427 106.654 238.63 105.92C238.743 105.553 238.779 105.166 238.736 104.784C238.693 104.403 238.572 104.034 238.38 103.7Z" fill="#000001"/>
<path opacity="0.1" d="M278.519 106.741C276.901 105.817 275.348 104.784 273.869 103.651C273.459 103.321 273.049 102.991 272.649 102.651C272.107 102.137 271.396 101.838 270.649 101.811C269.888 101.811 269.158 102.113 268.62 102.651C268.082 103.189 267.779 103.919 267.779 104.681C267.781 105.053 267.856 105.421 268 105.764C268.144 106.107 268.355 106.419 268.619 106.681C270.792 108.562 273.135 110.236 275.619 111.681C276.291 112.057 277.083 112.161 277.829 111.971C278.375 111.822 278.865 111.515 279.238 111.089C279.61 110.663 279.848 110.136 279.921 109.575C279.995 109.014 279.901 108.444 279.652 107.936C279.402 107.428 279.008 107.005 278.519 106.721V106.741Z" fill="#000001"/>
<path opacity="0.1" d="M193 154.87C192.785 154.144 192.297 153.53 191.639 153.157C190.98 152.784 190.202 152.681 189.47 152.87L180.69 155.24C179.955 155.442 179.33 155.927 178.953 156.589C178.576 157.251 178.478 158.035 178.68 158.77C178.881 159.505 179.366 160.129 180.028 160.506C180.69 160.883 181.475 160.982 182.21 160.78L191 158.4C191.727 158.188 192.343 157.7 192.716 157.041C193.09 156.382 193.191 155.603 193 154.87Z" fill="#000001"/>
<path opacity="0.1" d="M209.5 183.481C208.129 181.159 206.909 178.75 205.85 176.271L205.66 175.811C205.438 175.099 204.97 174.489 204.34 174.091C203.67 173.708 202.876 173.604 202.13 173.801C201.407 174.001 200.79 174.474 200.41 175.121C200.211 175.449 200.083 175.815 200.033 176.195C199.983 176.576 200.013 176.962 200.12 177.331C201.364 180.438 202.842 183.446 204.54 186.331C204.73 186.659 204.983 186.947 205.285 187.177C205.586 187.407 205.93 187.576 206.297 187.674C206.664 187.771 207.046 187.796 207.422 187.745C207.799 187.695 208.161 187.571 208.49 187.381C208.818 187.19 209.105 186.937 209.336 186.635C209.566 186.334 209.735 185.99 209.833 185.623C209.93 185.256 209.954 184.874 209.904 184.498C209.854 184.122 209.73 183.759 209.54 183.431L209.5 183.481Z" fill="#000001"/>
<path opacity="0.1" d="M186.839 183.55C186.625 182.824 186.137 182.21 185.478 181.836C184.82 181.463 184.042 181.361 183.309 181.55L172.569 184.55C172.206 184.649 171.865 184.82 171.567 185.051C171.269 185.283 171.02 185.571 170.833 185.898C170.647 186.226 170.526 186.588 170.479 186.962C170.432 187.336 170.46 187.716 170.559 188.08C170.659 188.443 170.83 188.784 171.061 189.082C171.293 189.38 171.58 189.629 171.908 189.816C172.236 190.002 172.597 190.123 172.972 190.17C173.346 190.217 173.726 190.189 174.089 190.09L184.829 187.09C185.562 186.882 186.184 186.394 186.56 185.732C186.936 185.069 187.036 184.285 186.839 183.55Z" fill="#000001"/>
<path opacity="0.1" d="M158.15 168.51C155.919 167.089 153.484 166.017 150.93 165.33C150.197 165.128 149.413 165.224 148.751 165.6C148.089 165.975 147.603 166.597 147.4 167.33C147.3 167.699 147.274 168.085 147.323 168.464C147.373 168.844 147.498 169.209 147.69 169.54C148.079 170.179 148.692 170.65 149.41 170.86C150.338 171.116 151.249 171.427 152.14 171.79C153.221 172.267 154.264 172.826 155.26 173.46C155.916 173.84 156.694 173.948 157.429 173.761C158.163 173.574 158.796 173.107 159.19 172.46C159.56 171.802 159.662 171.027 159.476 170.295C159.29 169.564 158.829 168.932 158.19 168.53L158.15 168.51Z" fill="#000001"/>
<path opacity="0.1" d="M146.74 189.06C146.54 188.337 146.066 187.72 145.42 187.34C144.742 186.981 143.957 186.878 143.21 187.05L134.41 188.68C133.688 188.882 133.072 189.354 132.69 190C132.302 190.654 132.189 191.435 132.377 192.171C132.564 192.908 133.036 193.541 133.69 193.93C134.368 194.288 135.152 194.391 135.9 194.22L144.7 192.59C145.422 192.388 146.038 191.915 146.42 191.27C146.813 190.604 146.928 189.81 146.74 189.06Z" fill="#000001"/>
<path opacity="0.3" d="M350.18 188.22C349.965 187.494 349.478 186.879 348.819 186.506C348.161 186.133 347.383 186.03 346.65 186.22L338.85 188.57C338.132 188.78 337.519 189.251 337.13 189.89C336.84 190.382 336.705 190.95 336.74 191.521C336.775 192.091 336.98 192.638 337.328 193.091C337.676 193.545 338.151 193.884 338.693 194.065C339.235 194.247 339.819 194.262 340.37 194.11L348.17 191.76C348.888 191.549 349.501 191.079 349.89 190.44C350.276 189.767 350.38 188.969 350.18 188.22Z" fill="white"/>
<path opacity="0.08" d="M220.5 416.94V341.24C187.009 338.245 155.852 322.824 133.159 298.012C110.466 273.201 97.8811 240.794 97.8799 207.17H110.65C140.16 248.5 194 301.74 286.47 330.5C273.148 336.342 258.961 339.969 244.47 341.24V413.24L310.37 449.4H154.58L220.5 417V416.94Z" fill="#000001"/>
</g>
<defs>
<clipPath id="clip0_1211_9682">
<rect width="448.23" height="449.37" fill="white"/>
</clipPath>
</defs>
</svg>
