<svg width="459" height="439" viewBox="0 0 459 439" fill="none" xmlns="http://www.w3.org/2000/svg">
<g clip-path="url(#clip0_1211_9908)">
<path opacity="0.18" d="M352.25 78.0003C346.3 76.0003 340.46 74.0003 335 72.1203C312.45 64.1203 287.93 59.2503 265.39 55.5603C221.535 48.342 176.65 50.4787 133.68 61.8303C107.88 68.7203 82.2399 79.1603 61.3799 98.0003C30.7099 125.6 13.1999 168.91 4.99988 212.81C-1.46012 247.44 -2.67012 284.23 7.33988 317.72C17.3499 351.21 39.8299 380.89 69.2799 390.88C97.5399 400.47 127.65 391.44 156.53 384.73C191.107 376.664 226.386 371.976 261.87 370.73C292.17 369.68 322.69 371.14 352.62 365.54C382.55 359.94 412.53 346.39 432.71 320.3C454.41 292.23 462.27 252.04 457.47 214.84C451.62 169.54 430.63 121.47 395.57 97.5103C383.19 89.0503 367.34 83.1703 352.26 78.0203L352.25 78.0003Z" fill="#E6E6E6"/>
<path d="M304.311 41.4413L58.7744 103.344L132.8 396.966L378.337 335.064L304.311 41.4413Z" fill="#EA8608"/>
<path opacity="0.1" d="M220.97 334.73C279.484 334.73 326.92 287.295 326.92 228.78C326.92 170.266 279.484 122.83 220.97 122.83C162.455 122.83 115.02 170.266 115.02 228.78C115.02 287.295 162.455 334.73 220.97 334.73Z" fill="#000001"/>
<path d="M304.32 41.4501L58.7803 103.35L60.5603 55.4501L78.8903 70.4801L87.9303 48.4501L106.32 63.5601L115.39 41.5201L133.79 56.6401L142.85 34.6001L161.25 49.7201L170.28 27.6901L188.71 42.7901L197.74 20.7601L216.14 35.8801L225.2 13.8401L243.6 28.9601L252.67 6.92008L271.06 22.0301L280.08 0.0800781L304.32 41.4501Z" fill="#EA8608"/>
<path d="M378.34 335.08L132.8 396.98L157.07 438.31L166.1 416.39L184.49 431.5L193.52 409.47L211.95 424.58L220.99 402.55L239.42 417.66L248.45 395.63L266.85 410.74L275.91 388.7L294.31 403.82L303.34 381.79L321.77 396.9L330.8 374.87L349.23 389.97L358.26 367.94L376.61 383L378.34 335.08Z" fill="#EA8608"/>
<path opacity="0.3" d="M304.32 41.4501L58.7803 103.35L60.5603 55.4501L78.8903 70.4801L87.9303 48.4501L106.32 63.5601L115.39 41.5201L133.79 56.6401L142.85 34.6001L161.25 49.7201L170.28 27.6901L188.71 42.7901L197.74 20.7601L216.14 35.8801L225.2 13.8401L243.6 28.9601L252.67 6.92008L271.06 22.0301L280.08 0.0800781L304.32 41.4501Z" fill="white"/>
<path opacity="0.3" d="M378.34 335.08L132.8 396.98L157.07 438.31L166.1 416.39L184.49 431.5L193.52 409.47L211.95 424.58L220.99 402.55L239.42 417.66L248.45 395.63L266.85 410.74L275.91 388.7L294.31 403.82L303.34 381.79L321.77 396.9L330.8 374.87L349.23 389.97L358.26 367.94L376.61 383L378.34 335.08Z" fill="white"/>
<path d="M60.56 55.3398V55.4498L60.46 55.3698L60.56 55.3398Z" fill="#EA8608"/>
<path d="M280.09 0L280.08 0.08L280.03 0.02L280.09 0Z" fill="#EA8608"/>
<path d="M327.649 134.02L330.359 144.76L169.979 189.23L168.729 185.11L327.649 134.02Z" fill="#003049"/>
<path d="M200.62 256.301C197.78 250.641 199.47 246.561 201.38 241.111C202.053 239.232 202.202 237.205 201.811 235.248C201.42 233.291 200.503 231.477 199.16 230.001C195.86 226.101 189.98 224.681 187.16 220.521C184.34 216.361 189.67 211.301 190.8 207.161C191.89 203.161 191.57 198.731 189 195.401C186.23 191.801 180.67 191.951 178.51 188.051C176.35 184.151 178.11 179.531 180.05 175.631C177.177 176.786 174.367 178.091 171.63 179.541C170.11 185.851 170.63 192.351 177.02 196.171C178.95 197.331 181.83 197.561 183.4 199.261C185.71 201.761 184.32 205.731 183.02 208.341C180.85 212.701 178.02 216.551 180.02 221.631C182.02 226.881 187.18 229.081 191.43 232.131C194.91 234.631 195.9 236.951 194.16 240.891C193.161 243.019 192.512 245.295 192.24 247.631C191.18 258.791 199.24 267.581 208.19 272.911C211.96 275.171 215.46 269.311 211.69 267.061C207.24 264.401 203.04 261.061 200.69 256.361L200.62 256.301Z" fill="#FFD200"/>
<path d="M229.64 262.46C225.19 259.8 220.99 256.46 218.64 251.76C215.8 246.1 217.49 242.02 219.4 236.57C220.082 234.684 220.236 232.647 219.845 230.68C219.454 228.713 218.532 226.891 217.18 225.41C213.88 221.51 208 220.09 205.18 215.93C202.36 211.77 207.69 206.71 208.82 202.57C209.91 198.57 209.59 194.14 207.02 190.81C204.25 187.21 198.69 187.36 196.53 183.46C193.84 178.6 197.25 172.56 199.53 168.27C199.908 167.551 200.011 166.719 199.82 165.93C197.109 167.345 194.306 168.578 191.43 169.62C188.32 177.29 186.89 186.62 195.08 191.62C197.01 192.78 199.89 193.01 201.46 194.71C203.77 197.21 202.38 201.18 201.08 203.79C198.91 208.15 196.08 212 198.08 217.08C200.08 222.33 205.24 224.53 209.49 227.58C212.97 230.08 213.96 232.4 212.22 236.34C211.22 238.468 210.572 240.744 210.3 243.08C209.24 254.24 217.3 263.08 226.25 268.36C230.02 270.62 233.52 264.76 229.75 262.51L229.64 262.46Z" fill="#FFD200"/>
<path d="M247.64 257.921C243.19 255.261 238.99 251.921 236.64 247.221C233.8 241.561 235.49 237.481 237.4 232.031C238.083 230.145 238.237 228.109 237.845 226.142C237.454 224.175 236.532 222.352 235.18 220.871C231.88 216.971 226 215.551 223.18 211.391C220.36 207.231 225.69 202.171 226.82 198.031C227.91 194.031 227.59 189.601 225.02 186.271C222.25 182.671 216.69 182.821 214.53 178.921C211.84 174.061 215.25 168.021 217.53 163.731C219.53 159.861 213.72 156.341 211.68 160.231C207.37 168.301 203 181.001 213 187.001C214.93 188.161 217.81 188.391 219.38 190.091C221.69 192.591 220.3 196.561 219 199.171C216.83 203.531 214 207.381 216 212.461C218 217.711 223.16 219.911 227.41 222.961C230.89 225.461 231.88 227.781 230.14 231.721C229.14 233.849 228.492 236.125 228.22 238.461C227.16 249.621 235.22 258.411 244.17 263.741C247.94 266.001 251.44 260.141 247.67 257.891L247.64 257.921Z" fill="#FFD200"/>
<path d="M265.64 253.38C261.19 250.72 256.99 247.38 254.64 242.68C251.8 237.02 253.49 232.94 255.4 227.49C256.082 225.604 256.236 223.567 255.845 221.601C255.454 219.634 254.532 217.811 253.18 216.33C249.88 212.43 244 211.01 241.18 206.85C238.36 202.69 243.69 197.63 244.82 193.49C245.91 189.49 245.59 185.06 243.02 181.73C240.25 178.13 234.69 178.28 232.53 174.38C229.84 169.52 233.25 163.48 235.53 159.19C237.53 155.32 231.72 151.8 229.68 155.69C225.44 163.76 221.05 176.46 231.08 182.49C233.01 183.65 235.89 183.88 237.46 185.58C239.77 188.08 238.38 192.05 237.08 194.66C234.91 199.02 232.08 202.87 234.08 207.95C236.08 213.2 241.24 215.4 245.49 218.45C248.97 220.95 249.96 223.27 248.22 227.21C247.22 229.338 246.572 231.614 246.3 233.95C245.24 245.11 253.3 253.95 262.25 259.23C266.02 261.49 269.52 255.63 265.75 253.38H265.64Z" fill="#FFD200"/>
<path d="M321.44 109.4L324.23 120.43L166.66 182.75L165 178.81L321.44 109.4Z" fill="#003049"/>
<path d="M245.58 326.37C196.64 338.71 147.7 326.1 134.89 275.3L318.83 228.93C331.63 279.72 294.52 314.03 245.58 326.36V326.37Z" fill="#003049"/>
<path d="M302.291 290.527L178.679 321.691L184.954 346.583L308.566 315.419L302.291 290.527Z" fill="#003049"/>
<path opacity="0.3" d="M140.561 110.554L96.1895 121.74L100.018 136.925L144.389 125.739L140.561 110.554Z" fill="white"/>
<path opacity="0.1" d="M352.717 317.907L307.569 329.289L309.129 335.475L354.276 324.093L352.717 317.907Z" fill="#000001"/>
</g>
<defs>
<clipPath id="clip0_1211_9908">
<rect width="458.84" height="438.31" fill="white"/>
</clipPath>
</defs>
</svg>
