<svg width="468" height="381" viewBox="0 0 468 381" fill="none" xmlns="http://www.w3.org/2000/svg">
<g clip-path="url(#clip0_1211_9527)">
<path opacity="0.3" d="M238.81 380.589C365.366 380.589 467.96 354.908 467.96 323.229C467.96 291.55 365.366 265.869 238.81 265.869C112.254 265.869 9.66016 291.55 9.66016 323.229C9.66016 354.908 112.254 380.589 238.81 380.589Z" fill="#E6E6E6"/>
<path d="M51.8895 88.6806C51.8895 88.6806 132.38 27.0506 208 51.2806C283.62 75.5106 316.9 93.6406 288 199.211C259.1 304.781 262.5 327.211 208 319.711C153.5 312.211 165.23 326.601 125.78 321.021C86.3295 315.441 -38.0005 202.091 51.8895 88.6806Z" fill="#FFD200"/>
<path opacity="0.05" d="M193.68 131C193.68 131 149.27 149.79 145.28 207.7C141.29 265.61 149.28 321.96 149.28 321.96C149.28 321.96 167.23 317.18 181.7 317.52C185.7 317.61 228.94 322.89 240.52 318.47C252.1 314.05 193.69 131 193.69 131H193.68Z" fill="#000001"/>
<path d="M183.41 147.88C183.41 147.88 150.53 213.88 202.41 286.63C254.29 359.38 363.29 354 420.16 293.26C477.03 232.52 351.09 88.1905 183.41 147.88Z" fill="#FFD200"/>
<path d="M258.56 237.33C258.56 237.33 172.18 226.33 179.32 163.04C186.46 99.7502 315.32 49.7902 367.19 118.69C367.19 118.69 430.09 106.86 443.07 157.69C456.05 208.52 465.25 314.4 351.82 313.4C238.39 312.4 258.56 237.32 258.56 237.32V237.33Z" fill="#FFD200"/>
<path opacity="0.64" d="M258.56 237.33C258.56 237.33 172.18 226.33 179.32 163.04C186.46 99.7502 315.32 49.7902 367.19 118.69C367.19 118.69 430.09 106.86 443.07 157.69C456.05 208.52 465.25 314.4 351.82 313.4C238.39 312.4 258.56 237.32 258.56 237.32V237.33Z" fill="white"/>
<path opacity="0.6" d="M284.05 220.141C284.05 220.141 236.87 214.141 240.77 179.561C244.67 144.981 315 117.701 343.39 155.341C343.39 155.341 377.75 148.881 384.84 176.651C391.93 204.421 397 262.241 335 261.701C273 261.161 284.05 220.141 284.05 220.141Z" fill="white"/>
<path d="M155.76 74.82C155.76 74.82 159.09 23.47 121.15 1.5" stroke="#24285B" stroke-width="3" stroke-miterlimit="10" stroke-linecap="round"/>
<path opacity="0.05" d="M144.44 63.2502C144.44 63.2502 102.5 70.7302 107.16 88.7002C111.82 106.67 165.07 94.7002 191.03 88.7002C216.99 82.7002 212.33 58.4302 144.43 63.2502H144.44Z" fill="#000001"/>
<path d="M146.39 29.0799C146.39 29.0799 16 -1.82013 0 133.7C0 133.7 173.64 161.83 146.4 29.0799H146.39Z" fill="#EA8608"/>
<path d="M268.92 226.469C268.92 226.469 325.68 186.629 367.19 118.699" stroke="#24285B" stroke-width="3" stroke-miterlimit="10" stroke-linecap="round"/>
<path d="M303.57 164.59C303.57 164.59 276.9 154.78 274.66 168.07C272.42 181.36 295.93 178.35 303.57 164.59Z" fill="#003049"/>
<path d="M334.5 189.449C334.5 189.449 324 221.929 340 223.999C356 226.069 351.35 197.999 334.46 189.449H334.5Z" fill="#003049"/>
<path opacity="0.19" d="M20 118.7C20 118.7 77.12 53.0001 146.4 29.0801L149.3 47.2301C149.3 47.2301 120.82 43.5101 20 118.69V118.7Z" fill="white"/>
</g>
<defs>
<clipPath id="clip0_1211_9527">
<rect width="467.96" height="380.59" fill="white"/>
</clipPath>
</defs>
</svg>
