<svg width="452" height="431" viewBox="0 0 452 431" fill="none" xmlns="http://www.w3.org/2000/svg">
<g clip-path="url(#clip0_1211_9834)">
<path opacity="0.18" d="M447.22 186.62C431.22 121.09 399.02 78.7901 345.12 65.1101C270.53 46.1801 176.22 45.1101 104.05 64.2201C77.1604 71.3201 50.1604 84.5501 31.4504 110.22C-3.20956 157.73 -12.5496 262.48 20.4504 314.94C35.1304 338.29 59.6504 347.03 82.7604 352.29C170.69 372.29 260.88 361.23 349.97 352.92C370.62 350.99 392.14 348.92 409.97 335.45C447.79 306.93 459.59 237.26 447.26 186.64L447.22 186.62Z" fill="#E6E6E6"/>
<path d="M246.941 88.4101C248.031 86.5301 276.291 28.2001 275.171 25.3201C274.051 22.4401 263.751 19.5301 266.171 10.0601C268.591 0.590077 276.431 -3.78992 286.101 4.06008C295.771 11.9101 294.101 20.1201 294.101 20.1201C294.101 20.1201 306.671 9.99008 315.491 20.7501C324.311 31.5101 314.181 37.9001 307.491 39.3301C303.407 40.155 299.167 39.6503 295.391 37.8901C295.391 37.8901 270.831 84.4301 263.541 100.83L247.691 90.0001L246.921 88.4401L246.941 88.4101Z" fill="#E6E6E6"/>
<path d="M213.001 218.711C194.631 216.161 178.431 204.621 167.831 189.711C162.101 181.631 161.441 171.281 163.411 161.291C164.856 154.062 167.416 147.102 171.001 140.661C179.681 125.011 193.711 112.921 209.001 103.571C215.151 99.8007 221.571 96.3607 227.181 91.7907C230.055 89.5104 232.603 86.8454 234.751 83.8707C236.811 80.8707 237.991 77.0107 239.491 73.7207C239.964 72.4961 240.64 71.3601 241.491 70.3607C243.491 68.3607 246.781 68.0207 249.421 69.0807C252.017 70.2814 254.193 72.2318 255.671 74.6807C257.692 77.711 259.099 81.1086 259.811 84.6807C264.691 82.3907 270.431 82.6807 275.661 84.0407C278.161 84.6707 280.911 85.8007 281.771 88.2307C282.006 89.132 282.059 90.0712 281.927 90.9933C281.795 91.9154 281.48 92.8019 281.001 93.6007C279.681 96.2307 277.701 98.4707 276.261 101.041C272.081 108.461 274.081 115.961 275.921 123.681C276.481 126.061 277.041 128.461 277.521 130.861C279.431 140.071 280.521 149.411 279.211 158.671C278.211 165.671 275.801 172.491 273.041 179.051C262.561 204.001 242.001 222.751 213.001 218.711Z" fill="#FFD200"/>
<path opacity="0.1" d="M213.001 218.71C194.631 216.16 178.431 204.62 167.831 189.71C162.101 181.63 161.441 171.28 163.411 161.29C166.531 164.874 169.95 168.186 173.631 171.19C181.191 177.63 189.321 183.83 198.831 186.72C219.531 192.98 242.161 181.72 256.451 165.45C265.621 155 271.281 142.93 277.581 130.9C279.491 140.11 280.581 149.45 279.271 158.71C278.271 165.71 275.861 172.53 273.101 179.09C262.601 204.01 242.101 222.79 212.991 218.75L213.001 218.71Z" fill="#000001"/>
<path opacity="0.3" d="M192.401 135.83C189.972 138.712 188.173 142.071 187.121 145.69C185.011 154.13 189.871 163.41 197.471 167.69C205.071 171.97 214.681 171.59 222.641 168.08C230.601 164.57 237.041 158.21 242.021 151.08C243.888 148.667 245.249 145.902 246.021 142.95C248.361 131.7 239.021 115.26 226.781 114.84C213.931 114.4 199.781 126.5 192.451 135.84L192.401 135.83Z" fill="white"/>
<path d="M333.76 117.57C334.85 115.69 363.11 57.3602 361.99 54.4802C360.87 51.6002 350.57 48.6902 352.99 39.2202C355.41 29.7502 363.25 25.3702 372.92 33.2202C382.59 41.0702 380.92 49.2802 380.92 49.2802C380.92 49.2802 393.49 39.1502 402.31 49.9102C411.13 60.6702 401 67.0602 394.31 68.4902C390.227 69.3151 385.986 68.8105 382.21 67.0502C382.21 67.0502 357.63 113.59 350.34 130L334.51 119.15L333.74 117.59L333.76 117.57Z" fill="#E6E6E6"/>
<path d="M299.801 247.88C281.431 245.33 265.231 233.79 254.631 218.88C248.901 210.8 248.241 200.45 250.211 190.46C251.682 183.241 254.266 176.295 257.871 169.87C266.551 154.22 280.581 142.13 295.871 132.78C302.001 129 308.401 125.53 314.001 121C316.875 118.719 319.423 116.054 321.571 113.08C323.671 110.08 324.811 106.22 326.311 102.93C326.783 101.705 327.46 100.569 328.311 99.5697C330.311 97.5697 333.601 97.2297 336.241 98.2897C338.836 99.4903 341.013 101.441 342.491 103.89C344.512 106.92 345.918 110.318 346.631 113.89C351.511 111.6 357.251 111.89 362.481 113.25C364.981 113.88 367.731 115.01 368.591 117.44C368.821 118.335 368.871 119.267 368.739 120.182C368.607 121.097 368.295 121.976 367.821 122.77C366.501 125.4 364.521 127.64 363.081 130.21C358.901 137.63 360.901 145.13 362.741 152.85C363.301 155.23 363.861 157.63 364.341 160.03C366.251 169.24 367.341 178.58 366.031 187.84C365.031 194.84 362.621 201.66 359.861 208.22C349.361 233.14 328.811 251.92 299.751 247.88H299.801Z" fill="#FFD200"/>
<path opacity="0.1" d="M299.801 247.88C281.431 245.33 265.231 233.79 254.631 218.88C248.901 210.8 248.241 200.45 250.211 190.46C253.331 194.044 256.75 197.356 260.431 200.36C267.991 206.8 276.121 213 285.631 215.89C306.331 222.15 328.961 210.89 343.251 194.62C352.421 184.17 358.081 172.1 364.381 160.07C366.291 169.28 367.381 178.62 366.071 187.88C365.071 194.88 362.661 201.7 359.901 208.26C349.401 233.18 328.901 251.96 299.791 247.92L299.801 247.88Z" fill="#000001"/>
<path opacity="0.3" d="M279.231 165C276.802 167.882 275.003 171.241 273.951 174.86C271.841 183.3 276.701 192.58 284.301 196.86C291.901 201.14 301.511 200.76 309.471 197.25C317.431 193.74 323.871 187.38 328.851 180.25C330.718 177.837 332.079 175.071 332.851 172.12C335.191 160.87 325.851 144.43 313.611 144.01C300.761 143.57 286.611 155.67 279.281 165.01L279.231 165Z" fill="white"/>
<path d="M133.71 108.941C133.32 106.801 116.94 44.0908 114.22 42.6208C111.5 41.1508 101.78 45.6208 97.4701 36.8608C93.1601 28.1008 96.2901 19.6708 108.73 19.3508C121.17 19.0308 125.22 26.3508 125.22 26.3508C125.22 26.3508 128.22 10.4908 141.89 12.9408C155.56 15.3908 152.03 26.8308 147.89 32.2508C145.32 35.5306 141.766 37.8999 137.75 39.0108C137.75 39.0108 149.28 90.3508 154.39 107.561L135.31 109.561L133.71 108.871V108.941Z" fill="#E6E6E6"/>
<path d="M192.481 230.101C176.851 240.101 157.041 241.831 139.271 237.341C129.661 234.911 122.441 227.471 117.461 218.591C113.892 212.161 111.348 205.215 109.921 198.001C106.361 180.461 109.181 162.161 114.711 145.151C116.941 138.291 119.591 131.501 120.891 124.381C121.601 120.78 121.81 117.099 121.511 113.441C121.161 109.861 119.511 106.121 118.511 102.641C118.076 101.398 117.86 100.088 117.871 98.771C118.051 95.931 120.381 93.551 123.071 92.651C125.825 91.8819 128.746 91.9516 131.461 92.851C134.984 93.8609 138.27 95.5604 141.131 97.851C143.361 92.941 147.931 89.461 152.771 87.071C155.081 85.931 157.911 85.001 160.141 86.291C161.649 87.3433 162.677 88.951 163.001 90.761C163.701 93.621 163.661 96.611 164.221 99.491C165.861 107.851 172.221 112.261 178.661 116.931C180.661 118.371 182.611 119.841 184.541 121.351C191.971 127.121 198.881 133.501 203.881 141.401C207.551 147.512 210.422 154.069 212.421 160.911C220.611 186.691 217.181 214.301 192.421 230.101H192.481Z" fill="#FFD200"/>
<path opacity="0.1" d="M192.48 230.1C176.85 240.1 157.04 241.83 139.27 237.34C129.66 234.91 122.44 227.47 117.46 218.59C122.16 219.284 126.91 219.585 131.66 219.49C141.59 219.49 151.8 218.92 160.91 214.94C180.72 206.26 190.62 183 190.91 161.35C191.09 147.45 187.57 134.59 184.55 121.35C191.98 127.12 198.89 133.5 203.89 141.4C207.56 147.51 210.431 154.067 212.43 160.91C220.62 186.69 217.19 214.3 192.43 230.1H192.48Z" fill="#000001"/>
<path opacity="0.3" d="M123.001 180.419C123.029 184.188 123.839 187.91 125.381 191.349C129.251 199.139 138.981 203.039 147.511 201.349C156.041 199.659 163.131 193.139 166.911 185.299C170.691 177.459 171.451 168.449 170.611 159.789C170.452 156.747 169.684 153.768 168.351 151.029C162.831 140.949 145.031 134.529 135.471 142.149C125.411 150.149 122.471 168.569 123.001 180.429V180.419Z" fill="white"/>
<path d="M363.06 193.51L357.02 257.29L348.29 349.91L344.68 388.13L342.25 413.71H111.78L105.77 349.91L97.0205 257.29L90.9805 193.51H363.06Z" fill="#EA8608"/>
<path opacity="0.3" d="M357.021 257.291L348.291 349.911H105.771L97.0205 257.291H357.021Z" fill="white"/>
<path opacity="0.1" d="M227.02 342.079C248.272 342.079 265.5 324.851 265.5 303.599C265.5 282.347 248.272 265.119 227.02 265.119C205.768 265.119 188.54 282.347 188.54 303.599C188.54 324.851 205.768 342.079 227.02 342.079Z" fill="#000001"/>
<path opacity="0.1" d="M344.67 388.13L342.25 413.71H111.78L105.78 349.91L97 257.29L91 193.5H119.2C123.09 204.84 126.4 216.61 130.46 227.5C144.16 264.29 170 295.78 200.84 320.04C231.68 344.3 267.42 361.72 304.19 375.46C317.406 380.515 330.922 384.75 344.66 388.14L344.67 388.13Z" fill="#000001"/>
<path d="M188.221 361C190.391 361.52 256.061 372.33 258.571 370.39C261.081 368.45 260.941 357.46 270.971 357.08C281.001 356.7 287.591 363.14 282.691 374.95C277.791 386.76 269.211 387.48 269.211 387.48C269.211 387.48 282.851 396.9 274.831 408.72C266.811 420.54 257.561 412.44 254.211 406.27C252.22 402.509 251.481 398.211 252.101 394C252.101 394 199.101 383.39 180.841 381L186.911 362.25L188.221 361.04V361Z" fill="#E6E6E6"/>
<path d="M50.0004 365.589C47.1604 346.759 53.7904 327.449 65.4204 312.659C71.7104 304.659 81.7004 300.989 92.1104 300.019C99.6449 299.36 107.236 299.879 114.61 301.559C132.55 305.559 148.54 315.829 162.19 328.109C167.7 333.109 172.96 338.379 179.09 342.579C182.17 344.75 185.535 346.483 189.09 347.729C192.66 348.919 196.78 348.919 200.46 349.439C201.807 349.552 203.126 349.89 204.36 350.439C206.95 351.789 208.21 354.969 207.93 357.869C207.498 360.774 206.214 363.485 204.24 365.659C201.84 368.545 198.889 370.925 195.56 372.659C199.24 376.799 200.56 382.539 200.82 388.079C200.93 390.719 200.61 393.759 198.47 395.319C197.655 395.808 196.751 396.13 195.81 396.265C194.869 396.401 193.911 396.348 192.99 396.109C189.99 395.579 187.23 394.289 184.29 393.609C175.77 391.659 168.96 395.809 161.91 399.869C159.73 401.119 157.53 402.359 155.31 403.539C146.8 408.109 137.93 411.929 128.43 413.319C121.165 414.211 113.815 414.167 106.56 413.189C79.0004 410.129 54.5304 395.379 50.0004 365.589Z" fill="#FFD200"/>
<path opacity="0.1" d="M50.0004 365.59C47.1604 346.76 53.7904 327.45 65.4204 312.66C71.7104 304.66 81.7004 300.99 92.1104 300.02C89.4906 304.154 87.2258 308.503 85.3404 313.02C81.2104 322.34 77.4704 332.15 77.4004 342.35C77.2704 364.55 94.9704 383.55 115.14 392.87C128.14 398.87 141.64 400.87 155.32 403.6C146.81 408.17 137.94 411.99 128.44 413.38C121.175 414.271 113.825 414.227 106.57 413.25C79.0004 410.13 54.5304 395.38 50.0004 365.59Z" fill="#000001"/>
<path opacity="0.3" d="M125.62 321.17C122.072 319.622 118.241 318.829 114.37 318.84C105.44 319.22 97.7301 326.72 95.7601 335.43C93.7901 344.14 96.9401 353.51 102.76 360.33C108.58 367.15 116.67 371.63 125.15 374.45C128.07 375.569 131.185 376.092 134.31 375.99C146.07 374.99 159.52 360.99 156.37 348.85C153 336.07 137 325.64 125.62 321.18V321.17Z" fill="white"/>
<path d="M369.14 182.18H84.8905C80.66 182.18 77.2305 185.609 77.2305 189.84V197.18C77.2305 201.41 80.66 204.84 84.8905 204.84H369.14C373.371 204.84 376.8 201.41 376.8 197.18V189.84C376.8 185.609 373.371 182.18 369.14 182.18Z" fill="#EA8608"/>
<path opacity="0.3" d="M369.14 182.18H84.8905C80.66 182.18 77.2305 185.609 77.2305 189.84V197.18C77.2305 201.41 80.66 204.84 84.8905 204.84H369.14C373.371 204.84 376.8 201.41 376.8 197.18V189.84C376.8 185.609 373.371 182.18 369.14 182.18Z" fill="white"/>
<path d="M425.58 413.711H24.6604C21.4792 413.711 18.9004 416.29 18.9004 419.471V424.991C18.9004 428.172 21.4792 430.751 24.6604 430.751H425.58C428.762 430.751 431.34 428.172 431.34 424.991V419.471C431.34 416.29 428.762 413.711 425.58 413.711Z" fill="#003049"/>
</g>
<defs>
<clipPath id="clip0_1211_9834">
<rect width="451.92" height="430.75" fill="white"/>
</clipPath>
</defs>
</svg>
