<svg width="402" height="455" viewBox="0 0 402 455" fill="none" xmlns="http://www.w3.org/2000/svg">
<g clip-path="url(#clip0_1211_9651)">
<path opacity="0.45" d="M211.01 454.431C316.414 454.431 401.86 436.733 401.86 414.901C401.86 393.069 316.414 375.371 211.01 375.371C105.607 375.371 20.1602 393.069 20.1602 414.901C20.1602 436.733 105.607 454.431 211.01 454.431Z" fill="#E6E6E6"/>
<path d="M162.82 359.862C162.82 359.862 112.82 363.292 75.9502 335.132C39.0802 306.972 29.1602 257.872 29.1602 257.872C29.1602 257.872 79.1602 254.442 116.03 282.602C152.9 310.762 162.82 359.862 162.82 359.862Z" fill="#003049"/>
<path d="M165.92 373.572C165.92 373.572 123.44 400.102 77.62 392.572C31.8 385.042 0 346.412 0 346.412C0 346.412 42.48 319.882 88.3 327.412C134.12 334.942 165.92 373.602 165.92 373.602V373.572Z" fill="#003049"/>
<path d="M332.67 157.801V372.271C332.678 376.128 332.156 379.967 331.12 383.681C328.625 392.667 323.252 400.587 315.825 406.226C308.398 411.866 299.325 414.913 290 414.901H135.38C129.782 414.903 124.24 413.801 119.068 411.66C113.897 409.518 109.198 406.379 105.24 402.421C101.282 398.463 98.1427 393.764 96.0013 388.593C93.86 383.421 92.7585 377.879 92.7598 372.281V157.811C92.7585 152.214 93.86 146.671 96.0013 141.5C98.1427 136.328 101.282 131.629 105.24 127.672C109.198 123.714 113.897 120.574 119.068 118.433C124.24 116.292 129.782 115.19 135.38 115.191H290C295.597 115.19 301.14 116.292 306.311 118.433C311.483 120.574 316.182 123.714 320.14 127.672C324.098 131.629 327.237 136.328 329.378 141.5C331.52 146.671 332.621 152.214 332.62 157.811L332.67 157.801Z" fill="#E6E6E6"/>
<path d="M296.82 76.832H128.61V115.172H296.82V76.832Z" fill="#E6E6E6"/>
<path d="M313.62 353.101L309.1 343.431L373.69 313.231C378.246 311.088 382.099 307.694 384.801 303.445C387.503 299.195 388.942 294.266 388.95 289.231V199.531C388.942 192.513 386.15 185.785 381.188 180.823C376.226 175.86 369.497 173.069 362.48 173.061H311.37V162.381H362.48C372.329 162.391 381.772 166.309 388.737 173.274C395.702 180.238 399.619 189.681 399.63 199.531V289.251C399.615 296.312 397.595 303.223 393.804 309.181C390.014 315.138 384.609 319.896 378.22 322.901L313.63 353.101H313.62Z" fill="#E6E6E6"/>
<path d="M108.92 200.432V361.002C108.92 372.406 113.45 383.343 121.514 391.407C129.578 399.471 140.516 404.002 151.92 404.002H270.08C281.484 404.002 292.421 399.471 300.486 391.407C308.55 383.343 313.08 372.406 313.08 361.002V200.432H108.92Z" fill="#EA8608"/>
<path d="M145.732 0.00911611L129.138 2.49805L187.037 388.53L203.632 386.041L145.732 0.00911611Z" fill="#003049"/>
<path d="M260.87 329.471C286.209 329.471 306.75 308.93 306.75 283.591C306.75 258.252 286.209 237.711 260.87 237.711C235.531 237.711 214.99 258.252 214.99 283.591C214.99 308.93 235.531 329.471 260.87 329.471Z" fill="#FFD200"/>
<path opacity="0.44" d="M239.07 307.441L260.15 284.521L274.8 313.001C268.998 315.862 262.456 316.868 256.063 315.884C249.669 314.9 243.733 311.974 239.06 307.501L239.07 307.441Z" fill="white"/>
<path opacity="0.44" d="M282.79 260.941L260.12 282.331L244.95 256.331C250.901 252.874 257.82 251.459 264.651 252.302C271.481 253.145 277.848 256.2 282.78 261.001L282.79 260.941Z" fill="white"/>
<path opacity="0.44" d="M256.81 283.441C256.81 283.121 256.89 282.801 256.94 282.441L233.99 263.441C229.773 268.555 227.273 274.867 226.846 281.482C226.419 288.096 228.086 294.678 231.61 300.291L256.86 283.551C256.851 283.492 256.851 283.431 256.86 283.371L256.81 283.441Z" fill="white"/>
<path opacity="0.44" d="M290.41 270.621L262.24 282.711C262.24 283.031 262.17 283.351 262.13 283.711C262.13 283.851 262.13 283.991 262.08 284.141C262.069 284.263 262.035 284.382 261.98 284.491L284.3 306.491C288.888 301.877 291.938 295.958 293.031 289.544C294.125 283.13 293.21 276.535 290.41 270.661V270.621Z" fill="white"/>
<path d="M165.14 279.812C193.328 279.812 216.18 256.961 216.18 228.772C216.18 200.584 193.328 177.732 165.14 177.732C136.951 177.732 114.1 200.584 114.1 228.772C114.1 256.961 136.951 279.812 165.14 279.812Z" fill="#FFD200"/>
<path opacity="0.44" d="M140.89 255.301L164.35 229.801L180.65 261.431C174.194 264.611 166.916 265.728 159.804 264.632C152.691 263.535 146.088 260.277 140.89 255.301Z" fill="white"/>
<path opacity="0.44" d="M189.53 203.572L164.31 227.362L147.44 198.482C154.05 194.621 161.742 193.028 169.342 193.947C176.941 194.866 184.032 198.247 189.53 203.572Z" fill="white"/>
<path opacity="0.44" d="M160.63 228.611C160.63 228.251 160.72 227.891 160.77 227.541L135.24 206.441C130.543 212.128 127.757 219.151 127.28 226.511C126.802 233.872 128.657 241.195 132.58 247.441L160.67 228.821C160.662 228.758 160.662 228.694 160.67 228.631L160.63 228.611Z" fill="white"/>
<path opacity="0.44" d="M198 214.342L166.66 227.792C166.66 228.142 166.58 228.502 166.53 228.852L166.47 229.332C166.461 229.468 166.423 229.601 166.36 229.722L191.19 254.222C196.298 249.089 199.693 242.503 200.91 235.365C202.128 228.227 201.108 220.887 197.99 214.352L198 214.342Z" fill="white"/>
<path opacity="0.44" d="M139.047 344.874L125.037 379.55C123.901 382.362 125.259 385.561 128.071 386.697L162.747 400.708C165.559 401.843 168.758 400.485 169.894 397.674L183.905 362.997C185.04 360.186 183.682 356.986 180.871 355.85L146.194 341.84C143.383 340.704 140.183 342.062 139.047 344.874Z" fill="white"/>
<path opacity="0.44" d="M203.813 290.523L166.961 296.902C163.974 297.419 161.971 300.26 162.488 303.247L168.867 340.099C169.384 343.087 172.225 345.09 175.213 344.573L212.065 338.194C215.052 337.677 217.055 334.836 216.538 331.848L210.159 294.996C209.642 292.008 206.801 290.006 203.813 290.523Z" fill="white"/>
<path opacity="0.44" d="M243.556 172.272L229.546 206.949C228.41 209.76 229.768 212.96 232.58 214.096L267.256 228.106C270.067 229.242 273.267 227.884 274.403 225.072L288.413 190.396C289.549 187.584 288.191 184.385 285.38 183.249L250.703 169.238C247.892 168.103 244.692 169.461 243.556 172.272Z" fill="white"/>
<path opacity="0.44" d="M269.225 342.455L233.684 354.099C230.803 355.043 229.232 358.144 230.176 361.026L241.82 396.567C242.764 399.448 245.865 401.019 248.747 400.075L284.288 388.431C287.169 387.487 288.74 384.386 287.796 381.504L276.151 345.963C275.207 343.082 272.106 341.511 269.225 342.455Z" fill="white"/>
<path opacity="0.09" d="M331.12 383.682C328.626 392.668 323.253 400.588 315.826 406.227C308.398 411.866 299.326 414.914 290 414.902H217C212.908 410.263 209.947 404.738 208.35 398.762C202.78 397.832 198.65 394.332 198.65 390.162C198.65 385.992 202.78 382.512 208.35 381.562C213.76 360.202 239.06 344.002 269.48 344.002C299.9 344.002 326.86 361.232 331.11 383.632L331.12 383.682Z" fill="#000001"/>
<path d="M343.15 406.362C343.15 406.362 364.23 405.562 368.08 397.492C371.93 389.422 371 373.922 371 373.922L362.78 374.712C362.78 374.712 364.71 389.332 359.45 394.942C354.19 400.552 337.75 399.702 337.75 399.702L343.19 407.592" fill="#003049"/>
<path d="M287.1 355.252C256.69 355.252 231.39 371.412 225.95 392.772C220.38 393.712 216.23 397.202 216.23 401.372C216.23 405.542 220.37 409.002 226 410.002C231.44 431.362 256.74 447.522 287.15 447.522C321.53 447.522 349.4 426.872 349.4 401.402C349.4 375.932 321.48 355.252 287.1 355.252Z" fill="#FFD200"/>
<path d="M366.19 397.213C366.19 397.213 382.63 387.613 395.91 403.923C395.91 403.923 383.68 421.283 366.19 397.213Z" fill="#003049"/>
<path opacity="0.44" d="M244.931 382.531C242.731 384.901 240.581 388.121 241.731 391.131C242.369 392.531 243.414 393.706 244.731 394.501C249.707 397.691 255.684 398.937 261.521 398.001C267.309 397.06 272.803 394.802 277.581 391.401C286.641 385.251 291.781 368.401 277.141 365.401C266.081 363.111 251.701 375.191 244.931 382.471V382.531Z" fill="white"/>
</g>
<defs>
<clipPath id="clip0_1211_9651">
<rect width="401.86" height="454.43" fill="white"/>
</clipPath>
</defs>
</svg>
