<svg width="475" height="306" viewBox="0 0 475 306" fill="none" xmlns="http://www.w3.org/2000/svg">
<g clip-path="url(#clip0_1211_9761)">
<path d="M453.02 25.7402H21.12C9.45575 25.7402 0 35.196 0 46.8602V284.34C0 296.004 9.45575 305.46 21.12 305.46H453.02C464.684 305.46 474.14 296.004 474.14 284.34V46.8602C474.14 35.196 464.684 25.7402 453.02 25.7402Z" fill="#A5A5A5"/>
<path d="M453.02 0H21.12C9.45575 0 0 9.45575 0 21.12V258.6C0 270.264 9.45575 279.72 21.12 279.72H453.02C464.684 279.72 474.14 270.264 474.14 258.6V21.12C474.14 9.45575 464.684 0 453.02 0Z" fill="#E6E6E6"/>
<path opacity="0.55" d="M97.7 32.3203H40.43C35.6583 32.3203 31.79 36.1886 31.79 40.9603V238.61C31.79 243.382 35.6583 247.25 40.43 247.25H97.7C102.472 247.25 106.34 243.382 106.34 238.61V40.9603C106.34 36.1886 102.472 32.3203 97.7 32.3203Z" fill="#A5A5A5"/>
<path opacity="0.55" d="M255.96 117.461H130.21C126.637 117.461 123.74 120.358 123.74 123.931V240.781C123.74 244.354 126.637 247.251 130.21 247.251H255.96C259.534 247.251 262.43 244.354 262.43 240.781V123.931C262.43 120.358 259.534 117.461 255.96 117.461Z" fill="#A5A5A5"/>
<path opacity="0.55" d="M255.96 32.3203H130.21C126.637 32.3203 123.74 35.217 123.74 38.7903V94.3403C123.74 97.9136 126.637 100.81 130.21 100.81H255.96C259.534 100.81 262.43 97.9136 262.43 94.3403V38.7903C262.43 35.217 259.534 32.3203 255.96 32.3203Z" fill="#A5A5A5"/>
<path opacity="0.55" d="M436.56 32.3203H284.42C280.317 32.3203 276.99 35.6468 276.99 39.7503V93.3803C276.99 97.4838 280.317 100.81 284.42 100.81H436.56C440.664 100.81 443.99 97.4838 443.99 93.3803V39.7503C443.99 35.6468 440.664 32.3203 436.56 32.3203Z" fill="#A5A5A5"/>
<path opacity="0.55" d="M436.56 117.461H284.42C280.317 117.461 276.99 120.787 276.99 124.891V239.821C276.99 243.924 280.317 247.251 284.42 247.251H436.56C440.664 247.251 443.99 243.924 443.99 239.821V124.891C443.99 120.787 440.664 117.461 436.56 117.461Z" fill="#A5A5A5"/>
<path d="M79.4405 98.1609L84.4405 88.8809C87.4294 83.3401 88.6409 77.0138 87.9105 70.7609L84.3705 40.6309C84.3215 40.2172 84.1223 39.8359 83.8108 39.5594C83.4992 39.2829 83.097 39.1304 82.6805 39.1309C82.2296 39.1309 81.7972 39.31 81.4784 39.6288C81.1596 39.9476 80.9805 40.38 80.9805 40.8309V70.8309C80.9952 71.4604 80.7878 72.075 80.3947 72.5669C80.0016 73.0588 79.4478 73.3965 78.8305 73.5209C78.461 73.5801 78.0831 73.5586 77.7227 73.4578C77.3624 73.357 77.0282 73.1793 76.7431 72.9369C76.4579 72.6946 76.2287 72.3934 76.0712 72.054C75.9137 71.7146 75.8315 71.345 75.8305 70.9709V41.4609C75.8305 40.8429 75.585 40.2503 75.148 39.8133C74.7111 39.3763 74.1184 39.1309 73.5005 39.1309C72.8825 39.1309 72.2899 39.3763 71.8529 39.8133C71.416 40.2503 71.1705 40.8429 71.1705 41.4609V71.4609C71.1705 72.0125 70.9513 72.5416 70.5613 72.9316C70.1712 73.3217 69.6421 73.5409 69.0905 73.5409C68.5388 73.5409 68.0098 73.3217 67.6197 72.9316C67.2296 72.5416 67.0105 72.0125 67.0105 71.4609V41.4609C67.0105 40.8429 66.765 40.2503 66.328 39.8133C65.8911 39.3763 65.2984 39.1309 64.6805 39.1309C64.0625 39.1309 63.4699 39.3763 63.0329 39.8133C62.596 40.2503 62.3505 40.8429 62.3505 41.4609V70.8409C62.3652 71.4704 62.1578 72.085 61.7647 72.5769C61.3716 73.0688 60.8178 73.4065 60.2005 73.5309C59.831 73.5901 59.4531 73.5686 59.0927 73.4678C58.7324 73.367 58.3982 73.1893 58.1131 72.9469C57.828 72.7046 57.5987 72.4034 57.4412 72.064C57.2837 71.7245 57.2015 71.355 57.2005 70.9809V40.8309C57.2005 40.38 57.0214 39.9476 56.7026 39.6288C56.3837 39.31 55.9513 39.1309 55.5005 39.1309C55.0845 39.1326 54.6835 39.2858 54.3724 39.5619C54.0613 39.838 53.8616 40.2181 53.8105 40.6309L50.2205 70.7609C49.4802 77.0142 50.6922 83.3435 53.6905 88.8809L58.6905 98.1609L54.6505 223.071C54.4005 230.891 60.2405 237.841 68.0405 238.311C70.026 238.436 72.0158 238.145 73.8825 237.457C75.7492 236.768 77.4518 235.699 78.8814 234.315C80.3111 232.931 81.4363 231.265 82.1851 229.422C82.934 227.579 83.29 225.599 83.2305 223.611L79.5005 98.1709H79.4405V98.1609Z" fill="#003049"/>
<path d="M138.49 196.19C138.49 196.19 125.37 239.62 164.73 238.71C204.09 237.8 204.99 239.12 226.73 235.29C248.47 231.46 249.8 221.06 249.8 201.16C249.8 181.26 250.25 181.26 243.92 158.64C237.59 136.02 238.92 127.43 214.52 126.07C190.12 124.71 194.16 140.55 171.52 133.31C148.88 126.07 138.52 140.1 141.66 160C143.524 172.143 142.437 184.556 138.49 196.19Z" fill="white"/>
<path d="M196.96 217.22C211.015 217.22 222.41 205.826 222.41 191.77C222.41 177.715 211.015 166.32 196.96 166.32C182.904 166.32 171.51 177.715 171.51 191.77C171.51 205.826 182.904 217.22 196.96 217.22Z" fill="#FFD200"/>
<path d="M149.38 67.6308C149.38 67.6308 131.77 66.8508 132.93 75.7008C134.09 84.5508 144.71 80.8508 144.71 80.8508C144.71 80.8508 132.77 87.6508 138.11 92.5708C143.45 97.4908 148.73 87.4908 148.73 87.4908C148.73 87.4908 146.36 100.861 153.99 98.1708C161.62 95.4808 156.99 77.1708 156.99 77.1708L149.38 67.6608V67.6308Z" fill="#003049"/>
<path d="M147.86 52.1199C147.86 52.1199 134.29 62.1199 147.33 77.7599C160.37 93.3999 168.33 87.7099 175.18 81.2299C179.1 77.4999 182.52 65.3899 184.71 55.7699C185.037 54.3004 184.997 52.7729 184.593 51.3228C184.188 49.8726 183.432 48.5447 182.392 47.4567C181.351 46.3687 180.058 45.5543 178.628 45.0856C177.197 44.6169 175.673 44.5084 174.19 44.7699C165.174 46.2776 156.347 48.7518 147.86 52.1499V52.1199Z" fill="#EA8608"/>
<path d="M184.329 77.8711C184.329 77.8711 168.069 84.6911 172.899 92.2011C177.729 99.7111 185.749 91.8211 185.749 91.8211C185.749 91.8211 177.859 103.071 184.749 105.231C191.639 107.391 192.179 96.1011 192.179 96.1011C192.179 96.1011 195.749 109.201 201.499 103.511C207.249 97.8211 195.239 83.2211 195.239 83.2211L184.289 77.8711H184.329Z" fill="#003049"/>
<path d="M220.71 83.0614C220.71 83.0614 211.59 98.1514 219.91 101.371C228.23 104.591 230.08 93.5014 230.08 93.5014C230.08 93.5014 230.33 107.241 237.2 104.911C244.07 102.581 237.83 93.1614 237.83 93.1614C237.83 93.1614 248.43 101.651 249.72 93.6614C251.01 85.6714 232.72 80.9414 232.72 80.9414L220.72 83.0614H220.71Z" fill="#003049"/>
<path d="M206.37 77.0007C206.37 77.0007 208.63 93.6907 228.62 89.7607C248.61 85.8307 247.44 76.0007 245 66.9307C243.61 61.7007 234.61 52.9307 227.22 46.3607C226.089 45.3613 224.728 44.6573 223.258 44.3116C221.789 43.9658 220.257 43.989 218.798 44.3791C217.34 44.7692 216.001 45.514 214.9 46.5472C213.8 47.5804 212.972 48.8699 212.49 50.3007C209.498 58.9558 207.443 67.907 206.36 77.0007H206.37Z" fill="#EA8608"/>
<path opacity="0.05" d="M163.31 87.8105C163.31 87.8105 164.14 60.1105 184.71 55.8105C184.71 55.8105 184.11 71.8105 176.63 79.5005C176.63 79.5005 170.76 87.0405 163.31 87.8505V87.8105Z" fill="#000001"/>
<path d="M179 61.6008C177.515 63.0893 176.359 64.8734 175.608 66.8373C174.857 68.8012 174.527 70.9012 174.64 73.0008C174.95 77.7808 177.57 83.6308 186.81 87.9308C205.29 96.5208 210.08 87.9308 213.47 79.1708C215.42 74.1708 213.34 61.7208 211.21 52.0908C210.888 50.6158 210.206 49.2434 209.226 48.0958C208.245 46.9482 206.995 46.0611 205.588 45.5136C204.182 44.9661 202.661 44.7752 201.162 44.9579C199.664 45.1406 198.234 45.6913 197 46.5608C190.58 51.0339 184.557 56.0525 179 61.5608V61.6008Z" fill="#EA8608"/>
<path d="M265.32 19.8594C265.32 19.8594 268.6 88.6494 356 89.0694C450.26 89.5194 455 19.8594 455 19.8594H265.32Z" fill="#EA8608"/>
<path d="M265.32 19.8594H275.2C275.2 19.8594 286.49 75.7894 354 77.4794C421.51 79.1694 437.24 42.9994 443.73 19.8594H455C455 19.8594 456.29 88.5594 355.79 89.9594C355.79 89.9594 274.32 93.2294 265.29 19.8594H265.32Z" fill="#003049"/>
<path d="M304.156 35.5475C306.359 33.5123 307.093 30.7246 305.796 29.3212C304.499 27.9177 301.662 28.4299 299.46 30.4652C297.257 32.5005 296.523 35.2881 297.82 36.6916C299.117 38.095 301.954 37.5828 304.156 35.5475Z" fill="#003049"/>
<path d="M333.889 58.7912C334.836 55.9457 334.134 53.1498 332.321 52.5463C330.508 51.9429 328.27 53.7603 327.323 56.6057C326.376 59.4511 327.078 62.247 328.891 62.8505C330.704 63.454 332.942 61.6366 333.889 58.7912Z" fill="#003049"/>
<path d="M417.177 35.5033C418.467 34.0935 417.719 31.3095 415.507 29.285C413.294 27.2605 410.455 26.7622 409.165 28.172C407.875 29.5818 408.623 32.3658 410.835 34.3903C413.048 36.4148 415.887 36.9131 417.177 35.5033Z" fill="#003049"/>
<path d="M361.294 32.6887C362.254 29.8398 361.56 27.0345 359.745 26.423C357.929 25.8115 355.68 27.6254 354.72 30.4743C353.76 33.3233 354.454 36.1285 356.269 36.74C358.085 37.3515 360.334 35.5377 361.294 32.6887Z" fill="#003049"/>
<path d="M384.577 58.2793C386.144 57.1709 386.005 54.279 384.265 51.8199C382.526 49.3608 379.846 48.2657 378.279 49.3741C376.712 50.4824 376.851 53.3744 378.591 55.8335C380.33 58.2926 383.01 59.3876 384.577 58.2793Z" fill="#003049"/>
<path d="M296.14 138.35C300.007 134.607 304.752 131.896 309.939 130.465C315.127 129.034 320.591 128.929 325.83 130.16C344.3 134.24 353.35 141.24 370.73 132.26C388.11 123.28 400.73 140.06 426.85 133.26V159.96C426.85 159.96 405.49 162.46 393.85 157.27C382.21 152.08 375.78 160.82 363.45 160.56C357.83 160.44 348.9 159.17 340.85 157.82C328.768 155.778 316.363 156.908 304.85 161.1L298.63 163.38L296.1 138.38L296.14 138.35Z" fill="#EA8608"/>
<path opacity="0.39" d="M297.18 148.639C297.18 148.639 310.98 138.689 324.74 141.769C338.5 144.849 353.52 148.899 363.12 144.909C372.72 140.919 383.4 141.029 399.69 144.909C415.98 148.789 426.85 144.909 426.85 144.909V151.999C426.85 151.999 418.85 154.219 404.94 151.999C391.03 149.779 372.53 147.719 362.76 152.169C352.99 156.619 333.25 147.889 323.84 149.089C314.43 150.289 302.31 153.259 298.14 158.019L297.14 148.599L297.18 148.639Z" fill="white"/>
<path d="M296.14 174.389C300.007 170.647 304.752 167.935 309.939 166.504C315.127 165.073 320.591 164.968 325.83 166.199C344.3 170.279 353.35 177.279 370.73 168.299C388.11 159.319 400.73 176.099 426.85 169.249V195.999C426.85 195.999 405.49 198.499 393.85 193.309C382.21 188.119 375.78 196.859 363.45 196.599C357.83 196.479 348.9 195.209 340.85 193.859C328.768 191.817 316.363 192.947 304.85 197.139L298.63 199.419L296.1 174.419L296.14 174.389Z" fill="#EA8608"/>
<path opacity="0.39" d="M297.18 184.671C297.18 184.671 310.98 174.721 324.74 177.801C338.5 180.881 353.52 184.931 363.12 180.941C372.72 176.951 383.4 177.061 399.69 180.941C415.98 184.821 426.85 180.941 426.85 180.941V188.071C426.85 188.071 418.85 190.291 404.94 188.071C391.03 185.851 372.53 183.791 362.76 188.241C352.99 192.691 333.25 183.961 323.84 185.161C314.43 186.361 302.31 189.331 298.14 194.091L297.14 184.671H297.18Z" fill="white"/>
<path d="M296.14 210.42C300.007 206.678 304.752 203.967 309.939 202.536C315.127 201.105 320.591 201 325.83 202.23C344.3 206.31 353.35 213.31 370.73 204.33C388.11 195.35 400.73 212.13 426.85 205.28V232C426.85 232 405.49 234.5 393.85 229.31C382.21 224.12 375.78 232.86 363.45 232.6C357.83 232.48 348.9 231.21 340.85 229.86C328.768 227.818 316.363 228.948 304.85 233.14L298.63 235.42L296.1 210.42H296.14Z" fill="#EA8608"/>
<path opacity="0.39" d="M297.18 220.709C297.18 220.709 310.98 210.709 324.74 213.839C338.5 216.969 353.52 220.999 363.12 216.999C372.72 212.999 383.4 213.119 399.69 216.999C415.98 220.879 426.85 216.999 426.85 216.999V224.129C426.85 224.129 418.85 226.349 404.94 224.129C391.03 221.909 372.53 219.849 362.76 224.299C352.99 228.749 333.25 220.019 323.84 221.219C314.43 222.419 302.31 225.389 298.14 230.149L297.14 220.729L297.18 220.709Z" fill="white"/>
</g>
<defs>
<clipPath id="clip0_1211_9761">
<rect width="474.14" height="305.46" fill="white"/>
</clipPath>
</defs>
</svg>
