<svg width="472" height="433" viewBox="0 0 472 433" fill="none" xmlns="http://www.w3.org/2000/svg">
<g clip-path="url(#clip0_1211_9460)">
<path opacity="0.45" d="M235.86 432.471C355.512 432.471 452.51 418.48 452.51 401.221C452.51 383.962 355.512 369.971 235.86 369.971C116.207 369.971 19.21 383.962 19.21 401.221C19.21 418.48 116.207 432.471 235.86 432.471Z" fill="#E6E6E6"/>
<path opacity="0.3" d="M235.86 360.1C366.122 360.1 471.72 279.489 471.72 180.05C471.72 80.6111 366.122 0 235.86 0C105.598 0 0 80.6111 0 180.05C0 279.489 105.598 360.1 235.86 360.1Z" fill="#E6E6E6"/>
<path d="M33.5898 224.35H208.76L196.6 401.22H45.7498L33.5898 224.35Z" fill="#E6E6E6"/>
<path d="M50.9004 299.711L57.1404 390.491H185.21L191.46 299.711H50.9004Z" fill="#EA8608"/>
<path opacity="0.44" d="M104.319 286.66L60.8101 289.626C59.2177 289.734 58.0148 291.113 58.1233 292.706L61.0895 336.215C61.198 337.807 62.5769 339.01 64.1693 338.901L107.678 335.935C109.271 335.827 110.474 334.448 110.365 332.855L107.399 289.346C107.29 287.754 105.911 286.551 104.319 286.66Z" fill="white"/>
<path opacity="0.44" d="M120.419 327.701L96.6742 364.279C95.8051 365.618 96.1859 367.408 97.5246 368.277L134.103 392.022C135.442 392.891 137.232 392.51 138.101 391.172L161.846 354.593C162.715 353.254 162.334 351.464 160.996 350.595L124.417 326.85C123.078 325.981 121.289 326.362 120.419 327.701Z" fill="white"/>
<path opacity="0.44" d="M133.6 259.728L109.855 296.306C108.986 297.645 109.367 299.435 110.705 300.304L147.284 324.049C148.623 324.918 150.412 324.538 151.281 323.199L175.027 286.62C175.896 285.282 175.515 283.492 174.176 282.623L137.598 258.877C136.259 258.008 134.469 258.389 133.6 259.728Z" fill="white"/>
<path d="M194.044 142.235L163.797 387.164L170.863 388.037L201.11 143.107L194.044 142.235Z" fill="#003049"/>
<path d="M223.09 113.111C246.623 113.111 265.7 94.0335 265.7 70.5006C265.7 46.9678 246.623 27.8906 223.09 27.8906C199.558 27.8906 180.48 46.9678 180.48 70.5006C180.48 94.0335 199.558 113.111 223.09 113.111Z" fill="#FFD200"/>
<path d="M460.8 68.1705C461.156 67.7618 461.387 67.2595 461.467 66.7231C461.546 66.1867 461.469 65.6388 461.246 65.1448C461.022 64.6507 460.662 64.2312 460.207 63.9362C459.752 63.6411 459.222 63.483 458.68 63.4805H215.52C214.976 63.4787 214.443 63.6343 213.985 63.9286C213.528 64.2228 213.165 64.6432 212.941 65.1389C212.717 65.6346 212.641 66.1846 212.722 66.7225C212.804 67.2604 213.039 67.7633 213.4 68.1705L328.31 200V379.29L258.64 401.22H415.55L345.88 379.29V200L460.79 68.1705H460.8Z" fill="#E6E6E6"/>
<path d="M265.7 107L330.91 181.66C331.682 182.543 332.633 183.251 333.701 183.736C334.769 184.221 335.928 184.471 337.1 184.471C338.273 184.471 339.432 184.221 340.499 183.736C341.567 183.251 342.519 182.543 343.29 181.66L408.5 107H265.7Z" fill="#EA8608"/>
</g>
<defs>
<clipPath id="clip0_1211_9460">
<rect width="471.72" height="432.47" fill="white"/>
</clipPath>
</defs>
</svg>
