<svg width="471" height="445" viewBox="0 0 471 445" fill="none" xmlns="http://www.w3.org/2000/svg">
<g clip-path="url(#clip0_1211_9882)">
<g opacity="0.18">
<path d="M465.89 157.4C449.38 81.8401 415.89 33.0002 359.78 17.1602C282.13 -4.78984 183.9 -6.12984 108.69 15.7302C80.6898 23.8702 52.5198 39.0702 32.9898 68.5902C-3.21019 123.29 -13.1502 244.02 21.0998 304.59C36.3498 331.53 61.8698 341.64 85.9298 347.75C177.48 370.99 271.44 358.36 364.24 348.94C385.76 346.75 408.17 344.37 426.77 328.94C466.21 296.13 478.64 215.84 465.89 157.48V157.4Z" fill="#E6E6E6"/>
</g>
<path d="M274.71 247.91L290.51 178.75L373.25 197.05L361.4 270.45L274.71 247.91Z" fill="#003049"/>
<path d="M310.54 241.551L349.85 170.461L435.96 199.361L412.27 256.581L310.54 241.551Z" fill="#EA8608"/>
<g opacity="0.1">
<path d="M310.54 241.551L349.85 170.461L435.96 199.361L412.27 256.581L310.54 241.551Z" fill="#000001"/>
</g>
<path d="M41.2702 192.62C58.7302 165.07 115.54 165.44 152.38 188.78C189.22 212.12 192.13 249.59 174.67 277.15C157.21 304.71 126 311.9 89.1602 288.56C52.3202 265.22 23.8102 220.18 41.2702 192.62Z" fill="white"/>
<path d="M157.812 261.777C169.104 243.956 162.113 219.279 142.198 206.66C122.282 194.04 96.9832 198.257 85.6912 216.078C74.3991 233.899 81.3899 258.576 101.305 271.195C121.221 283.814 146.52 279.598 157.812 261.777Z" fill="#FFD200"/>
<path d="M438.56 228.82L433 256.59L426.38 289.51L419.5 323.78C401.91 386 346.5 428.78 283.61 428.78H176.24C113.32 428.78 57.9395 385.99 40.3495 323.78L33.4695 289.51L26.8495 256.59L21.2695 228.82H438.56Z" fill="#EA8608"/>
<path d="M356.49 407.34H103.34C101.241 407.34 99.54 409.041 99.54 411.14V440.41C99.54 442.509 101.241 444.21 103.34 444.21H356.49C358.589 444.21 360.29 442.509 360.29 440.41V411.14C360.29 409.041 358.589 407.34 356.49 407.34Z" fill="#003049"/>
<path d="M168.73 156.159L450.951 39.6895L458.44 58.0295L172.55 165.489L168.73 156.159Z" fill="#FFD200"/>
<path d="M168.93 152.02L448.33 28.9496L440.28 10.8496L164.83 142.81L168.93 152.02Z" fill="#FFD200"/>
<path d="M195.84 142.589C186.76 156.149 195.08 228.819 195.08 228.819H270.36C271.92 228.819 266.43 138.709 267.14 123.659C267.46 116.959 269.78 114.369 269.78 114.369C269.78 114.369 204.92 128.999 195.84 142.589Z" fill="#EA8608"/>
<g opacity="0.5">
<path d="M195.84 142.589C186.76 156.149 195.08 228.819 195.08 228.819H270.36C271.92 228.819 266.43 138.709 267.14 123.659C267.46 116.959 269.78 114.369 269.78 114.369C269.78 114.369 204.92 128.999 195.84 142.589Z" fill="white"/>
</g>
<g opacity="0.5">
<path d="M218.08 228.82H211.4C211.878 226.526 212.212 224.205 212.4 221.87C212.728 216.464 211.97 211.048 210.17 205.94C208.6 201.12 206.63 196.38 205.79 191.29C205.077 186.187 205.263 180.999 206.34 175.96C207.29 170.85 208.8 165.76 208.82 160.49C208.84 155.22 206.59 150.56 205.5 145.49C204.822 142.226 204.636 138.879 204.95 135.56C207.1 134.39 209.51 133.21 212.12 132.09C212.01 132.58 211.92 133.09 211.83 133.55C210.83 139.26 211.94 144.06 213.58 149.46C215.074 154.008 215.651 158.807 215.28 163.58C214.82 168.8 213.44 173.82 212.56 178.96C211.607 184.069 211.871 189.331 213.33 194.32C214.66 198.9 216.54 203.32 217.76 207.93C219.6 214.93 219.31 221.93 218.11 228.84L218.08 228.82Z" fill="white"/>
</g>
<g opacity="0.5">
<path d="M237.29 228.82H230.61C231.098 226.529 231.433 224.207 231.61 221.87C231.935 216.467 231.184 211.052 229.4 205.94C227.81 201.12 225.84 196.38 225 191.29C224.287 186.188 224.473 180.999 225.55 175.96C226.5 170.85 228.01 165.76 228.03 160.49C228.05 155.22 225.8 150.56 224.71 145.49C223.34 139.1 224.11 132.86 225.79 126.82C228.36 125.91 230.97 125.05 233.58 124.23C232.469 127.256 231.619 130.37 231.04 133.54C230.09 139.25 231.15 144.05 232.79 149.45C234.293 153.997 234.881 158.796 234.52 163.57C234.03 168.79 232.66 173.81 231.78 178.95C230.822 184.061 231.097 189.327 232.58 194.31C233.89 198.89 235.77 203.31 236.98 207.92C238.82 214.92 238.53 221.92 237.33 228.83L237.29 228.82Z" fill="white"/>
</g>
<g opacity="0.5">
<path d="M256.49 228.82H249.81C250.298 226.528 250.632 224.206 250.81 221.87C251.145 216.465 250.393 211.049 248.6 205.94C247.01 201.12 245.04 196.38 244.2 191.29C243.487 186.187 243.673 180.999 244.75 175.96C245.7 170.85 247.21 165.76 247.23 160.49C247.25 155.22 245 150.56 243.91 145.49C242.05 136.75 244.2 128.25 247.16 120.18C249.99 119.38 252.69 118.65 255.16 118.01C252.973 122.998 251.32 128.204 250.23 133.54C249.23 139.25 250.34 144.05 251.98 149.45C253.483 153.996 254.071 158.795 253.71 163.57C253.22 168.79 251.85 173.81 250.97 178.95C250.012 184.061 250.286 189.326 251.77 194.31C253.1 198.89 254.96 203.31 256.17 207.92C258.03 214.92 257.72 221.92 256.52 228.83L256.49 228.82Z" fill="white"/>
</g>
<g opacity="0.5">
<path d="M432.99 256.59L426.37 289.51H33.4696L26.8496 256.59H432.99Z" fill="white"/>
</g>
</g>
<defs>
<clipPath id="clip0_1211_9882">
<rect width="470.7" height="444.21" fill="white"/>
</clipPath>
</defs>
</svg>
