<svg width="455" height="459" viewBox="0 0 455 459" fill="none" xmlns="http://www.w3.org/2000/svg">
<g clip-path="url(#clip0_1211_9580)">
<g opacity="0.18">
<path d="M416.8 367.21C457.06 303.57 467 246.43 438.37 196.12C398.76 126.5 330.51 56.6304 262.55 18.9004C237.23 4.84039 207 -4.4396 173 2.1804C109.91 14.4704 20.0004 90.6604 2.58038 156.4C-5.17962 185.66 5.85038 210.54 18.5804 231.63C67.1004 311.9 141.93 369.15 213.75 427.79C230.4 441.39 247.82 455.48 271.53 457.87C321.83 462.95 385.71 416.36 416.8 367.2V367.21Z" fill="#E6E6E6"/>
</g>
<path d="M330.62 80.4003C315.81 70.9103 294.47 72.5803 278.4 77.3403C261.29 82.4103 246 92.8603 234 106C219 122.38 208.67 146 216.52 166.73C223.76 185.86 245.25 197.05 265.7 196.6C286.15 196.15 305.28 186 321 172.85C329.77 165.5 337.85 157 342.94 146.75C352.56 127.38 351.17 94.7503 331.83 81.1903C331.45 80.9169 331.06 80.6569 330.66 80.4103L330.62 80.4003Z" fill="#EA8608"/>
<g opacity="0.1">
<path d="M330.62 80.4003C315.81 70.9103 294.47 72.5803 278.4 77.3403C261.29 82.4103 246 92.8603 234 106C219 122.38 208.67 146 216.52 166.73C223.76 185.86 245.25 197.05 265.7 196.6C286.15 196.15 305.28 186 321 172.85C329.77 165.5 337.85 157 342.94 146.75C352.56 127.38 351.17 94.7503 331.83 81.1903C331.45 80.9169 331.06 80.6569 330.66 80.4103L330.62 80.4003Z" fill="#000001"/>
</g>
<path d="M305.861 91.911C310.861 88.071 319.231 88.631 322.491 94.031C321.491 87.571 320.491 80.911 322.061 74.561C323.631 68.211 328.261 62.151 334.701 61.001C341.141 59.851 347.571 64.001 351.101 69.481C349.771 64.711 350.281 59.241 353.341 55.351C356.401 51.461 362.341 49.731 366.601 52.181C368.507 53.3826 370.093 55.0299 371.221 56.981C375.428 63.6309 376.984 71.6183 375.581 79.361C376.858 75.9484 378.787 72.8169 381.261 70.141C381.903 69.335 382.764 68.731 383.741 68.401C385.201 68.041 386.741 68.851 387.851 69.831C392.621 73.901 394.001 80.701 394.001 87.001C394.001 101.481 388.221 115.681 379.001 126.871C369.781 138.061 357.351 146.321 343.891 151.651C338.891 153.651 333.561 155.261 328.141 155.211C314.861 155.091 302.431 143.011 302.291 129.681C302.171 117.951 294.291 100.841 305.841 91.971L305.861 91.911Z" fill="#003049"/>
<path d="M48.0004 324.29C45.2504 322.59 42.4004 321.03 39.8404 319.07C36.3304 316.38 33.2804 312.65 32.8404 308.25C32.2404 302.56 36.3604 297.07 41.6604 294.9C46.9604 292.73 53.0704 293.43 58.3904 295.53C56.5004 290.08 54.5904 284.53 54.3904 278.77C54.1904 273.01 55.7404 266.89 60.0004 263C64.9004 258.55 72.1704 257.87 78.7604 258.55C85.4391 259.249 91.9476 261.092 98.0004 264C103 266.4 108.13 272.51 113.14 274C118.15 275.49 124.96 272.48 130.48 273.4C138.392 274.672 145.556 278.819 150.598 285.048C155.64 291.276 158.205 299.147 157.8 307.15C143.32 315.977 129.084 325.194 115.09 334.8C101.66 344 89.0004 355.51 75.0004 363.78C66.2204 368.97 50.2904 367.29 43.8004 358.67C39.5904 353.09 41.0004 343.46 47.5204 341C42.9004 340.42 37.1604 338.8 36.5204 334.19C36.0804 331.04 38.6004 328.08 41.5204 326.93C44.4404 325.78 47.7804 325.99 50.9504 326.23C49.9504 325.54 48.9504 324.89 47.9504 324.23L48.0004 324.29Z" fill="#003049"/>
<path d="M132.89 336.191C117.59 332.101 111.67 322.301 101.66 311.411C91.5635 300.493 83.5121 287.849 77.89 274.081C66.89 246.741 67.61 215.721 83.89 190.611C98.89 167.421 124.89 152.001 152.23 148.251C164.89 146.521 178.49 146.921 189.35 140.181C202.35 132.111 207.84 116.051 218.55 105.111C230.28 93.1113 247.98 88.1113 264.68 89.6213C281.38 91.1313 297.08 98.7413 310.44 108.871C327.17 121.551 340.79 138.511 348.59 158.001C355.302 174.84 357.608 193.113 355.29 211.091C354.261 219.281 352.16 227.3 349.04 234.941C345.859 242.373 341.875 249.435 337.16 256.001C318.22 283.001 291.08 303.671 261.02 317.151C230.96 330.631 198.02 337.091 165.12 338.531C154.32 339.001 143.35 338.931 132.9 336.141L132.89 336.191Z" fill="white"/>
<path d="M231.183 272.613C259.001 253.077 268.708 218.949 252.863 196.387C237.017 173.825 201.621 171.373 173.803 190.909C145.985 210.446 136.279 244.573 152.124 267.135C167.969 289.697 203.365 292.15 231.183 272.613Z" fill="#FFD200"/>
<path d="M423.911 82.451V394.071C423.911 397.548 422.529 400.883 420.071 403.341C417.612 405.8 414.278 407.181 410.801 407.181H39.2306C26.9906 407.181 21.4306 391.891 30.8106 384.021L402.381 72.411C404.29 70.8114 406.615 69.7886 409.084 69.4625C411.553 69.1364 414.064 69.5204 416.323 70.5696C418.582 71.6187 420.495 73.2897 421.839 75.3868C423.183 77.4839 423.901 79.9204 423.911 82.411V82.451Z" fill="#EA8608"/>
<g opacity="0.3">
<path d="M423.92 82.4505V92.0005C423.375 92.3288 422.856 92.7 422.37 93.1105L50.79 404.741C49.9191 405.456 49.1429 406.279 48.48 407.191H39.21C26.97 407.191 21.41 391.911 30.78 384.021L402.37 72.4105C404.28 70.8089 406.607 69.7846 409.078 69.4573C411.549 69.1301 414.062 69.5135 416.323 70.5627C418.584 71.6119 420.499 73.2834 421.844 75.3816C423.19 77.4799 423.91 79.918 423.92 82.4105V82.4505Z" fill="white"/>
</g>
<g opacity="0.3">
<path d="M167.62 221.001C167.32 223.391 167.55 226.081 169.26 227.791C170.091 228.519 171.089 229.031 172.165 229.282C173.241 229.533 174.363 229.515 175.43 229.231C177.574 228.643 179.603 227.696 181.43 226.431C187.7 222.561 215.43 201.641 196.79 195.531C184.96 191.641 168.96 210.651 167.66 220.991L167.62 221.001Z" fill="white"/>
</g>
<g opacity="0.05">
<path d="M373.311 203.331C369.431 199.771 364.561 200.181 360.661 203.331L349.071 212.691C345.411 215.641 345.771 222.311 349.071 225.341C352.951 228.901 357.821 228.491 361.721 225.341L373.311 216.001C377.001 213.001 376.611 206.361 373.311 203.331Z" fill="#000001"/>
</g>
<g opacity="0.05">
<path d="M341.581 264.77L314.581 288.45C305.921 296.06 318.581 308.67 327.231 301.1L354.231 277.42C362.891 269.81 350.201 257.2 341.581 264.77Z" fill="#000001"/>
</g>
<g opacity="0.05">
<path d="M265.691 338.54C262.111 334.96 256.691 335.32 253.041 338.54L233.731 355.75C230.121 358.96 230.451 365.12 233.731 368.4C237.311 371.98 242.731 371.62 246.381 368.4L265.691 351.19C269.301 348 269.001 341.82 265.691 338.54Z" fill="#000001"/>
</g>
<g opacity="0.05">
<path d="M276.5 261.551C268.506 269.775 259.92 277.402 250.81 284.371C246.97 287.281 244.96 292.081 247.6 296.601C249.81 300.381 255.96 302.741 259.83 299.811C270.214 292 280.01 283.437 289.14 274.191C297.2 265.971 284.57 253.311 276.49 261.541L276.5 261.551Z" fill="#000001"/>
</g>
<g opacity="0.05">
<path d="M195.19 344.59C193.96 342.59 192.008 341.141 189.738 340.543C187.468 339.945 185.055 340.245 183 341.38L171.9 347.58C167.81 349.86 166.11 355.81 168.69 359.81C169.923 361.806 171.877 363.251 174.146 363.844C176.416 364.438 178.827 364.136 180.88 363L191.98 356.8C196.07 354.54 197.77 348.59 195.19 344.59Z" fill="#000001"/>
</g>
<g opacity="0.05">
<path d="M365.82 336.681C359.42 342.509 352.501 347.741 345.15 352.311C335.41 358.391 344.37 373.871 354.15 367.751C362.787 362.354 370.917 356.185 378.44 349.321C386.97 341.551 374.29 328.931 365.79 336.671L365.82 336.681Z" fill="#000001"/>
</g>
<g opacity="0.05">
<path d="M320.381 218.74C320.023 217.637 319.386 216.645 318.531 215.86L316.721 214.46C315.354 213.656 313.796 213.235 312.211 213.24L309.831 213.56C308.337 213.972 306.976 214.764 305.881 215.86L303.881 217.86C302.605 219.098 301.742 220.7 301.411 222.447C301.08 224.194 301.296 226.001 302.031 227.62C302.389 228.724 303.026 229.716 303.881 230.5L305.691 231.9C307.057 232.705 308.615 233.126 310.201 233.12L312.581 232.8C314.075 232.389 315.436 231.596 316.531 230.5L318.531 228.5C319.807 227.262 320.67 225.66 321.001 223.913C321.332 222.166 321.116 220.36 320.381 218.74Z" fill="#000001"/>
</g>
<g opacity="0.05">
<path d="M131.611 369.5C120.101 369.5 120.081 387.38 131.611 387.38C143.141 387.38 143.141 369.5 131.611 369.5Z" fill="#000001"/>
</g>
<g opacity="0.05">
<path d="M401.5 238.611C389.99 238.611 389.97 256.491 401.5 256.491C413.03 256.491 413 238.611 401.5 238.611Z" fill="#000001"/>
</g>
<g opacity="0.05">
<path d="M411.001 141.94C407.571 138.79 401.711 138.24 398.351 141.94L390.131 150.94C386.981 154.4 386.461 160.21 390.131 163.59C393.561 166.74 399.421 167.29 402.781 163.59L411.001 154.59C414.181 151.13 414.701 145.32 411.001 141.94Z" fill="#000001"/>
</g>
</g>
<defs>
<clipPath id="clip0_1211_9580">
<rect width="454.76" height="458.25" fill="white"/>
</clipPath>
</defs>
</svg>
