<svg width="467" height="458" viewBox="0 0 467 458" fill="none" xmlns="http://www.w3.org/2000/svg">
<g clip-path="url(#clip0_1211_9861)">
<path opacity="0.18" d="M227.08 65.3691C181.92 69.3691 137.66 80.8691 96.6597 100.319C62.8197 116.369 31.9997 138.479 16.2697 173.369C-6.6303 224.319 -9.5803 304.369 35.2697 345.369C61.0497 368.929 98.5297 372.869 133.12 377.639C188.28 385.249 243.4 397.859 298.97 394.429C357.71 390.799 417.78 365.809 446.7 311.989C458.57 289.899 463.5 264.729 465.8 239.749C470.8 185.319 452.16 119.569 407.9 83.1891C390.76 69.0991 368.84 66.8591 347.46 65.2591C307.53 62.2591 266.94 61.8491 227.05 65.3791L227.08 65.3691Z" fill="#E6E6E6"/>
<path d="M446.69 313.489C444.52 314.099 412.36 318.159 366.09 323.819C317.53 329.729 253.43 337.429 192.24 344.729V380.109C192.24 388.729 185.74 396.249 177.14 396.819C174.929 396.967 172.711 396.659 170.624 395.914C168.537 395.17 166.626 394.004 165.008 392.49C163.391 390.975 162.102 389.144 161.221 387.111C160.341 385.078 159.888 382.885 159.89 380.669L161.31 339.999C161.432 337.802 161.105 335.603 160.348 333.537C159.592 331.471 158.421 329.58 156.909 327.982C155.397 326.383 153.575 325.11 151.554 324.239C149.533 323.369 147.355 322.92 145.155 322.92C142.954 322.92 140.777 323.369 138.756 324.239C136.735 325.11 134.912 326.383 133.4 327.982C131.888 329.58 130.718 331.471 129.961 333.537C129.205 335.603 128.877 337.802 129 339.999L126.85 394.619C126.853 397.609 126.028 400.541 124.465 403.09C122.903 405.638 120.664 407.704 117.999 409.057C115.333 410.41 112.344 410.998 109.364 410.754C106.385 410.511 103.531 409.447 101.12 407.679V441.679C101.119 443.892 100.664 446.082 99.7839 448.112C98.9036 450.143 97.6164 451.971 96.0016 453.485C94.3869 454.999 92.479 456.165 90.3958 456.912C88.3126 457.659 86.0984 457.971 83.8898 457.829C75.2798 457.289 68.7698 449.769 68.7698 441.149V359.419L17.3498 365.519C15.4325 365.744 13.4913 365.404 11.7647 364.541C10.0381 363.677 8.60111 362.329 7.63036 360.66C6.6596 358.992 6.1973 357.076 6.30023 355.148C6.40317 353.221 7.06685 351.365 8.20977 349.809C46.9998 296.859 167.4 144.809 234.32 60.8893C261.37 26.9993 279.69 4.22931 280.4 3.57931C283.24 1.00931 290.08 -5.79069 317.88 10.8193C345.68 27.4293 394.5 84.5793 436.17 179.179C477.84 273.779 454.91 311.179 446.69 313.499V313.489Z" fill="#EA8608"/>
<path opacity="0.1" d="M446.69 313.489C445.69 313.779 438.34 314.799 426.18 316.349C411.93 318.169 391.06 320.769 366.09 323.819C361.9 306.459 362.27 288.129 368.16 271.229C368.83 269.349 369.56 267.349 369.1 265.389C368.58 263.219 366.72 261.649 365.1 260.109C360.305 255.588 356.621 250.02 354.337 243.839C352.052 237.658 351.228 231.032 351.93 224.479C352.85 216.549 356.02 208.809 355.52 200.849C354.62 186.599 342.58 175.849 330.94 167.539C319.3 159.229 306.31 150.719 301.8 137.189C296.54 121.449 304.28 103.029 297.02 88.1193C289.15 71.8993 268.28 68.1193 250.52 65.0393C245.025 64.0993 239.617 62.7113 234.35 60.8893C246.77 45.3193 257.35 32.1293 265.22 22.3193C274.48 10.7593 280 3.92931 280.4 3.57931C283.24 1.00931 290.08 -5.79069 317.88 10.8193C345.68 27.4293 394.5 84.5793 436.17 179.179C477.84 273.779 454.91 311.179 446.69 313.499V313.489Z" fill="black"/>
<path opacity="0.4" d="M265.199 149.609C279.006 149.609 290.199 138.416 290.199 124.609C290.199 110.802 279.006 99.6094 265.199 99.6094C251.392 99.6094 240.199 110.802 240.199 124.609C240.199 138.416 251.392 149.609 265.199 149.609Z" fill="white"/>
<path opacity="0.4" d="M308.09 239.279C321.897 239.279 333.09 228.086 333.09 214.279C333.09 200.472 321.897 189.279 308.09 189.279C294.283 189.279 283.09 200.472 283.09 214.279C283.09 228.086 294.283 239.279 308.09 239.279Z" fill="white"/>
<path opacity="0.4" d="M163.24 238.519C176.627 238.519 187.48 227.666 187.48 214.279C187.48 200.892 176.627 190.039 163.24 190.039C149.853 190.039 139 200.892 139 214.279C139 227.666 149.853 238.519 163.24 238.519Z" fill="white"/>
<path opacity="0.4" d="M254.169 249.49C253.246 252.536 251.732 255.371 249.713 257.833C247.694 260.294 245.21 262.334 242.403 263.836C239.596 265.337 236.521 266.271 233.353 266.584C230.185 266.897 226.986 266.583 223.939 265.66C220.893 264.737 218.058 263.222 215.596 261.203C213.135 259.185 211.095 256.701 209.593 253.894C208.092 251.087 207.158 248.011 206.845 244.843C206.532 241.675 206.846 238.476 207.769 235.43L254.169 249.49Z" fill="white"/>
<path d="M144.51 281.84C144.51 281.84 149.64 257.91 130.51 251.66C111.38 245.41 115.79 269.66 115.79 269.66C115.79 269.66 91.5397 266.66 91.4597 272.05C91.3797 277.44 91.6497 293.31 98.4597 291.67C105.27 290.03 117.34 281.32 117.34 281.32C117.34 281.32 118.26 291.96 127.7 294.86C137.14 297.76 141.87 291.01 144.56 281.86L144.51 281.84Z" fill="#FFD200"/>
<path d="M292.36 265.409C292.36 265.409 273 280.309 283.5 297.499C294 314.689 306.37 293.339 306.37 293.339C306.37 293.339 322.89 311.339 326.45 307.339C330.01 303.339 340.09 291.029 333.83 287.859C327.57 284.689 312.75 283.499 312.75 283.499C312.75 283.499 318.95 274.799 313.64 266.499C308.33 258.199 300.36 260.249 292.37 265.499L292.36 265.409Z" fill="#FFD200"/>
<path d="M260.16 188.81C260.16 188.81 262.92 164.49 243.22 160.15C223.52 155.81 230.33 179.49 230.33 179.49C230.33 179.49 205.9 178.87 206.33 184.25C206.76 189.63 208.6 205.39 215.23 203.09C221.86 200.79 233 190.94 233 190.94C233 190.94 235 201.44 244.64 203.4C254.28 205.36 258.36 198.18 260.14 188.8L260.16 188.81Z" fill="#FFD200"/>
<path d="M209.57 280.479C209.57 280.479 189.49 285.059 191.57 301.909C193.65 318.759 210.52 306.759 210.52 306.759C210.52 306.759 216.83 326.329 220.97 324.479C225.11 322.629 237.13 316.789 233.45 312.169C229.77 307.549 218.86 301.439 218.86 301.439C218.86 301.439 226.65 296.959 225.52 288.729C224.39 280.499 217.52 279.289 209.61 280.479H209.57Z" fill="#FFD200"/>
<path d="M446.69 313.49C445.69 313.78 438.34 314.8 426.18 316.35C426.089 311.475 426.34 306.599 426.93 301.76C427.66 295.76 428.87 289.66 427.35 283.85C425.26 275.75 418.27 269.7 415.7 261.73C413.38 254.49 414.97 246.64 414.76 239.04C414.51 229.9 411.65 221.04 408.21 212.6C402.376 198.307 394.842 184.77 385.77 172.28C379.77 164.06 373.04 156.04 370.22 146.28C368.45 140.14 368.38 133.67 367.49 127.28C365.24 111.28 357.43 95.8495 344.95 85.5395C339.32 80.8895 332.87 77.3195 327.27 72.6195C317.19 64.1895 310.37 52.5195 301.18 43.1295C291.245 33.1004 278.82 25.8971 265.18 22.2595C274.49 10.7495 280 3.91955 280.41 3.56955C283.25 0.999545 290.09 -5.80046 317.89 10.8095C345.69 27.4195 394.51 84.5695 436.18 179.17C477.85 273.77 454.92 311.17 446.7 313.49H446.69Z" fill="#003049"/>
<path opacity="0.1" d="M217.92 136.2C215.905 135.741 213.815 135.716 211.789 136.126C209.763 136.536 207.848 137.373 206.17 138.58C204.407 139.817 202.905 141.391 201.75 143.21C200.608 145.124 199.924 147.277 199.75 149.5C199.747 150.005 199.845 150.505 200.037 150.972C200.229 151.439 200.512 151.864 200.869 152.221C201.226 152.578 201.65 152.861 202.117 153.053C202.585 153.245 203.085 153.342 203.59 153.34C204.608 153.336 205.584 152.934 206.31 152.22C206.889 151.583 207.259 150.783 207.37 149.93V150.16C207.449 149.597 207.573 149.042 207.74 148.5L207.89 148.1L208.08 147.7C208.22 147.44 208.37 147.18 208.53 146.93L208.79 146.58C209.075 146.227 209.383 145.893 209.71 145.58L210.25 145.1L210.4 144.99C210.869 144.669 211.36 144.381 211.87 144.13H211.98C212.22 144.07 212.48 143.94 212.7 143.87C213.121 143.752 213.548 143.658 213.98 143.59C214.533 143.55 215.087 143.55 215.64 143.59L215.94 143.65C216.437 143.817 216.962 143.881 217.485 143.838C218.007 143.795 218.515 143.645 218.977 143.398C219.44 143.151 219.846 142.812 220.173 142.402C220.499 141.992 220.738 141.519 220.875 141.013C221.011 140.507 221.043 139.979 220.968 139.46C220.893 138.941 220.712 138.443 220.437 137.997C220.162 137.551 219.799 137.166 219.369 136.865C218.94 136.565 218.453 136.355 217.94 136.25L217.92 136.2Z" fill="black"/>
<path opacity="0.1" d="M284 247.2C283.727 246.221 283.077 245.389 282.192 244.887C281.308 244.385 280.261 244.253 279.28 244.52C278.313 244.813 277.496 245.467 276.997 246.345C276.499 247.223 276.356 248.26 276.6 249.24C276.597 249.287 276.597 249.333 276.6 249.38V249.44C276.6 249.75 276.6 250.05 276.65 250.36C276.7 250.67 276.65 250.98 276.65 251.28C276.66 251.45 276.66 251.62 276.65 251.79V251.86C276.564 252.377 276.444 252.889 276.29 253.39C276.2 253.69 276.11 253.98 276 254.27C276 254.27 275.94 254.41 275.91 254.5C275.649 255.059 275.352 255.6 275.02 256.12C274.92 256.28 274.8 256.48 274.68 256.66L274.35 257.05C273.922 257.541 273.457 257.999 272.96 258.42L272.85 258.51L272.76 258.58C272.48 258.778 272.189 258.962 271.89 259.13C271.439 259.376 271.042 259.71 270.723 260.112C270.403 260.514 270.168 260.976 270.03 261.471C269.893 261.966 269.855 262.483 269.921 262.993C269.987 263.502 270.154 263.993 270.413 264.436C270.672 264.88 271.017 265.267 271.429 265.575C271.84 265.883 272.308 266.105 272.807 266.228C273.305 266.352 273.824 266.374 274.331 266.293C274.838 266.213 275.324 266.032 275.76 265.76C278.764 263.978 281.159 261.329 282.63 258.16C284.227 254.728 284.722 250.885 284.05 247.16L284 247.2Z" fill="black"/>
<path opacity="0.1" d="M183.69 273.729C182.935 273.06 181.977 272.666 180.97 272.609C177.43 272.207 173.845 272.547 170.443 273.605C167.041 274.664 163.897 276.419 161.21 278.759C160.495 279.482 160.094 280.457 160.094 281.474C160.094 282.491 160.495 283.466 161.21 284.189C161.942 284.885 162.914 285.274 163.925 285.274C164.936 285.274 165.908 284.885 166.64 284.189C166.82 284.039 167.64 283.189 166.93 283.929C167.203 283.688 167.502 283.477 167.82 283.299C168.42 282.889 169.05 282.519 169.69 282.169C170.01 281.999 170.34 281.829 170.69 281.679L171.06 281.509C171.73 281.259 172.4 281.009 173.06 280.809C173.72 280.609 174.47 280.439 175.19 280.309L175.73 280.219C176.16 280.159 176.09 280.159 175.52 280.219C175.876 280.131 176.244 280.097 176.61 280.119C178.065 280.019 179.526 280.069 180.97 280.269C181.475 280.272 181.976 280.174 182.443 279.982C182.91 279.79 183.334 279.507 183.691 279.15C184.048 278.793 184.331 278.369 184.523 277.902C184.715 277.435 184.813 276.934 184.81 276.429C184.806 275.411 184.404 274.435 183.69 273.709V273.729Z" fill="black"/>
<path opacity="0.1" d="M110.81 348.421C110.2 346.551 108.12 345.031 106.09 345.741C104.712 346.198 103.296 346.532 101.86 346.741C100.019 346.95 98.1603 346.95 96.3196 346.741C95.8996 346.671 95.4896 346.611 95.0696 346.521C94.573 346.353 94.0473 346.289 93.5249 346.332C93.0026 346.375 92.4946 346.525 92.0323 346.772C91.57 347.019 91.1632 347.358 90.8369 347.768C90.5106 348.178 90.2717 348.651 90.135 349.157C89.9982 349.663 89.9665 350.192 90.0418 350.71C90.117 351.229 90.2977 351.727 90.5726 352.173C90.8475 352.619 91.2109 353.005 91.6403 353.305C92.0697 353.606 92.5562 353.815 93.0696 353.921C98.0819 355.041 103.306 354.76 108.17 353.111C109.14 352.824 109.962 352.172 110.462 351.291C110.962 350.411 111.101 349.371 110.85 348.391L110.81 348.421Z" fill="black"/>
<path opacity="0.1" d="M129.42 233.77C126.211 230.707 122.026 228.873 117.6 228.59C116.582 228.594 115.605 228.996 114.88 229.71C114.162 230.433 113.759 231.411 113.76 232.43C113.764 233.448 114.166 234.424 114.88 235.15C115.621 235.84 116.588 236.238 117.6 236.27H117.82C118.824 236.432 119.809 236.696 120.76 237.06C121.604 237.452 122.411 237.921 123.17 238.46C123.45 238.69 123.73 238.92 123.99 239.17C124.721 239.875 125.694 240.276 126.71 240.29C127.726 240.276 128.698 239.875 129.43 239.17C129.786 238.812 130.068 238.388 130.261 237.921C130.453 237.455 130.551 236.955 130.55 236.45C130.535 235.434 130.135 234.461 129.43 233.73L129.42 233.77Z" fill="black"/>
<path opacity="0.1" d="M277.11 311C276.863 310.57 276.533 310.194 276.14 309.892C275.747 309.59 275.299 309.368 274.82 309.24C274.248 309.126 273.686 308.965 273.14 308.76C272.517 308.477 271.918 308.142 271.35 307.76C270.847 307.334 270.382 306.866 269.96 306.36C269.58 305.829 269.246 305.267 268.96 304.68C268.87 304.45 268.78 304.21 268.71 303.97C268.439 302.989 267.79 302.156 266.905 301.653C266.02 301.151 264.971 301.02 263.99 301.29C263.018 301.575 262.194 302.226 261.694 303.107C261.194 303.988 261.056 305.029 261.31 306.01C262.087 308.653 263.561 311.039 265.577 312.916C267.593 314.793 270.078 316.094 272.77 316.68C273.783 316.94 274.857 316.801 275.77 316.29C276.205 316.036 276.586 315.698 276.891 315.297C277.195 314.895 277.418 314.437 277.545 313.949C277.672 313.462 277.702 312.954 277.632 312.454C277.563 311.955 277.396 311.474 277.14 311.04L277.11 311Z" fill="black"/>
</g>
<defs>
<clipPath id="clip0_1211_9861">
<rect width="466.61" height="457.88" fill="white"/>
</clipPath>
</defs>
</svg>
