<svg width="464" height="439" viewBox="0 0 464 439" fill="none" xmlns="http://www.w3.org/2000/svg">
<g clip-path="url(#clip0_1211_9799)">
<path opacity="0.18" d="M458.72 163.77C442.34 89.9997 389.81 43.8997 340.45 19.5197C267.37 -16.5803 180.74 4.51966 106.72 25.9597C79.1396 33.9997 51.4396 48.8497 32.2596 77.7197C-3.29036 131.22 -12.8904 249.16 20.9396 308.23C35.9996 334.52 61.1496 344.36 84.8496 350.29C175.04 372.85 267.56 360.36 358.93 351C380.12 348.83 402.19 346.47 420.47 331.33C459.26 299.22 471.36 220.77 458.72 163.78V163.77Z" fill="#E6E6E6"/>
<path d="M447.77 420.84H32.8799C30.1406 420.84 27.9199 423.061 27.9199 425.8V433.66C27.9199 436.399 30.1406 438.62 32.8799 438.62H447.77C450.509 438.62 452.73 436.399 452.73 433.66V425.8C452.73 423.061 450.509 420.84 447.77 420.84Z" fill="#E6E6E6"/>
<path d="M152.629 77.3496H144.699V219.06H152.629V77.3496Z" fill="#FFD200"/>
<path d="M245.99 181.49H78.7695V200.93H245.99V181.49Z" fill="#EA8608"/>
<path d="M242.16 181.49H82.5995C80.4843 181.49 78.7695 183.205 78.7695 185.32V197.1C78.7695 199.215 80.4843 200.93 82.5995 200.93H242.16C244.275 200.93 245.99 199.215 245.99 197.1V185.32C245.99 183.205 244.275 181.49 242.16 181.49Z" fill="#EA8608"/>
<path d="M239.12 200.93L230.89 312.11L226.02 377.71L222.77 421.42H101.99L92.4097 292.22L87.3396 224.01L85.6396 200.93H239.12Z" fill="#EA8608"/>
<path d="M230.89 312.11L226 377.71C223.6 376.71 221.19 375.63 218.73 374.54C194.81 363.96 173.13 351.72 152.39 335.73C132.29 320.24 116.86 306.08 95.1199 293.73C94.1999 293.21 93.2998 292.73 92.3898 292.23L87.3398 224C118.28 232.84 146.91 252.67 172.16 272.75C190.59 287.4 207.3 300.52 229.75 311.56L230.89 312.1V312.11Z" fill="#FFD200"/>
<g opacity="0.4">
<path d="M239.12 200.93L230.89 312.11L226.02 377.71L222.77 421.42H101.99L92.4097 292.22L87.3396 224.01L85.6396 200.93H239.12Z" fill="white"/>
<path d="M230.89 312.11L226 377.71C223.6 376.71 221.19 375.63 218.73 374.54C194.81 363.96 173.13 351.72 152.39 335.73C132.29 320.24 116.86 306.08 95.1199 293.73C94.1999 293.21 93.2998 292.73 92.3898 292.23L87.3398 224C118.28 232.84 146.91 252.67 172.16 272.75C190.59 287.4 207.3 300.52 229.75 311.56L230.89 312.1V312.11Z" fill="white"/>
</g>
<path d="M150.38 384.41H396.47V402.41C396.47 407.449 394.468 412.282 390.905 415.845C387.342 419.408 382.509 421.41 377.47 421.41H169.47C164.431 421.41 159.598 419.408 156.035 415.845C152.472 412.282 150.47 407.449 150.47 402.41V384.41H150.38Z" fill="#EA8608"/>
<path d="M152.84 372.33C148.1 374.56 144.21 377.84 143.05 383.18C142.27 386.77 142.18 390.89 144.66 393.67C146.098 395.117 147.886 396.168 149.85 396.72C157.04 399.12 163.38 398.25 170.52 397.07C178.59 395.74 186.22 399.51 194.31 400.01C199.56 400.33 204.13 399.34 209.15 400.14C214.908 401.221 220.821 401.17 226.56 399.99C233.63 398.49 240.71 396.22 247.92 396.85C255.97 397.55 263.56 401.85 271.62 401.28C278.73 400.79 285.13 396.58 292.24 396.15C300.09 395.68 307.51 399.86 315.36 400.15C324.43 400.46 332.84 395.57 341.87 394.68C348.2 394.06 354.53 395.42 360.87 396.33C368.068 397.37 375.339 397.811 382.61 397.65C388.74 397.51 395.45 396.7 399.67 392.42C403.57 388.47 405.8 379.1 403.07 374.01C400.57 369.35 392.84 367.91 387.99 366.61C330.8 351.27 270.4 350.15 211.24 354.94C202.64 355.64 193.97 356.47 185.73 358.94C178.996 360.925 172.628 363.985 166.87 368C162.48 369.09 157.29 370.26 152.87 372.35L152.84 372.33Z" fill="#EA8608"/>
<path opacity="0.1" d="M152.84 372.33C148.1 374.56 144.21 377.84 143.05 383.18C142.27 386.77 142.18 390.89 144.66 393.67C146.098 395.117 147.886 396.168 149.85 396.72C157.04 399.12 163.38 398.25 170.52 397.07C178.59 395.74 186.22 399.51 194.31 400.01C199.56 400.33 204.13 399.34 209.15 400.14C214.908 401.221 220.821 401.17 226.56 399.99C233.63 398.49 240.71 396.22 247.92 396.85C255.97 397.55 263.56 401.85 271.62 401.28C278.73 400.79 285.13 396.58 292.24 396.15C300.09 395.68 307.51 399.86 315.36 400.15C324.43 400.46 332.84 395.57 341.87 394.68C348.2 394.06 354.53 395.42 360.87 396.33C368.068 397.37 375.339 397.811 382.61 397.65C388.74 397.51 395.45 396.7 399.67 392.42C403.57 388.47 405.8 379.1 403.07 374.01C400.57 369.35 392.84 367.91 387.99 366.61C330.8 351.27 270.4 350.15 211.24 354.94C202.64 355.64 193.97 356.47 185.73 358.94C178.996 360.925 172.628 363.985 166.87 368C162.48 369.09 157.29 370.26 152.87 372.35L152.84 372.33Z" fill="black"/>
<path d="M400.02 323.359H146.83C143.295 323.359 140.43 326.225 140.43 329.759V343.399C140.43 346.934 143.295 349.799 146.83 349.799H400.02C403.554 349.799 406.42 346.934 406.42 343.399V329.759C406.42 326.225 403.554 323.359 400.02 323.359Z" fill="#003049"/>
<path d="M400.02 349.799H146.83C143.295 349.799 140.43 352.664 140.43 356.199V369.839C140.43 373.373 143.295 376.239 146.83 376.239H400.02C403.554 376.239 406.42 373.373 406.42 369.839V356.199C406.42 352.664 403.554 349.799 400.02 349.799Z" fill="#003049"/>
<path d="M320.929 367.04L388.349 348.17L267.819 350.18L320.929 367.04Z" fill="#FFD200"/>
<path d="M146.39 310.39C146.39 259.95 203.27 219.07 273.39 219.07C343.51 219.07 400.39 259.96 400.39 310.39H146.39Z" fill="#EA8608"/>
<path d="M162.38 328.169L225.51 359.249L353.68 323.359L162.38 326.569" fill="#FFD200"/>
<path d="M140.369 314.291C138.081 317.348 136.922 321.105 137.089 324.921C137.179 331.511 140.899 338.54 147.259 340.27C155.389 342.47 163.059 335.551 171.369 334.171C182.139 332.391 193.019 340.081 203.629 337.511C208.019 336.441 211.939 333.66 216.429 333.16C223.319 332.38 229.679 337.07 236.589 337.71C244.929 338.48 252.949 333.28 261.289 333.99C268.389 334.6 274.989 339.441 282.029 338.381C285.169 337.901 288.029 336.29 290.929 335.11C297.025 332.696 303.7 332.146 310.109 333.53C318.829 335.44 328.199 340.8 335.969 336.4C338.069 335.21 339.749 333.4 341.739 332.06C344.791 329.981 348.455 328.991 352.139 329.25C356.819 329.59 361.079 331.89 365.339 333.86C374.709 338.404 385.328 339.685 395.509 337.5C403.759 335.8 413.329 327.62 409.509 318.5C406.379 311.04 397.639 310.191 390.609 309.291C383.399 308.371 375.939 307.881 368.679 307.601C351.239 306.941 333.779 307.15 316.329 306.74C290.029 306.12 263.729 305.09 237.479 303.47C210.879 301.83 182.969 299.571 157.409 308.821C151.619 310.921 144.709 309.01 140.409 314.33L140.369 314.291Z" fill="#EA8608"/>
<path opacity="0.1" d="M140.369 314.291C138.081 317.348 136.922 321.105 137.089 324.921C137.179 331.511 140.899 338.54 147.259 340.27C155.389 342.47 163.059 335.551 171.369 334.171C182.139 332.391 193.019 340.081 203.629 337.511C208.019 336.441 211.939 333.66 216.429 333.16C223.319 332.38 229.679 337.07 236.589 337.71C244.929 338.48 252.949 333.28 261.289 333.99C268.389 334.6 274.989 339.441 282.029 338.381C285.169 337.901 288.029 336.29 290.929 335.11C297.025 332.696 303.7 332.146 310.109 333.53C318.829 335.44 328.199 340.8 335.969 336.4C338.069 335.21 339.749 333.4 341.739 332.06C344.791 329.981 348.455 328.991 352.139 329.25C356.819 329.59 361.079 331.89 365.339 333.86C374.709 338.404 385.328 339.685 395.509 337.5C403.759 335.8 413.329 327.62 409.509 318.5C406.379 311.04 397.639 310.191 390.609 309.291C383.399 308.371 375.939 307.881 368.679 307.601C351.239 306.941 333.779 307.15 316.329 306.74C290.029 306.12 263.729 305.09 237.479 303.47C210.879 301.83 182.969 299.571 157.409 308.821C151.619 310.921 144.709 309.01 140.409 314.33L140.369 314.291Z" fill="black"/>
<path opacity="0.1" d="M240.42 247.38C240.028 246.75 239.409 246.294 238.69 246.108C237.971 245.922 237.209 246.019 236.56 246.38L224.13 252.28C223.488 252.662 223.022 253.281 222.835 254.004C222.647 254.727 222.753 255.495 223.13 256.14C223.522 256.771 224.141 257.226 224.86 257.413C225.578 257.599 226.341 257.501 226.99 257.14L239.42 251.24C240.062 250.859 240.528 250.239 240.715 249.516C240.902 248.793 240.796 248.025 240.42 247.38Z" fill="black"/>
<path opacity="0.1" d="M209.47 282.509C208.611 282.312 207.763 282.068 206.93 281.779L206.31 281.549L206 281.429H205.95C205.61 281.289 205.26 281.109 204.95 280.939C204.161 280.537 203.397 280.09 202.66 279.599C202.32 279.369 201.99 279.129 201.66 278.889L201.5 278.759L200.93 278.279C200.39 277.763 199.677 277.467 198.93 277.449C198.181 277.456 197.464 277.754 196.93 278.279C196.405 278.812 196.11 279.531 196.11 280.279C196.11 281.028 196.405 281.746 196.93 282.279C200.069 285.059 203.848 287.018 207.93 287.979C208.651 288.178 209.422 288.082 210.073 287.713C210.724 287.343 211.201 286.731 211.4 286.009C211.599 285.288 211.503 284.517 211.134 283.866C210.764 283.215 210.151 282.738 209.43 282.539L209.47 282.509Z" fill="black"/>
<path opacity="0.1" d="M284.63 255.16C281.647 255.41 278.643 255.126 275.76 254.32C275.039 254.121 274.268 254.217 273.617 254.587C272.966 254.956 272.489 255.569 272.29 256.29C272.091 257.012 272.187 257.783 272.556 258.433C272.926 259.084 273.539 259.561 274.26 259.76C277.635 260.683 281.139 261.038 284.63 260.81C285.377 260.792 286.09 260.496 286.63 259.98C287.027 259.586 287.297 259.082 287.407 258.534C287.517 257.985 287.461 257.416 287.247 256.899C287.032 256.383 286.669 255.941 286.203 255.632C285.737 255.322 285.189 255.158 284.63 255.16Z" fill="black"/>
<path opacity="0.1" d="M274.519 281.109C272.807 278.399 270.734 275.933 268.359 273.779C267.819 273.263 267.106 272.967 266.359 272.949C265.609 272.949 264.889 273.247 264.358 273.778C263.827 274.309 263.529 275.029 263.529 275.779C263.528 276.151 263.601 276.519 263.744 276.862C263.886 277.206 264.096 277.517 264.359 277.779C265.734 279.02 267.002 280.375 268.149 281.829C268.669 282.519 269.149 283.229 269.639 283.959C270.024 284.585 270.626 285.047 271.329 285.259C271.689 285.359 272.065 285.386 272.436 285.339C272.806 285.293 273.164 285.173 273.487 284.987C273.811 284.8 274.095 284.552 274.322 284.255C274.548 283.959 274.714 283.62 274.809 283.259C274.909 282.895 274.935 282.515 274.887 282.141C274.839 281.767 274.717 281.406 274.529 281.079L274.519 281.109Z" fill="black"/>
<path opacity="0.1" d="M370.26 264.171C369.702 263.683 368.999 263.391 368.26 263.341L357.21 261.891C356.838 261.89 356.47 261.963 356.127 262.105C355.783 262.248 355.472 262.457 355.21 262.721C354.683 263.253 354.385 263.971 354.38 264.721C354.38 265.471 354.679 266.19 355.21 266.721C355.768 267.208 356.47 267.5 357.21 267.551L368.26 269.001C368.632 269.001 369 268.928 369.343 268.786C369.686 268.644 369.998 268.434 370.26 268.171C370.787 267.638 371.085 266.92 371.09 266.171C371.089 265.42 370.791 264.701 370.26 264.171Z" fill="black"/>
<path opacity="0.1" d="M329 277.871C328.608 277.24 327.989 276.784 327.27 276.598C326.551 276.412 325.789 276.51 325.14 276.871L314 282.001C313.358 282.382 312.892 283.001 312.705 283.725C312.517 284.448 312.624 285.215 313 285.861C313.392 286.491 314.011 286.947 314.73 287.133C315.449 287.319 316.211 287.222 316.86 286.861L327.99 281.741C328.637 281.361 329.106 280.74 329.296 280.015C329.485 279.289 329.379 278.518 329 277.871Z" fill="black"/>
<path opacity="0.1" d="M317.38 246.389L308.3 235.289C308.038 235.025 307.726 234.816 307.383 234.673C307.04 234.531 306.672 234.457 306.3 234.457C305.928 234.457 305.56 234.531 305.217 234.673C304.874 234.816 304.562 235.025 304.3 235.289C303.786 235.828 303.5 236.544 303.5 237.289C303.5 238.034 303.786 238.75 304.3 239.289L313.38 250.389C313.642 250.653 313.954 250.862 314.297 251.005C314.64 251.147 315.008 251.221 315.38 251.221C315.752 251.221 316.12 251.147 316.463 251.005C316.806 250.862 317.118 250.653 317.38 250.389C317.894 249.85 318.18 249.134 318.18 248.389C318.18 247.644 317.894 246.928 317.38 246.389Z" fill="black"/>
<path opacity="0.1" d="M234.409 267.82L227.189 265.45C226.464 265.26 225.693 265.364 225.044 265.738C224.394 266.113 223.919 266.728 223.719 267.45C223.54 268.175 223.648 268.941 224.021 269.588C224.394 270.235 225.002 270.712 225.719 270.92L232.939 273.29C233.665 273.481 234.435 273.377 235.085 273.003C235.734 272.628 236.21 272.013 236.409 271.29C236.589 270.566 236.481 269.8 236.108 269.153C235.735 268.506 235.126 268.029 234.409 267.82Z" fill="black"/>
<path opacity="0.1" d="M196.22 256.561C195.842 255.928 195.238 255.464 194.53 255.261C193.793 255.082 193.017 255.181 192.35 255.541L187.06 258.421C186.425 258.796 185.96 259.401 185.76 260.111C185.66 260.47 185.633 260.847 185.679 261.217C185.726 261.587 185.846 261.945 186.032 262.269C186.218 262.592 186.467 262.876 186.763 263.103C187.06 263.33 187.398 263.496 187.76 263.591C188.496 263.77 189.272 263.67 189.94 263.311L195.23 260.431C195.864 260.055 196.329 259.45 196.53 258.741C196.716 258.001 196.604 257.219 196.22 256.561Z" fill="black"/>
<path opacity="0.1" d="M371.219 292.519C368.031 289.142 364.274 286.353 360.119 284.279C359.8 284.092 359.446 283.969 359.079 283.919C358.712 283.868 358.339 283.891 357.98 283.984C357.622 284.078 357.285 284.242 356.99 284.466C356.695 284.689 356.447 284.969 356.259 285.289C356.072 285.609 355.95 285.962 355.899 286.329C355.849 286.696 355.871 287.07 355.965 287.428C356.059 287.786 356.222 288.123 356.446 288.418C356.67 288.713 356.95 288.962 357.269 289.149C359.209 290.111 361.063 291.239 362.809 292.519L363.389 292.949C362.729 292.469 363.439 292.949 363.599 293.119C364.019 293.459 364.429 293.809 364.839 294.169C365.669 294.909 366.469 295.679 367.229 296.489C367.761 297.016 368.48 297.313 369.229 297.313C369.979 297.313 370.697 297.016 371.229 296.489C371.748 295.952 372.037 295.235 372.037 294.489C372.037 293.743 371.748 293.026 371.229 292.489L371.219 292.519Z" fill="black"/>
<path opacity="0.1" d="M247.999 279.601C247.934 279.362 247.821 279.139 247.669 278.944C247.517 278.748 247.327 278.585 247.112 278.464C246.896 278.342 246.659 278.264 246.413 278.234C246.167 278.205 245.918 278.224 245.679 278.291C245.206 278.437 244.807 278.759 244.563 279.19C244.32 279.621 244.25 280.13 244.369 280.611C244.369 280.611 244.369 280.941 244.369 281.001C244.369 281.221 244.429 281.441 244.449 281.661C244.499 282.071 244.539 282.491 244.579 282.901C244.659 283.761 244.719 284.631 244.749 285.491C244.819 287.221 244.749 288.951 244.749 290.681C244.752 291.178 244.951 291.655 245.303 292.007C245.655 292.359 246.132 292.558 246.629 292.561C247.125 292.55 247.597 292.349 247.948 291.999C248.298 291.648 248.499 291.176 248.509 290.681C248.703 286.982 248.526 283.274 247.979 279.611L247.999 279.601Z" fill="black"/>
</g>
<defs>
<clipPath id="clip0_1211_9799">
<rect width="463.53" height="438.62" fill="white"/>
</clipPath>
</defs>
</svg>
