<svg width="475" height="414" viewBox="0 0 475 414" fill="none" xmlns="http://www.w3.org/2000/svg">
<g clip-path="url(#clip0_1211_9389)">
<g opacity="0.18">
<path d="M465.93 163.3C450.54 80.2996 400.22 36.2196 347.82 18.8096C275.3 -5.27043 183.56 -6.72043 113.32 17.2996C87.1495 26.2496 60.8495 42.9996 42.6095 75.3796C8.78953 135.48 -21.2705 271.26 20.0695 325.06C36.5995 346.57 64.6295 349.6 87.0695 356.31C172.56 381.81 265.14 356.7 351.81 346.31C371.91 343.9 428.94 353.43 446.31 336.43C483.16 300.38 477.8 227.43 465.91 163.28L465.93 163.3Z" fill="#E6E6E6"/>
</g>
<path d="M268.999 236.4C272.639 230.65 275.099 223.32 272.359 217.09C268.199 207.59 255.609 206.42 245.409 204.53C232.087 202.03 219.665 196.043 209.409 187.18C206.909 185.01 204.409 182.54 203.539 179.36C202.039 174.21 205.089 168.61 209.449 165.49C213.809 162.37 219.219 161.18 224.449 160.06L246.589 155.34C252.999 153.97 260.819 151.11 261.369 144.57C262.009 136.98 252.479 133.24 244.979 131.93L227.409 128.88C221.969 127.93 216.039 126.71 212.569 122.42C206.669 115.14 211.789 103.72 219.509 98.4198C228.249 92.4198 239.249 91.0898 249.789 90.0298C295.909 85.4098 342.176 83.0132 388.589 82.8398C395.299 82.8398 402.449 82.9599 408.039 86.6599C410.065 87.9316 411.65 89.796 412.579 91.9998C414.579 97.1298 411.109 103 406.339 105.77C401.569 108.54 395.849 108.83 390.339 109.18C363.662 110.908 337.151 114.632 311.029 120.32C308.739 120.82 305.939 121.93 305.899 124.27C305.969 125.307 306.393 126.288 307.099 127.05C312.699 134.16 322.879 135.05 331.559 137.53C340.239 140.01 349.559 147.89 346.649 156.44C345.429 159.98 342.309 162.54 339.019 164.32C323.479 172.73 303.109 167.48 287.829 176.32C286.726 176.825 285.839 177.708 285.329 178.81C284.249 181.93 288.639 183.89 291.919 184.26L330.619 188.61C341.099 189.79 353.409 192.24 357.619 201.89C360.839 209.19 357.869 217.76 353.619 224.48C343.769 239.94 327.619 250.19 311.449 258.79C298.079 265.89 284.189 272.25 269.609 276.4C261.129 278.81 235.899 286.8 228.309 279.4C219.459 270.78 263.309 245.18 268.919 236.4H268.999Z" fill="#E6E6E6"/>
<path d="M156.64 216.609C157.244 216.812 157.824 217.08 158.37 217.409C159.87 218.299 161.15 219.599 162.8 220.149C166.93 221.509 170.97 217.599 172.67 213.589C174.37 209.579 175 204.999 178 201.789C181 198.579 185.59 197.789 189.69 198.789C193.78 199.938 197.381 202.397 199.94 205.789C202.1 208.489 204.36 211.939 207.82 211.909C211 211.909 213.22 208.909 215.95 207.229C217.665 206.237 219.63 205.76 221.609 205.856C223.588 205.952 225.498 206.616 227.11 207.769C230.11 210.009 232 213.979 235.62 215.009C241.06 216.569 246.97 210.479 252.04 213.009C255.42 214.679 256.35 219.349 259.61 221.219C261.61 222.359 264.03 222.219 266.31 222.019C291.39 219.729 266.93 263.019 260.14 271.299C247.52 286.619 228.29 296.589 208.45 296.969C188.61 297.349 168.58 287.749 157.33 271.399C151.679 263.291 147.505 254.249 145 244.689C143.14 237.369 140.2 226.069 145.61 219.569C146.948 218.047 148.704 216.951 150.659 216.418C152.615 215.884 154.684 215.937 156.61 216.569L156.64 216.609Z" fill="#003049"/>
<path d="M94.1992 219.379C92.9192 218.869 47.3992 174.999 46.5192 171.999C45.6392 168.999 54.0792 159.609 49.8592 157.199C45.6392 154.789 34.7192 153.579 34.2092 165.359C34.2092 165.359 14.6392 163.979 17.2092 175.49C19.7792 187 35.5192 180.059 35.5192 180.059L87.6792 236.32L94.2292 219.379H94.1992Z" fill="#E6E6E6"/>
<path d="M213.26 324.54C212.406 326.398 211.291 328.125 209.95 329.67C207.791 332.113 205.351 334.291 202.68 336.16C177.74 354.28 138.34 357.86 111.51 341.6C103.292 336.55 96.2812 329.761 90.9702 321.71C85.6593 313.659 82.1775 304.541 80.7698 295C79.7698 288.21 79.9398 281.34 80.0798 274.51C80.1798 269.19 81.7198 264.37 81.2998 259.03C80.3543 246.984 75.7641 235.512 68.1398 226.14C66.6198 224.31 64.9198 222.32 64.9698 219.94C65.0198 217.56 68.1898 215.48 69.8098 217.22C69.5761 216.211 69.6925 215.153 70.1398 214.22C71.2598 211.74 74.2898 209.98 76.9098 211C77.0698 211 80.0598 203.58 80.7998 202.84C83.6398 200.03 87.3298 202.46 89.7998 204.54C96.7998 210.54 104.04 216.84 112.89 219.54C126.89 223.81 141.43 223.66 155.34 228.84C169.62 234.18 183.29 241.72 194.4 252.05C196.836 254.318 199.143 256.722 201.31 259.25C217.14 277.81 223.47 301.98 213.31 324.54H213.26Z" fill="#EA8608"/>
<g opacity="0.05">
<path d="M210 329.679C207.841 332.122 205.401 334.3 202.73 336.169C177.79 354.289 138.39 357.869 111.56 341.609C103.332 336.564 96.3103 329.775 90.9905 321.722C85.6706 313.669 82.1818 304.547 80.7698 294.999C79.7698 288.209 79.9398 281.339 80.0798 274.509C80.1798 269.189 81.7198 264.369 81.2998 259.029C80.3543 246.984 75.7641 235.512 68.1398 226.139C66.6198 224.309 64.9198 222.319 64.9698 219.939C65.0198 217.559 68.1898 215.479 69.8098 217.219C69.5761 216.21 69.6925 215.152 70.1398 214.219C72.8798 217.219 75.3198 220.629 77.8598 223.349C84.1127 230.068 91.3893 235.754 99.4198 240.199C100.587 240.7 101.616 241.475 102.42 242.459C103.71 244.319 103.16 246.799 103.01 249.039C102.49 255.949 106.14 262.659 111.22 267.379C116.3 272.099 122.66 275.159 128.96 278.019C138.04 282.139 147.34 286.019 157.15 287.649C164.21 288.859 171.6 288.919 178.15 291.699C187.48 295.629 193.79 304.309 199.44 312.699C203.14 318.229 206.78 323.839 209.95 329.699L210 329.679Z" fill="#000001"/>
</g>
<g opacity="0.3">
<path d="M176.819 253.4C168.729 244.87 157.759 240.3 147.089 235.92C144.999 235.06 142.269 236.85 141.789 238.92C141.219 241.42 142.559 243.3 144.789 244.22C149.526 246.068 154.157 248.178 158.659 250.54C163.152 252.824 167.228 255.846 170.719 259.48C171.538 260.233 172.615 260.641 173.727 260.617C174.839 260.594 175.899 260.142 176.685 259.356C177.472 258.57 177.924 257.51 177.947 256.398C177.97 255.286 177.562 254.208 176.809 253.39L176.819 253.4Z" fill="white"/>
</g>
<path d="M401.7 335.77C401.7 371.44 327.7 355.31 236.39 355.31C145.08 355.31 71.0596 371.43 71.0596 335.77C71.0596 320.58 84.4896 302.2 107 286.14C137.31 264.5 184 247 236.39 247C284.39 247 327.64 261.7 357.85 280.81C385.07 298.04 401.71 318.87 401.71 335.76L401.7 335.77Z" fill="#FFD200"/>
<g opacity="0.05">
<path d="M401.7 335.77C401.7 371.44 327.7 355.31 236.39 355.31C145.08 355.31 71.0596 371.43 71.0596 335.77C71.0596 320.58 84.4896 302.2 107 286.14C117.798 296.964 130.886 305.23 145.3 310.33C176.18 321.23 210.3 318.72 242.23 311.48C274.16 304.24 304.94 292.48 336.81 284.99C343.73 283.37 350.81 281.94 357.86 280.82C385.08 298.05 401.72 318.88 401.72 335.77H401.7Z" fill="#000001"/>
</g>
<g opacity="0.3">
<path d="M301.559 269.929C301.29 269.479 300.856 269.153 300.349 269.02C299.843 268.888 299.304 268.959 298.849 269.219C294.426 271.169 290.197 273.533 286.219 276.279C285.84 276.578 285.582 277.004 285.492 277.478C285.402 277.952 285.487 278.443 285.731 278.86C285.974 279.276 286.36 279.591 286.818 279.745C287.275 279.899 287.773 279.883 288.219 279.699C292.202 276.96 296.43 274.597 300.849 272.639C301.299 272.37 301.625 271.936 301.758 271.429C301.891 270.922 301.819 270.384 301.559 269.929Z" fill="white"/>
</g>
<g opacity="0.3">
<path d="M255.799 263.48C255.425 263.113 254.923 262.908 254.399 262.908C253.876 262.908 253.373 263.113 252.999 263.48C248.938 267.697 244.318 271.337 239.269 274.3C239.005 274.409 238.767 274.573 238.571 274.782C238.376 274.991 238.228 275.239 238.136 275.51C238.045 275.781 238.013 276.068 238.042 276.352C238.071 276.637 238.16 276.912 238.305 277.159C238.449 277.405 238.645 277.618 238.878 277.783C239.112 277.948 239.378 278.061 239.659 278.114C239.94 278.167 240.229 278.16 240.507 278.092C240.785 278.024 241.044 277.897 241.269 277.72C246.61 274.584 251.498 270.736 255.799 266.28C256.166 265.906 256.371 265.403 256.371 264.88C256.371 264.356 256.166 263.854 255.799 263.48Z" fill="white"/>
</g>
<g opacity="0.3">
<path d="M172.539 290L165.469 286.46C165.245 286.283 164.985 286.157 164.707 286.089C164.429 286.021 164.14 286.013 163.859 286.066C163.578 286.119 163.312 286.232 163.079 286.397C162.845 286.562 162.649 286.775 162.505 287.022C162.361 287.268 162.271 287.543 162.242 287.828C162.213 288.112 162.245 288.4 162.336 288.67C162.428 288.941 162.576 289.19 162.772 289.398C162.967 289.607 163.205 289.771 163.469 289.88L170.539 293.42C170.986 293.604 171.483 293.621 171.941 293.466C172.398 293.312 172.784 292.998 173.028 292.581C173.272 292.164 173.356 291.673 173.267 291.199C173.177 290.725 172.918 290.299 172.539 290Z" fill="white"/>
</g>
<g opacity="0.3">
<path d="M210.49 290.409C210.18 290.069 209.88 289.729 209.59 289.409C209.45 289.249 209.32 289.079 209.18 288.909L209.07 288.759L209 288.669C208.46 287.939 207.95 287.179 207.48 286.399C207.027 285.64 206.613 284.859 206.24 284.059C206.15 283.869 206.06 283.669 205.98 283.469C205.942 283.387 205.909 283.304 205.88 283.219C205.7 282.769 205.54 282.319 205.38 281.859C205.183 281.424 204.838 281.074 204.407 280.871C203.975 280.669 203.485 280.627 203.025 280.754C202.565 280.88 202.166 281.167 201.899 281.562C201.632 281.958 201.515 282.435 201.57 282.909C202.871 286.747 204.963 290.269 207.71 293.249C208.083 293.615 208.586 293.821 209.11 293.821C209.633 293.821 210.136 293.615 210.51 293.249C210.876 292.875 211.081 292.372 211.081 291.849C211.081 291.325 210.876 290.823 210.51 290.449L210.49 290.409Z" fill="white"/>
</g>
<g opacity="0.3">
<path d="M283.88 310C280.561 305.607 276.97 301.425 273.13 297.48C272.745 297.191 272.268 297.051 271.788 297.085C271.308 297.119 270.856 297.325 270.515 297.666C270.175 298.006 269.969 298.458 269.935 298.938C269.901 299.419 270.041 299.895 270.33 300.28C272.17 302.16 273.95 304.097 275.67 306.09C277.34 308.02 279.02 310.09 280.46 312C280.728 312.45 281.163 312.776 281.67 312.909C282.176 313.042 282.715 312.97 283.17 312.71C283.619 312.441 283.946 312.007 284.078 311.5C284.211 310.993 284.14 310.455 283.88 310Z" fill="white"/>
</g>
<g opacity="0.3">
<path d="M346.809 298.219C343.542 303.939 340.276 309.656 337.009 315.369C335.749 317.579 339.159 319.579 340.429 317.369C343.696 311.649 346.963 305.932 350.229 300.219C351.489 297.999 348.079 295.999 346.809 298.219Z" fill="white"/>
</g>
<g opacity="0.3">
<path d="M324.77 298.349C323.97 293.929 322.97 289.553 321.77 285.219C321.746 284.928 321.658 284.646 321.514 284.392C321.369 284.138 321.17 283.919 320.932 283.751C320.694 283.582 320.421 283.467 320.134 283.415C319.846 283.363 319.551 283.374 319.269 283.448C318.986 283.522 318.723 283.658 318.499 283.844C318.274 284.031 318.093 284.264 317.968 284.529C317.843 284.793 317.778 285.081 317.776 285.373C317.775 285.665 317.837 285.954 317.96 286.219C319.166 290.553 320.166 294.929 320.96 299.349C321.104 299.851 321.44 300.276 321.894 300.534C322.348 300.792 322.885 300.862 323.39 300.729C323.881 300.584 324.297 300.257 324.554 299.814C324.811 299.371 324.888 298.847 324.77 298.349Z" fill="white"/>
</g>
<g opacity="0.3">
<path d="M239.999 295.29C239.494 295.158 238.957 295.228 238.503 295.485C238.049 295.743 237.714 296.169 237.569 296.67C236.918 300.212 236.019 303.704 234.879 307.12C234.746 307.625 234.816 308.162 235.074 308.616C235.332 309.07 235.757 309.406 236.259 309.55C236.764 309.683 237.301 309.613 237.755 309.355C238.209 309.097 238.544 308.672 238.689 308.17C239.824 304.753 240.723 301.261 241.379 297.72C241.512 297.215 241.442 296.678 241.184 296.224C240.926 295.77 240.501 295.435 239.999 295.29Z" fill="white"/>
</g>
<g opacity="0.3">
<path d="M190.24 265L173.75 263.26C173.22 263.26 172.711 263.47 172.336 263.846C171.961 264.221 171.75 264.729 171.75 265.26C171.75 265.79 171.961 266.299 172.336 266.674C172.711 267.049 173.22 267.26 173.75 267.26L190.24 269C190.77 269 191.279 268.789 191.654 268.414C192.029 268.039 192.24 267.53 192.24 267C192.24 266.469 192.029 265.961 191.654 265.586C191.279 265.21 190.77 265 190.24 265Z" fill="white"/>
</g>
<g opacity="0.3">
<path d="M135.059 292.829C134.79 292.38 134.356 292.054 133.849 291.921C133.342 291.788 132.804 291.859 132.349 292.12C130.092 293.658 128.097 295.549 126.439 297.72C124.529 300.06 122.659 302.42 120.769 304.72C120.48 305.105 120.34 305.581 120.374 306.061C120.408 306.541 120.615 306.993 120.955 307.334C121.295 307.674 121.747 307.88 122.227 307.914C122.708 307.949 123.184 307.808 123.569 307.519C125.419 305.219 127.249 302.92 129.109 300.64C129.899 299.64 130.699 298.71 131.569 297.82C132.029 297.35 132.499 296.9 132.999 296.48L133.319 296.22C133.319 296.22 133.319 296.22 133.379 296.22L133.499 296.13C133.779 295.93 134.059 295.729 134.359 295.549C134.809 295.281 135.135 294.846 135.268 294.34C135.401 293.833 135.329 293.294 135.069 292.84L135.059 292.829Z" fill="white"/>
</g>
<g opacity="0.3">
<path d="M190.399 303.41C190.261 302.909 189.933 302.482 189.485 302.219C189.037 301.956 188.504 301.877 187.999 302C187.498 302.145 187.072 302.48 186.815 302.934C186.557 303.388 186.487 303.925 186.619 304.43C187.497 309.598 188.062 314.814 188.309 320.05C188.309 320.58 188.52 321.089 188.895 321.464C189.27 321.839 189.779 322.05 190.309 322.05C190.84 322.05 191.349 321.839 191.724 321.464C192.099 321.089 192.309 320.58 192.309 320.05C192.035 314.462 191.424 308.895 190.479 303.38L190.399 303.41Z" fill="white"/>
</g>
<g opacity="0.3">
<path d="M163.15 303.369C163.039 303 162.823 302.67 162.529 302.421C162.235 302.171 161.875 302.012 161.492 301.962C161.109 301.912 160.721 301.974 160.372 302.141C160.024 302.307 159.732 302.571 159.53 302.899C159.233 303.426 158.899 303.931 158.53 304.409C157.935 305.144 157.265 305.815 156.53 306.409L156.3 306.579C155.863 306.848 155.539 307.268 155.39 307.759C155.257 308.264 155.327 308.801 155.585 309.255C155.843 309.709 156.268 310.045 156.77 310.189C157.024 310.258 157.289 310.275 157.55 310.241C157.811 310.207 158.062 310.121 158.29 309.989C160.222 308.657 161.826 306.903 162.98 304.859C163.239 304.397 163.31 303.853 163.18 303.339L163.15 303.369Z" fill="white"/>
</g>
<g opacity="0.3">
<path d="M102.79 313.94C102.076 313.16 101.41 312.35 100.79 311.51C99.9108 310.383 99.0897 309.211 98.3297 308C98.031 307.621 97.6052 307.363 97.1309 307.273C96.6566 307.183 96.1658 307.268 95.7492 307.512C95.3325 307.755 95.018 308.142 94.8637 308.599C94.7094 309.056 94.7258 309.554 94.9097 310C96.3853 312.409 98.0898 314.669 99.9997 316.75C100.374 317.117 100.876 317.322 101.4 317.322C101.923 317.322 102.426 317.117 102.8 316.75C103.166 316.377 103.371 315.874 103.371 315.35C103.371 314.827 103.166 314.324 102.8 313.95L102.79 313.94Z" fill="white"/>
</g>
<g opacity="0.3">
<path d="M376.769 313.339L375.769 312.669L375.219 312.279L375.019 312.129C374.369 311.609 373.739 311.069 373.139 310.489C372.552 309.922 371.995 309.324 371.469 308.699L371.079 308.229L370.959 308.069L370.859 307.939L370.959 308.059L370.909 307.989C370.649 307.649 370.409 307.289 370.169 306.939C370.06 306.675 369.896 306.437 369.687 306.241C369.479 306.046 369.23 305.897 368.96 305.806C368.689 305.715 368.401 305.682 368.117 305.712C367.832 305.741 367.558 305.83 367.311 305.975C367.064 306.119 366.851 306.315 366.686 306.548C366.521 306.782 366.408 307.048 366.355 307.329C366.302 307.61 366.31 307.899 366.378 308.177C366.446 308.455 366.572 308.714 366.749 308.939C368.852 312.087 371.599 314.753 374.809 316.759C375.264 317.019 375.803 317.091 376.309 316.958C376.816 316.825 377.251 316.499 377.519 316.049C377.78 315.594 377.851 315.056 377.718 314.549C377.585 314.042 377.259 313.608 376.809 313.339H376.769Z" fill="white"/>
</g>
<g opacity="0.3">
<path d="M304.799 295.479C302.844 292.742 300.702 290.142 298.389 287.699C298.004 287.41 297.528 287.27 297.048 287.304C296.567 287.338 296.116 287.544 295.775 287.885C295.435 288.225 295.229 288.677 295.194 289.157C295.16 289.637 295.301 290.114 295.589 290.499C296.669 291.639 297.719 292.819 298.719 294.029L299.449 294.929L299.789 295.359L299.959 295.579L300.039 295.689L300.109 295.779L300.279 295.999L300.649 296.489C300.899 296.819 301.139 297.149 301.379 297.489C301.654 297.921 302.071 298.244 302.559 298.399C302.937 298.492 303.334 298.473 303.701 298.345C304.069 298.216 304.39 297.983 304.627 297.674C304.864 297.365 305.005 296.994 305.034 296.606C305.063 296.217 304.978 295.829 304.789 295.489L304.799 295.479Z" fill="white"/>
</g>
<g opacity="0.3">
<path d="M232.339 258.099C227.539 258.266 222.752 258.7 217.999 259.399C217.498 259.544 217.072 259.879 216.815 260.333C216.557 260.787 216.487 261.324 216.619 261.829C216.764 262.331 217.099 262.756 217.553 263.014C218.007 263.272 218.544 263.342 219.049 263.209C223.445 262.577 227.871 262.19 232.309 262.049C232.84 262.049 233.349 261.838 233.724 261.463C234.099 261.088 234.309 260.579 234.309 260.049C234.309 259.518 234.099 259.01 233.724 258.635C233.349 258.26 232.84 258.049 232.309 258.049L232.339 258.099Z" fill="white"/>
</g>
<g opacity="0.3">
<path d="M285.539 260.49L284.709 260.4H284.349L282.969 260.18C282.079 260.02 281.199 259.84 280.319 259.63C278.494 259.191 276.697 258.64 274.939 257.98C274.434 257.847 273.897 257.917 273.443 258.175C272.989 258.433 272.654 258.858 272.509 259.36C272.376 259.865 272.446 260.402 272.704 260.856C272.962 261.31 273.387 261.645 273.889 261.79C277.643 263.177 281.557 264.081 285.539 264.48C286.069 264.48 286.578 264.269 286.953 263.894C287.328 263.519 287.539 263.01 287.539 262.48C287.539 261.949 287.328 261.441 286.953 261.066C286.578 260.69 286.069 260.48 285.539 260.48V260.49Z" fill="white"/>
</g>
<path d="M360.13 305.66C360.435 303.637 361.194 301.708 362.35 300.02C362.945 299.191 363.774 298.559 364.73 298.202C365.687 297.846 366.727 297.783 367.72 298.02C371.4 299.23 371.95 305.31 375.72 305.9C378.35 306.31 380.41 303.72 381.64 301.36C383.15 298.45 384.38 295.36 386.38 292.77C388.38 290.18 391.38 288.06 394.64 288.11C398.43 288.17 401.64 291.05 403.64 294.22C404.39 295.37 405.18 296.68 406.5 297.06C407.363 297.242 408.26 297.165 409.08 296.84C413.08 295.55 416.34 292.61 420.02 290.55C423.7 288.49 428.54 287.38 432.02 289.82C433.866 291.307 435.172 293.359 435.74 295.66C438.74 305.37 434.92 316.07 428.74 324.13C422.807 331.688 414.965 337.526 406.022 341.042C397.08 344.558 387.362 345.624 377.87 344.13C373.326 343.518 368.991 341.839 365.22 339.23C361.07 336.13 359.09 331.45 358.41 326.4C357.48 319.4 358.6 312.49 360.08 305.7L360.13 305.66Z" fill="#003049"/>
<path d="M363.84 413.159H133.1C94.5399 413.159 57.0999 387.529 26.4199 340.219H470.52C439.9 387.529 402.41 413.159 363.84 413.159Z" fill="#E6E6E6"/>
</g>
<defs>
<clipPath id="clip0_1211_9389">
<rect width="474.82" height="413.16" fill="white"/>
</clipPath>
</defs>
</svg>
