<svg width="427" height="435" viewBox="0 0 427 435" fill="none" xmlns="http://www.w3.org/2000/svg">
<g clip-path="url(#clip0_1211_9726)">
<g opacity="0.03">
<path d="M213.33 434.239C331.149 434.239 426.66 423.153 426.66 409.479C426.66 395.804 331.149 384.719 213.33 384.719C95.5111 384.719 0 395.804 0 409.479C0 423.153 95.5111 434.239 213.33 434.239Z" fill="#000001"/>
</g>
<path d="M63.8003 227.27H156.12C157.681 227.269 159.226 227.586 160.661 228.201C162.096 228.816 163.391 229.716 164.468 230.847C165.544 231.977 166.38 233.315 166.923 234.779C167.467 236.242 167.708 237.801 167.63 239.36L160.08 391.78C159.816 397.087 157.522 402.089 153.673 405.752C149.824 409.415 144.714 411.459 139.4 411.46H79.0003C73.6522 411.462 68.5112 409.392 64.6557 405.686C60.8002 401.979 58.5297 396.924 58.3203 391.58L52.2903 239.25C52.2256 237.698 52.4753 236.149 53.0246 234.696C53.5739 233.243 54.4112 231.917 55.4864 230.796C56.5616 229.675 57.8524 228.783 59.2811 228.173C60.7098 227.564 62.247 227.25 63.8003 227.25V227.27Z" fill="#EA8608"/>
<path d="M89.4804 370.589L77.7504 201.329L26.3404 209.999L24.9404 201.679L80.9404 192.259C81.5209 192.16 82.1157 192.184 82.686 192.331C83.2563 192.477 83.7894 192.742 84.2504 193.109C84.7088 193.472 85.0874 193.926 85.3627 194.442C85.638 194.958 85.804 195.526 85.8504 196.109L97.9004 369.999L89.4904 370.579L89.4804 370.589Z" fill="#003049"/>
<g opacity="0.44">
<path d="M67 282.879H152.15L148.55 386.389C148.433 389.735 147.022 392.906 144.614 395.232C142.206 397.558 138.988 398.858 135.64 398.859H84.57C81.2459 398.86 78.0497 397.578 75.6467 395.281C73.2438 392.985 71.8193 389.85 71.67 386.529L67 282.879Z" fill="white"/>
</g>
<g opacity="0.08">
<path d="M151.15 266.05L138.28 264.52C138.28 264.52 132.87 286.81 145.92 293.52C145.92 293.52 120.51 310.59 127.18 340.91C133.85 371.23 135.11 400.2 152.18 407.11C154.559 404.55 156.685 401.767 158.53 398.8C162.14 393.22 164.86 295.8 164.86 295.8L166.06 267.58L151.14 266L151.15 266.05Z" fill="#000001"/>
</g>
<path d="M370.26 220.799H298.39V411.459H370.26V220.799Z" fill="#EA8608"/>
<path d="M300.67 220.799H245.5V411.459H300.67V220.799Z" fill="#EA8608"/>
<g opacity="0.08">
<path d="M300.67 220.799H245.5V411.459H300.67V220.799Z" fill="#000001"/>
</g>
<path d="M245.5 220.8L276.02 171.02L300.67 220.8H245.5Z" fill="#EA8608"/>
<path d="M276.02 171.02H348.95L370.26 220.8H298.39L276.02 171.02Z" fill="#EA8608"/>
<path d="M348.95 152.68H276.02V171.02H348.95V152.68Z" fill="#EA8608"/>
<g opacity="0.46">
<path d="M348.95 152.68H276.02V171.02H348.95V152.68Z" fill="white"/>
</g>
<g opacity="0.13">
<path d="M245.5 220.8L276.02 171.02L300.67 220.8H245.5Z" fill="#000001"/>
</g>
<g opacity="0.46">
<path d="M334.29 334.769C346.336 334.769 356.1 319.01 356.1 299.569C356.1 280.129 346.336 264.369 334.29 264.369C322.245 264.369 312.48 280.129 312.48 299.569C312.48 319.01 322.245 334.769 334.29 334.769Z" fill="white"/>
</g>
<path d="M192.72 309.18C192.72 309.18 178.2 275 205.28 256.58L210.78 266.39C210.78 266.39 194.83 269.53 198.49 309.17H192.72V309.18Z" fill="#EA8608"/>
<g opacity="0.08">
<path d="M192.72 309.18C192.72 309.18 178.2 275 205.28 256.58L210.78 266.39C210.78 266.39 194.83 269.53 198.49 309.17H192.72V309.18Z" fill="#000001"/>
</g>
<path d="M184.35 410.309C191.153 407.686 198.639 407.422 205.61 409.559L208.11 410.329C211.584 411.4 215.28 411.521 218.817 410.681C222.353 409.84 225.6 408.068 228.22 405.549C240.66 393.549 260.71 368.739 258.53 334.549C256.06 295.869 231.92 291.809 212.53 299.719C207.866 301.627 202.872 302.598 197.832 302.575C192.793 302.553 187.807 301.538 183.16 299.589C173.83 295.679 161.7 293.289 151.22 300.009C132.22 312.169 131.36 377.529 167.09 407.439C169.448 409.41 172.29 410.714 175.321 411.215C178.353 411.716 181.464 411.396 184.33 410.289L184.35 410.309Z" fill="#FFD200"/>
<g opacity="0.43">
<path d="M244 321.999C245.68 330.919 247.54 349.609 239.44 369.089C239.034 370.048 238.328 370.85 237.427 371.373C236.526 371.895 235.48 372.111 234.446 371.987C233.411 371.863 232.446 371.405 231.694 370.684C230.943 369.963 230.446 369.017 230.28 367.989L223.64 325.559C222.55 318.559 228.64 312.379 235.57 313.699L235.99 313.779C237.985 314.207 239.809 315.216 241.233 316.679C242.656 318.142 243.615 319.992 243.99 321.999H244Z" fill="white"/>
</g>
<path d="M190.53 276.199C190.53 276.199 185.53 238.469 145.91 252.749C145.91 252.749 152.37 290.779 190.53 276.199Z" fill="#EA8608"/>
<g opacity="0.46">
<path d="M190.53 276.199C190.53 276.199 185.53 238.469 145.91 252.749C145.91 252.749 152.37 290.779 190.53 276.199Z" fill="white"/>
</g>
<path d="M245.25 0.649412C234.754 0.525537 224.528 3.97429 216.25 10.4294C209.275 15.9429 203.492 22.815 199.25 30.6294C195.104 22.7521 189.403 15.7983 182.49 10.1894C174.319 3.62659 164.161 0.0336971 153.68 -0.00058789C124.1 -0.210588 101.62 23.8294 101.39 55.9194C101.14 90.5794 128.81 114.499 170.69 150.699C177.8 156.849 185.86 163.819 194.24 171.249C195.344 172.22 196.76 172.76 198.229 172.771C199.698 172.782 201.123 172.263 202.24 171.309C210.72 163.999 218.88 157.139 226.08 151.089C268.5 115.489 296.5 91.9994 296.75 57.2994C297 25.2094 274.84 0.859412 245.26 0.649412H245.25Z" fill="#003049"/>
<path d="M200.68 125.349C199.901 125.344 199.144 125.086 198.523 124.613C197.903 124.141 197.453 123.48 197.24 122.729L181.89 68.3293L173.45 92.7693C173.203 93.485 172.737 94.1048 172.117 94.5409C171.498 94.977 170.758 95.2073 170 95.1993H90.0004C89.0456 95.1993 88.1299 94.82 87.4548 94.1449C86.7797 93.4698 86.4004 92.5541 86.4004 91.5993C86.4004 90.6445 86.7797 89.7289 87.4548 89.0537C88.1299 88.3786 89.0456 87.9993 90.0004 87.9993H167.42L178.77 55.1293C179.009 54.3966 179.482 53.7627 180.116 53.3253C180.75 52.888 181.511 52.6715 182.28 52.7093C183.047 52.73 183.786 52.9955 184.391 53.4669C184.996 53.9384 185.434 54.591 185.64 55.3293L200.73 108.799L216.58 55.2893C216.8 54.5448 217.255 53.8913 217.877 53.4263C218.499 52.9613 219.254 52.7098 220.03 52.7093H220.08C220.866 52.722 221.626 52.9905 222.245 53.4742C222.864 53.9579 223.308 54.6302 223.51 55.3893L232.51 89.2893H319.51C320.465 89.2893 321.381 89.6686 322.056 90.3437C322.731 91.0189 323.11 91.9345 323.11 92.8893C323.11 93.8441 322.731 94.7598 322.056 95.4349C321.381 96.11 320.465 96.4893 319.51 96.4893H229.8C229.006 96.4892 228.234 96.2263 227.604 95.7415C226.975 95.2568 226.523 94.5774 226.32 93.8093L219.88 69.6093L204.13 122.779C203.91 123.524 203.456 124.177 202.834 124.642C202.212 125.107 201.457 125.359 200.68 125.359V125.349Z" fill="#FFD200"/>
</g>
<defs>
<clipPath id="clip0_1211_9726">
<rect width="426.66" height="434.24" fill="white"/>
</clipPath>
</defs>
</svg>
