<svg width="444" height="444" viewBox="0 0 444 444" fill="none" xmlns="http://www.w3.org/2000/svg">
<g clip-path="url(#clip0_1211_9544)">
<path d="M221.79 443.58C344.281 443.58 443.58 344.281 443.58 221.79C443.58 99.2988 344.281 0 221.79 0C99.2988 0 0 99.2988 0 221.79C0 344.281 99.2988 443.58 221.79 443.58Z" fill="#E6E6E6"/>
<path opacity="0.05" d="M221.79 391.1C315.298 391.1 391.1 315.298 391.1 221.79C391.1 128.283 315.298 52.4805 221.79 52.4805C128.283 52.4805 52.4805 128.283 52.4805 221.79C52.4805 315.298 128.283 391.1 221.79 391.1Z" fill="#000001"/>
<path d="M201.94 416.83C221.823 416.83 237.94 400.712 237.94 380.83C237.94 360.948 221.823 344.83 201.94 344.83C182.058 344.83 165.94 360.948 165.94 380.83C165.94 400.712 182.058 416.83 201.94 416.83Z" fill="#FFD200"/>
<path opacity="0.3" d="M176.51 391.19C175.16 392.11 174.27 393.02 174.37 393.81C174.545 394.681 174.914 395.501 175.45 396.21C178.076 400.184 181.332 403.704 185.09 406.63C188 408.89 191.51 410.75 193.55 406.63C195.926 401.738 197.834 396.632 199.25 391.38C199.74 389.6 200.6 385.44 199.2 383.89C198.08 382.65 195.52 382.89 194.09 383.2C191.407 383.86 188.829 384.89 186.43 386.26C184.92 387 179.55 389.12 176.51 391.19Z" fill="white"/>
<path opacity="0.3" d="M211.43 386C209.82 384.95 207.32 383.21 205.26 383.67C202.59 384.26 202.51 387.02 202.19 389.2C201.29 395.2 200.41 401.31 201 407.4C201.011 408.032 201.183 408.652 201.5 409.2C202.22 410.2 203.69 410.32 204.94 410.2C212.176 409.609 218.927 406.326 223.86 401C224.241 400.629 224.541 400.183 224.74 399.69C225.12 398.51 224.34 397.29 223.55 396.33C220.059 392.294 215.976 388.811 211.44 386H211.43Z" fill="white"/>
<path opacity="0.3" d="M182.81 363.069C181.22 361.999 179.5 361.259 177.94 361.849C171.8 364.169 169.99 373.919 171.47 379.439C171.573 380.045 171.798 380.623 172.131 381.139C172.465 381.655 172.9 382.097 173.41 382.439C174.589 382.885 175.89 382.885 177.07 382.439C180.73 381.486 184.353 380.426 187.94 379.259C190.58 378.399 198.62 377.979 195.09 373.919C192.506 370.96 189.621 368.279 186.48 365.919C185.48 365.169 184.2 364.009 182.83 363.089L182.81 363.069Z" fill="white"/>
<path opacity="0.3" d="M226.57 388.59C227.583 389.071 228.727 389.198 229.82 388.95C231.28 388.44 231.93 386.77 232.27 385.26C233.27 380.93 233.46 363.21 225.51 366.7C222.177 368.16 218.87 369.684 215.59 371.27C212.5 372.76 208.93 374.1 206.11 376.06C201.93 378.96 209.61 381.67 211.65 382.57C216.56 384.74 221.51 386.79 226.58 388.57L226.57 388.59Z" fill="white"/>
<path opacity="0.3" d="M189.16 358.19C187.51 355.07 187.74 352.41 191.58 351.06C196.361 349.231 201.467 348.404 206.58 348.63C211.65 349.01 216.75 351.02 220.15 354.81C220.493 355.135 220.727 355.558 220.82 356.02C220.81 356.573 220.592 357.101 220.21 357.5C219.089 358.833 217.832 360.047 216.46 361.12L207.6 368.56C205.65 370.2 202.17 374.32 199.24 372.9C198.19 372.276 197.318 371.391 196.71 370.33C194.09 366.49 191.637 362.54 189.35 358.48L189.19 358.19H189.16Z" fill="white"/>
<path opacity="0.1" d="M352.83 150.759C352.585 153.838 352.056 156.888 351.25 159.869C345.95 179.619 329.25 195.569 311.48 206.669C284.99 223.249 253.88 233.949 234.48 259.739C226.99 269.739 220.98 280.739 213.15 290.469C175.99 336.469 95.6296 344.469 57.8796 295.129C48.3496 282.679 42.0496 268.309 38.1696 253.129C33.9596 236.649 32.6396 219.189 33.1696 202.199C35.2296 142.079 67.8396 96.9493 123.44 74.1993C129.44 71.7293 135.58 69.5793 141.78 67.6793C167.49 59.7693 194.55 56.2993 221.43 54.1593C269.08 50.3793 308.04 63.1593 336.68 103.279C346.58 117.169 354.19 133.739 352.83 150.739V150.759Z" fill="#000001"/>
<path d="M352.83 143C352.584 146.079 352.056 149.129 351.25 152.11C345.95 171.86 329.25 187.81 311.48 198.91C284.99 215.49 253.88 226.19 234.48 251.98C226.99 261.98 220.98 272.98 213.15 282.71C175.99 328.71 95.6295 336.71 57.8795 287.37C48.3095 275 41.9995 260.59 38.1295 245.41C33.9195 228.93 32.5995 211.47 33.1295 194.48C35.1895 134.36 67.7996 89.2302 123.4 66.4802C129.4 64.0102 135.54 61.8602 141.74 59.9602C167.45 52.0502 194.51 48.5802 221.39 46.4402C269.04 42.6602 308 55.3902 336.64 95.5602C346.54 109.45 354.15 126.02 352.79 143.02L352.83 143Z" fill="#EA8608"/>
<path opacity="0.3" d="M330.05 120.72C337 137.27 337.8 157.08 329 172.72C324.9 180.02 318.92 186.13 312.37 191.34C304.626 197.287 296.336 202.487 287.61 206.87C283.49 209.03 279.23 210.93 275.33 213.43C274.66 213.86 266.55 218.43 266.79 217.27C268.99 206.37 277.17 196.95 277.29 185.83C277.41 174.49 268.29 164.29 257.39 161.25C246.49 158.21 234.45 161.5 225.21 168.07C217.21 173.74 210.88 182.02 208.65 191.55C206.42 201.08 208.71 211.83 215.51 218.87C219.41 222.87 224.51 225.58 228.75 229.27C230.037 230.221 230.987 231.56 231.46 233.09C231.647 234.403 231.467 235.742 230.94 236.96C228.46 243.89 222.57 249.03 217.88 254.52C212.49 260.83 207.37 267.36 201.88 273.52C191.08 285.68 178.17 296.97 162.38 300.84C149.31 304.04 133.38 302.52 120.66 298.72C80.1399 286.72 56.2799 244.48 59.6599 203.56C60.0399 198.98 59.5299 191.39 62.2099 187.56C65.5999 182.75 74.0799 182.13 79.2699 182.93C86.4399 184.04 93.0599 187.43 100.16 188.93C106.898 190.315 113.879 189.94 120.43 187.84C111.3 183.13 100.77 180.97 92.6999 174.6C57.9999 147.21 104.36 106.6 128.22 92.5995C143.977 83.4812 161.136 77.0373 179 73.5295C187.776 71.8537 196.64 70.6752 205.55 69.9995C212.97 69.3295 216.98 65.3695 222.12 72.9995C223.369 74.6962 224.379 76.5571 225.12 78.5295C225.774 80.7105 225.928 83.0109 225.57 85.2595C224.57 92.8195 219.79 99.4395 218.5 106.96C225.1 103.06 228.14 95.3195 231.16 88.2795C234.18 81.2395 238.37 73.7095 245.68 71.4395C252.99 69.1695 264.68 73.3695 271.68 75.2395C280.082 77.4001 288.205 80.5241 295.89 84.5495C310.94 92.5495 323.34 104.88 330 120.73L330.05 120.72Z" fill="white"/>
<path opacity="0.3" d="M231 177.87C227.282 180.045 224.145 183.088 221.86 186.74C220.186 189.801 219.295 193.229 219.265 196.718C219.236 200.207 220.069 203.65 221.69 206.74C223.352 209.8 225.609 212.497 228.33 214.671C231.05 216.846 234.178 218.453 237.53 219.4C240.807 220.405 244.26 220.702 247.66 220.27C256.66 218.99 264.16 211.2 265.71 202.27C267.2 193.61 262.71 182.99 256.5 176.83C249.78 170.16 238.11 173.48 231.01 177.93L231 177.87Z" fill="white"/>
<path d="M334 256.641L336.61 254.571C348.473 245.281 361.007 236.881 374.11 229.441C383.9 223.881 400.11 218.441 403.79 206.541C407.23 195.351 395.99 185.161 385.79 183.911C375.59 182.661 365.68 187.101 356.61 191.911C328.15 206.831 301.12 224.821 277.71 246.911C265.975 257.917 255.264 269.967 245.71 282.911C237.47 294.131 211.96 323.301 226.91 337.211C245.14 354.161 265.09 333.321 275.17 319.041C291.759 295.59 311.562 274.587 334 256.651V256.641Z" fill="#EA8608"/>
<path opacity="0.3" d="M260.68 267.211C259.751 279.805 263.214 292.333 270.48 302.661C270.48 302.661 260.03 297.661 254.88 287.661C249.73 277.661 260.68 267.221 260.68 267.221V267.211Z" fill="white"/>
<path opacity="0.3" d="M277.65 249.48C276.72 262.075 280.183 274.602 287.45 284.93C287.45 284.93 277 279.93 271.85 269.93C266.7 259.93 277.65 249.49 277.65 249.49V249.48Z" fill="white"/>
<path opacity="0.3" d="M296.83 231.76C295.9 244.354 299.363 256.881 306.63 267.21C306.63 267.21 296.18 262.21 291.03 252.21C285.88 242.21 296.83 231.77 296.83 231.77V231.76Z" fill="white"/>
<path opacity="0.3" d="M315.67 218C314.74 230.594 318.203 243.122 325.47 253.45C325.47 253.45 315.02 248.45 309.87 238.45C304.72 228.45 315.67 218.01 315.67 218.01V218Z" fill="white"/>
<path opacity="0.3" d="M334.13 206.189C333.2 218.784 336.663 231.311 343.93 241.639C343.93 241.639 333.48 236.639 328.33 226.639C323.18 216.639 334.13 206.199 334.13 206.199V206.189Z" fill="white"/>
<path opacity="0.1" d="M152.25 381.65C151.6 387.36 151.16 392.72 155.94 396.73C162.25 402.04 167.12 403.43 175.41 403.04C181.246 402.915 187.015 401.775 192.46 399.67C197.928 397.535 202.549 393.672 205.62 388.67C207.537 385.035 208.775 381.08 209.27 377C210.091 372.81 210.091 368.5 209.27 364.31C207.12 355.13 198.52 348.15 189.18 346.88C179.84 345.61 170.18 349.58 163.6 356.32C157.02 363.06 153.33 372.32 152.26 381.67L152.25 381.65Z" fill="#000001"/>
<path d="M167.91 400.721C187.792 400.721 203.91 384.603 203.91 364.721C203.91 344.838 187.792 328.721 167.91 328.721C148.028 328.721 131.91 344.838 131.91 364.721C131.91 384.603 148.028 400.721 167.91 400.721Z" fill="#FFD200"/>
<path opacity="0.3" d="M142.48 375.091C141.13 376.011 140.24 376.921 140.34 377.711C140.515 378.582 140.884 379.402 141.42 380.111C144.045 384.085 147.301 387.604 151.06 390.531C153.97 392.791 157.48 394.651 159.52 390.531C161.896 385.638 163.804 380.532 165.22 375.281C165.71 373.501 166.57 369.341 165.17 367.791C164.05 366.551 161.49 366.791 160.06 367.101C157.377 367.761 154.799 368.79 152.4 370.161C150.89 370.901 145.52 373.001 142.48 375.091Z" fill="white"/>
<path opacity="0.3" d="M177.4 369.91C175.79 368.86 173.29 367.12 171.23 367.58C168.56 368.17 168.48 370.93 168.16 373.11C167.26 379.11 166.38 385.22 166.97 391.31C166.98 391.943 167.152 392.562 167.47 393.11C168.19 394.11 169.66 394.23 170.91 394.11C178.144 393.522 184.895 390.243 189.83 384.92C190.211 384.549 190.511 384.103 190.71 383.61C191.09 382.43 190.31 381.21 189.52 380.25C186.031 376.203 181.948 372.71 177.41 369.89L177.4 369.91Z" fill="white"/>
<path opacity="0.3" d="M148.79 346.999C147.2 345.929 145.48 345.189 143.92 345.779C137.78 348.099 135.97 357.849 137.45 363.369C137.553 363.975 137.778 364.553 138.112 365.069C138.445 365.584 138.88 366.027 139.39 366.369C140.569 366.815 141.871 366.815 143.05 366.369C146.71 365.416 150.333 364.356 153.92 363.189C156.56 362.329 164.6 361.909 161.07 357.849C158.487 354.89 155.601 352.208 152.46 349.849C151.46 349.099 150.18 347.939 148.81 347.019L148.79 346.999Z" fill="white"/>
<path opacity="0.3" d="M192.54 372.48C193.552 372.961 194.697 373.087 195.79 372.84C197.25 372.33 197.9 370.66 198.24 369.15C199.24 364.82 199.43 347.15 191.48 350.59C188.147 352.05 184.84 353.573 181.56 355.16C178.47 356.65 174.9 357.99 172.08 359.95C167.9 362.85 175.58 365.56 177.62 366.46C182.53 368.63 187.48 370.68 192.55 372.46L192.54 372.48Z" fill="white"/>
<path opacity="0.3" d="M155.13 342.079C153.48 338.959 153.71 336.299 157.55 334.949C162.331 333.12 167.436 332.292 172.55 332.519C177.696 332.775 182.549 334.986 186.12 338.699C186.463 339.024 186.697 339.446 186.79 339.909C186.78 340.462 186.562 340.99 186.18 341.389C185.049 342.72 183.782 343.93 182.4 344.999L173.54 352.439C171.59 354.079 168.11 358.199 165.18 356.779C164.129 356.155 163.258 355.269 162.65 354.209C160.03 350.369 157.577 346.419 155.29 342.359L155.13 342.069V342.079Z" fill="white"/>
<path opacity="0.1" d="M255.41 345.301C263.13 343.231 269.23 337.351 274.35 331.221C281.08 323.161 286.78 314.291 293.24 306.021C313.31 280.301 340.38 260.721 369.31 245.651C382.74 238.651 397.81 231.351 403.51 217.311C404.44 215.011 405.06 212.311 403.98 210.101C402.44 206.931 398.32 206.151 394.79 206.101C380.64 205.701 366.73 209.851 353.68 215.301C311.75 232.821 276.58 263.941 248.44 299.621C241.24 308.751 228.69 323.171 229.44 335.681C230.09 346.531 247.44 347.481 255.44 345.361L255.41 345.301Z" fill="#000001"/>
<path d="M371.31 304.7L373.92 302.63C385.783 293.339 398.318 284.94 411.42 277.5C421.21 271.94 437.42 266.5 441.1 254.6C444.54 243.41 433.3 233.22 423.1 231.97C412.9 230.72 403 235.16 394 239.92C365.54 254.84 338.51 272.83 315.1 294.92C303.366 305.926 292.655 317.975 283.1 330.92C274.86 342.14 249.35 371.31 264.3 385.22C282.53 402.17 302.48 381.33 312.56 367.05C329.132 343.606 348.915 322.607 371.33 304.67L371.31 304.7Z" fill="#EA8608"/>
<path opacity="0.3" d="M298 315.27C297.07 327.864 300.533 340.391 307.8 350.72C307.8 350.72 297.35 345.72 292.2 335.72C287.05 325.72 298 315.28 298 315.28V315.27Z" fill="white"/>
<path opacity="0.3" d="M315 297.539C314.07 310.133 317.533 322.661 324.8 332.989C324.8 332.989 314.35 327.989 309.2 317.989C304.05 307.989 315 297.549 315 297.549V297.539Z" fill="white"/>
<path opacity="0.3" d="M334.15 279.82C333.22 292.415 336.683 304.942 343.95 315.27C343.95 315.27 333.5 310.27 328.35 300.27C323.2 290.27 334.15 279.83 334.15 279.83V279.82Z" fill="white"/>
<path opacity="0.3" d="M353 266C352.07 278.594 355.533 291.122 362.8 301.45C362.8 301.45 352.35 296.45 347.2 286.45C342.05 276.45 353 266 353 266Z" fill="white"/>
<path opacity="0.3" d="M371.45 254.25C370.52 266.844 373.983 279.372 381.25 289.7C381.25 289.7 370.8 284.7 365.65 274.7C360.5 264.7 371.45 254.26 371.45 254.26V254.25Z" fill="white"/>
<path opacity="0.1" d="M292.73 393.361C300.45 391.291 306.55 385.411 311.67 379.281C318.4 371.221 324.1 362.351 330.56 354.081C350.63 328.361 377.7 308.781 406.63 293.711C420.06 286.711 435.13 279.411 440.83 265.371C441.76 263.071 442.38 260.371 441.3 258.161C439.76 254.991 435.64 254.161 432.11 254.111C417.96 253.711 404.05 257.861 391 263.311C349.07 280.831 313.9 311.951 285.76 347.631C278.56 356.761 266.01 371.181 266.76 383.691C267.41 394.541 284.76 395.491 292.76 393.371L292.73 393.361Z" fill="#000001"/>
</g>
<defs>
<clipPath id="clip0_1211_9544">
<rect width="443.58" height="443.58" fill="white"/>
</clipPath>
</defs>
</svg>
